<svg width="52" height="12" viewBox="0 0 52 12" fill="none" xmlns="http://www.w3.org/2000/svg">
<path opacity="0.7" d="M1.86306 11.5557H3.35306C2.50306 10.0557 2.14306 8.55572 2.14306 6.87572C2.14306 5.19572 2.50306 3.69572 3.35306 2.19572H1.86306C1.06306 3.38572 0.613057 5.03572 0.613057 6.87572C0.613057 8.71572 1.06306 10.3457 1.86306 11.5557ZM7.63728 9.73572C8.85728 9.73572 9.86728 9.29572 10.5273 8.48572L9.48728 7.52572C9.01728 8.07572 8.42728 8.35572 7.72728 8.35572C6.41728 8.35572 5.48728 7.43572 5.48728 6.11572C5.48728 4.79572 6.41728 3.87572 7.72728 3.87572C8.42728 3.87572 9.01728 4.15572 9.48728 4.69572L10.5273 3.73572C9.86728 2.93572 8.85728 2.49572 7.64728 2.49572C5.46728 2.49572 3.84728 4.00572 3.84728 6.11572C3.84728 8.22572 5.46728 9.73572 7.63728 9.73572ZM16.8648 2.61572H10.7948V3.93572H13.0248V9.61572H14.6248V3.93572H16.8648V2.61572ZM21.1243 9.73572C23.3243 9.73572 24.9543 8.20572 24.9543 6.11572C24.9543 4.02572 23.3243 2.49572 21.1243 2.49572C18.9143 2.49572 17.2943 4.03572 17.2943 6.11572C17.2943 8.19572 18.9143 9.73572 21.1243 9.73572ZM21.1243 8.35572C19.8743 8.35572 18.9343 7.44572 18.9343 6.11572C18.9343 4.78572 19.8743 3.87572 21.1243 3.87572C22.3743 3.87572 23.3143 4.78572 23.3143 6.11572C23.3143 7.44572 22.3743 8.35572 21.1243 8.35572ZM29.4323 2.16572C30.7423 2.16572 31.3623 1.61572 31.3723 0.635722H30.2623C30.2523 1.11572 29.9623 1.36572 29.4323 1.36572C28.8823 1.36572 28.6123 1.11572 28.6023 0.635722H27.4923C27.5023 1.61572 28.1023 2.16572 29.4323 2.16572ZM26.2023 9.61572H27.7323L31.0723 5.06572V9.61572H32.6723V2.61572H31.1523L27.8123 7.17572V2.61572H26.2023V9.61572ZM38.9452 9.61572H40.7852L38.4252 5.99572L40.7152 2.61572H39.0052L37.1652 5.44572H36.0052V2.61572H34.3952V9.61572H36.0052V6.79572H37.1252L38.9452 9.61572ZM46.7674 9.61572H48.4674L45.3374 2.61572H43.7374L40.6174 9.61572H42.2774L42.8974 8.11572H46.1474L46.7674 9.61572ZM43.4174 6.88572L44.5274 4.20572L45.6374 6.88572H43.4174ZM50.1156 11.5557C50.9356 10.3457 51.3756 8.71572 51.3756 6.87572C51.3756 5.03572 50.9356 3.38572 50.1156 2.19572H48.6256C49.4856 3.69572 49.8456 5.19572 49.8456 6.87572C49.8456 8.55572 49.4856 10.0557 48.6256 11.5557H50.1156Z" fill="white"/>
</svg>
