<svg width="222" height="82" viewBox="0 0 222 82" fill="none" xmlns="http://www.w3.org/2000/svg">
<path d="M97.405 43.4226L106.755 34.5226C111.605 29.9726 112.555 26.8726 112.555 23.4726C112.555 17.2726 107.655 13.4226 100.055 13.4226C94.305 13.4226 89.455 15.5726 86.755 19.2226L91.305 22.7226C93.255 20.2226 96.105 19.0726 99.505 19.0726C103.805 19.0726 106.005 20.9226 106.005 24.1226C106.005 26.0726 105.405 28.1226 102.005 31.3726L88.105 44.5726V48.9226H113.905V43.4226H97.405ZM122.095 40.9726C119.795 40.9726 118.045 42.6226 118.045 45.1226C118.045 46.9226 118.995 48.2226 120.395 48.8226L118.395 56.4726H122.445L124.995 49.4226C125.895 47.1226 126.145 46.2226 126.145 45.1226C126.145 42.6726 124.445 40.9726 122.095 40.9726ZM128.819 13.9226V25.3726H134.869V19.4226H148.619L135.469 48.9226H142.419L156.019 18.2726V13.9226H128.819Z" fill="black"/>
<path d="M174.584 41.5597C176.664 41.5597 178.324 40.6597 179.144 39.0597L177.224 37.9397C176.584 38.9597 175.624 39.4197 174.564 39.4197C172.724 39.4197 171.324 38.1597 171.324 36.0797C171.324 34.0197 172.724 32.7397 174.564 32.7397C175.624 32.7397 176.584 33.1997 177.224 34.2197L179.144 33.0997C178.324 31.4797 176.664 30.6197 174.584 30.6197C171.204 30.6197 168.804 32.8797 168.804 36.0797C168.804 39.2797 171.204 41.5597 174.584 41.5597ZM191.189 36.1397C191.189 32.7997 188.909 30.6197 185.789 30.6197C182.609 30.6197 180.269 32.8997 180.269 36.0797C180.269 39.2597 182.589 41.5597 186.169 41.5597C188.009 41.5597 189.509 40.9597 190.469 39.8197L189.129 38.2797C188.369 39.0597 187.429 39.4397 186.229 39.4397C184.369 39.4397 183.069 38.4397 182.769 36.8797H191.149C191.169 36.6397 191.189 36.3397 191.189 36.1397ZM185.789 32.6197C187.429 32.6197 188.609 33.6797 188.809 35.2197H182.749C182.989 33.6597 184.169 32.6197 185.789 32.6197ZM201.583 41.4197H204.523L200.383 35.8797L204.263 30.7397H201.583L198.423 35.0597H196.423V30.7397H193.923V41.4197H196.423V37.1397H198.363L201.583 41.4197Z" fill="black"/>
<path d="M90.327 71.7532C92.271 71.7532 93.687 70.1572 93.687 67.4812C93.687 64.8052 92.271 63.2092 90.327 63.2092C88.383 63.2092 86.979 64.8052 86.979 67.4812C86.979 70.1572 88.383 71.7532 90.327 71.7532ZM90.327 70.9612C88.863 70.9612 87.855 69.7252 87.855 67.4812C87.855 65.2372 88.863 64.0012 90.327 64.0012C91.791 64.0012 92.799 65.2372 92.799 67.4812C92.799 69.7252 91.791 70.9612 90.327 70.9612ZM95.114 68.8012H98.258V68.0572H95.114V68.8012ZM98.8849 63.2812V64.0492H100.865V71.6812H101.729V63.2812H98.8849ZM107.085 71.7532C109.029 71.7532 110.445 70.1572 110.445 67.4812C110.445 64.8052 109.029 63.2092 107.085 63.2092C105.141 63.2092 103.737 64.8052 103.737 67.4812C103.737 70.1572 105.141 71.7532 107.085 71.7532ZM107.085 70.9612C105.621 70.9612 104.613 69.7252 104.613 67.4812C104.613 65.2372 105.621 64.0012 107.085 64.0012C108.549 64.0012 109.557 65.2372 109.557 67.4812C109.557 69.7252 108.549 70.9612 107.085 70.9612ZM115.03 71.7532C116.974 71.7532 118.39 70.1572 118.39 67.4812C118.39 64.8052 116.974 63.2092 115.03 63.2092C113.086 63.2092 111.682 64.8052 111.682 67.4812C111.682 70.1572 113.086 71.7532 115.03 71.7532ZM115.03 70.9612C113.566 70.9612 112.558 69.7252 112.558 67.4812C112.558 65.2372 113.566 64.0012 115.03 64.0012C116.494 64.0012 117.502 65.2372 117.502 67.4812C117.502 69.7252 116.494 70.9612 115.03 70.9612ZM127.976 71.6812H128.984L126.32 68.4292L128.804 65.3692H127.88L125.66 68.1412H124.208V65.3692H123.356V71.6812H124.208V68.8732H125.648L127.976 71.6812ZM136.593 65.3692L133.869 69.9172L131.193 65.3692H130.329V71.6812H131.109V66.6772L133.665 70.9132H134.049L136.605 66.6892V71.6812H137.385V65.3692H136.593ZM138.297 72.8812H139.077L143.037 61.5772H142.257L138.297 72.8812ZM146.92 65.3692V68.3692C146.212 68.6692 145.54 68.8372 144.928 68.8372C143.872 68.8372 143.212 68.3572 143.212 67.3972V65.3692H142.36V67.4452C142.36 68.8732 143.296 69.5332 144.772 69.5332C145.48 69.5332 146.212 69.3652 146.92 69.0532V71.6812H147.772V65.3692H146.92ZM152.364 65.3212C151.368 65.3212 150.432 65.6332 149.796 66.1732L150.18 66.8092C150.696 66.3532 151.464 66.0652 152.28 66.0652C153.456 66.0652 154.068 66.6532 154.068 67.7332V68.1172H152.064C150.252 68.1172 149.628 68.9332 149.628 69.9052C149.628 70.9972 150.504 71.7412 151.932 71.7412C152.976 71.7412 153.72 71.3452 154.104 70.6972V71.6812H154.92V67.7692C154.92 66.1372 153.996 65.3212 152.364 65.3212ZM152.064 71.0692C151.056 71.0692 150.468 70.6132 150.468 69.8812C150.468 69.2332 150.864 68.7532 152.088 68.7532H154.068V69.7852C153.732 70.6132 153.024 71.0692 152.064 71.0692ZM159.828 71.7412C160.896 71.7412 161.796 71.3092 162.3 70.4932L161.664 70.0612C161.232 70.6972 160.56 70.9852 159.828 70.9852C158.448 70.9852 157.44 70.0132 157.44 68.5252C157.44 67.0492 158.448 66.0652 159.828 66.0652C160.56 66.0652 161.232 66.3652 161.664 67.0012L162.3 66.5692C161.796 65.7412 160.896 65.3212 159.828 65.3212C157.944 65.3212 156.576 66.6412 156.576 68.5252C156.576 70.4092 157.944 71.7412 159.828 71.7412Z" fill="black"/>
<path d="M48.4135 48.3663C48.4135 56.6538 41.66 63.3722 33.3291 63.3722C24.9983 63.3722 18.2448 56.6538 18.2448 48.3663C18.2448 40.0788 24.9983 33.3604 33.3291 33.3604C41.66 33.3604 48.4135 40.0788 48.4135 48.3663Z" fill="#C4C4C4"/>
<path d="M29.9965 50.3157C29.0612 48.3027 29.9287 45.9188 31.9242 45.0013C33.9155 44.0858 36.2914 44.9784 37.2267 46.9914L56.948 57.9864L35.0822 52.4057C33.1363 53.1553 30.8973 52.2546 29.9965 50.3157Z" fill="#030104"/>
<path d="M10.0214 26.3342C16.2473 20.1132 24.5248 16.6871 33.3291 16.6871C42.1336 16.6871 50.4113 20.1132 56.637 26.3342C62.8628 32.5552 66.2913 40.8265 66.2913 49.6243C66.2913 55.3049 64.859 60.7642 62.17 65.5953H56.0092L51.5032 62.9954L53.4932 59.5511L59.2872 62.8941C61.3342 58.9117 62.4905 54.4005 62.4905 49.6243C62.4905 48.779 62.4521 47.9425 62.3813 47.1152L55.4727 48.3324L54.7815 44.4157L61.7714 43.1842C60.5224 37.6736 57.7062 32.751 53.8173 28.9101L49.0814 34.55L46.0324 31.9936L50.8042 26.3112C46.4286 23.028 41.1022 20.9457 35.3191 20.5545V28.0975H31.3392V20.5545C25.556 20.946 20.2297 23.0281 15.8538 26.3113L20.6259 31.9936L17.577 34.55L12.8409 28.9099C8.95217 32.751 6.13599 37.6736 4.88696 43.1841L11.8767 44.4159L11.1854 48.3323L4.27728 47.1149C4.20643 47.9424 4.16801 48.7787 4.16801 49.624C4.16801 54.4005 5.3239 58.9118 7.37118 62.8939L13.1654 59.5513L15.1552 62.9954L10.6493 65.595H4.48829C1.79906 60.7639 0.366989 55.3046 0.366989 49.624C0.366837 40.8263 3.79577 32.5549 10.0214 26.3342Z" fill="#030104"/>
</svg>
