<svg width="202" height="84" viewBox="0 0 202 84" fill="none" xmlns="http://www.w3.org/2000/svg">
<path d="M78.569 26.8895C74.669 26.8895 71.319 28.0895 69.219 30.5395V30.4895C69.219 22.5395 73.369 18.4395 79.969 18.4395C82.419 18.4395 84.719 18.8895 86.619 20.1395L89.019 15.2395C86.669 13.7395 83.319 12.9895 79.819 12.9895C69.669 12.9895 62.669 19.5895 62.669 31.5895C62.669 42.8395 68.269 48.9895 77.819 48.9895C84.969 48.9895 90.619 44.5895 90.619 37.6395C90.619 31.0895 85.469 26.8895 78.569 26.8895ZM77.469 43.8895C72.819 43.8895 70.219 41.2895 70.219 37.9895C70.219 34.5395 73.119 31.9895 77.319 31.9895C81.569 31.9895 84.319 34.2895 84.319 37.9395C84.319 41.5895 81.519 43.8895 77.469 43.8895ZM108.917 27.9395L117.417 17.8395V13.4895H93.5667V18.9395H109.467L101.517 28.3895V32.8395H104.717C110.017 32.8395 112.317 34.8895 112.317 38.0395C112.317 41.2895 109.567 43.3395 104.917 43.3395C100.967 43.3395 97.1667 41.9895 94.6667 39.8895L91.8667 44.9395C95.1167 47.4895 100.067 48.9895 105.017 48.9895C114.417 48.9895 118.867 43.8895 118.867 37.9895C118.867 32.7395 115.517 28.7895 108.917 27.9395ZM131.724 42.9895L141.074 34.0895C145.924 29.5395 146.874 26.4395 146.874 23.0395C146.874 16.8395 141.974 12.9895 134.374 12.9895C128.624 12.9895 123.774 15.1395 121.074 18.7895L125.624 22.2895C127.574 19.7895 130.424 18.6395 133.824 18.6395C138.124 18.6395 140.324 20.4895 140.324 23.6895C140.324 25.6395 139.724 27.6895 136.324 30.9395L122.424 44.1395V48.4895H148.224V42.9895H131.724Z" fill="black"/>
<path d="M169.412 40.9865H172.352L168.212 35.4465L172.092 30.3065H169.412L166.252 34.6265H164.252V30.3065H161.752V40.9865H164.252V36.7065H166.192L169.412 40.9865ZM186.875 40.9865L186.855 30.3065H184.515L180.535 36.9865L176.735 30.3065H174.115V40.9865H176.395V33.8865L179.935 39.8665H181.015L184.615 33.9065V40.9865H186.875Z" fill="black"/>
<path d="M64.753 67.9601C65.485 67.7201 65.977 67.2161 65.977 66.5561C65.977 65.5241 64.873 64.8641 63.433 64.8641C62.665 64.8641 61.873 65.0441 61.093 65.4521L61.333 66.1121C62.005 65.7641 62.701 65.5961 63.349 65.5961C64.357 65.5961 65.101 65.9801 65.101 66.6761C65.101 67.3001 64.453 67.6721 63.529 67.6721H62.497V68.2961H63.577C64.633 68.2961 65.281 68.6921 65.281 69.3641C65.281 70.1321 64.429 70.5881 63.289 70.5881C62.521 70.5881 61.705 70.3481 61.117 69.9041L60.829 70.5401C61.501 71.0561 62.425 71.3201 63.325 71.3201C64.897 71.3201 66.157 70.5761 66.157 69.4361C66.157 68.6921 65.641 68.1641 64.753 67.9601ZM70.2632 64.8881C69.2672 64.8881 68.3312 65.2001 67.6952 65.7401L68.0792 66.3761C68.5952 65.9201 69.3632 65.6321 70.1792 65.6321C71.3552 65.6321 71.9672 66.2201 71.9672 67.3001V67.6841H69.9632C68.1512 67.6841 67.5272 68.5001 67.5272 69.4721C67.5272 70.5641 68.4032 71.3081 69.8312 71.3081C70.8752 71.3081 71.6192 70.9121 72.0032 70.2641V71.2481H72.8192V67.3361C72.8192 65.7041 71.8952 64.8881 70.2632 64.8881ZM69.9632 70.6361C68.9552 70.6361 68.3672 70.1801 68.3672 69.4481C68.3672 68.8001 68.7632 68.3201 69.9872 68.3201H71.9672V69.3521C71.6312 70.1801 70.9232 70.6361 69.9632 70.6361ZM75.0872 64.9361V71.2481H75.9392V65.6921H79.8992V71.2481H80.7512V64.9361H75.0872ZM85.3452 64.8881C84.3492 64.8881 83.4132 65.2001 82.7772 65.7401L83.1612 66.3761C83.6772 65.9201 84.4452 65.6321 85.2612 65.6321C86.4372 65.6321 87.0492 66.2201 87.0492 67.3001V67.6841H85.0452C83.2332 67.6841 82.6092 68.5001 82.6092 69.4721C82.6092 70.5641 83.4852 71.3081 84.9132 71.3081C85.9572 71.3081 86.7012 70.9121 87.0852 70.2641V71.2481H87.9012V67.3361C87.9012 65.7041 86.9772 64.8881 85.3452 64.8881ZM85.0452 70.6361C84.0372 70.6361 83.4492 70.1801 83.4492 69.4481C83.4492 68.8001 83.8452 68.3201 85.0692 68.3201H87.0492V69.3521C86.7132 70.1801 86.0052 70.6361 85.0452 70.6361ZM92.8093 71.3081C93.8773 71.3081 94.7773 70.8761 95.2813 70.0601L94.6453 69.6281C94.2133 70.2641 93.5413 70.5521 92.8093 70.5521C91.4293 70.5521 90.4213 69.5801 90.4213 68.0921C90.4213 66.6161 91.4293 65.6321 92.8093 65.6321C93.5413 65.6321 94.2133 65.9321 94.6453 66.5681L95.2813 66.1361C94.7773 65.3081 93.8773 64.8881 92.8093 64.8881C90.9253 64.8881 89.5573 66.2081 89.5573 68.0921C89.5573 69.9761 90.9253 71.3081 92.8093 71.3081ZM104.992 71.2481L102.472 68.0081L104.848 64.9361H103.912L102.016 67.4081L100.12 64.9361H99.1596L101.536 68.0081L99.0396 71.2481H99.9996L102.016 68.6081L104.02 71.2481H104.992ZM108.769 71.3081C110.617 71.3081 111.973 69.9641 111.973 68.0921C111.973 66.2201 110.617 64.8881 108.769 64.8881C106.921 64.8881 105.553 66.2201 105.553 68.0921C105.553 69.9641 106.921 71.3081 108.769 71.3081ZM108.769 70.5521C107.425 70.5521 106.417 69.5681 106.417 68.0921C106.417 66.6161 107.425 65.6321 108.769 65.6321C110.113 65.6321 111.109 66.6161 111.109 68.0921C111.109 69.5681 110.113 70.5521 108.769 70.5521ZM118.931 70.5041V64.9361H114.275L114.191 67.0481C114.107 68.7521 113.951 70.4441 113.015 70.5041H112.655V72.7721H113.459V71.2481H119.111V72.7721H119.915V70.5041H118.931ZM114.971 67.0961L115.043 65.6921H118.079V70.5041H114.143C114.779 70.0241 114.911 68.5361 114.971 67.0961ZM123.748 64.8881C122.752 64.8881 121.816 65.2001 121.18 65.7401L121.564 66.3761C122.08 65.9201 122.848 65.6321 123.664 65.6321C124.84 65.6321 125.452 66.2201 125.452 67.3001V67.6841H123.448C121.636 67.6841 121.012 68.5001 121.012 69.4721C121.012 70.5641 121.888 71.3081 123.316 71.3081C124.36 71.3081 125.104 70.9121 125.488 70.2641V71.2481H126.304V67.3361C126.304 65.7041 125.38 64.8881 123.748 64.8881ZM123.448 70.6361C122.44 70.6361 121.852 70.1801 121.852 69.4481C121.852 68.8001 122.248 68.3201 123.472 68.3201H125.452V69.3521C125.116 70.1801 124.408 70.6361 123.448 70.6361Z" fill="black"/>
<path fill-rule="evenodd" clip-rule="evenodd" d="M22.937 34.1797C23.9308 35.5139 25.705 36.4922 28.6457 36.0984C33.8091 35.407 37.8047 36.9565 40.202 39.9247C42.5402 42.8197 43.077 46.7285 42.0702 50.2339C41.0528 53.7762 38.4365 57.0231 34.3261 58.6505C30.2215 60.2756 24.8802 60.1938 18.501 57.631C12.9597 55.4048 9.77303 55.7658 8.05805 56.7692C6.38485 57.7481 5.40494 59.7658 5.30199 62.62C5.2 65.4475 6.00275 68.6686 7.38285 71.272C8.81142 73.9668 10.562 75.4778 12.0228 75.7713L11.1761 79.9865C7.82262 79.3129 5.23339 76.3967 3.58419 73.2857C1.88652 70.0832 0.873549 66.1196 1.00537 62.465C1.13623 58.8371 2.43967 55.0751 5.88688 53.0582C9.29231 51.0658 14.0631 51.2147 20.1038 53.6415C25.7605 55.9141 29.9274 55.7679 32.7434 54.653C35.5536 53.5404 37.2702 51.3717 37.9378 49.0471C38.6161 46.6856 38.19 44.2762 36.8572 42.6261C35.5836 41.0491 33.2002 39.8263 29.2164 40.3598C24.9356 40.9331 21.5343 39.4938 19.4891 36.7481C17.5168 34.1004 17.036 30.5482 17.8105 27.2243C18.5929 23.8671 20.6829 20.5769 24.0984 18.3428C27.5304 16.0978 32.1615 15.0063 37.8885 15.7907L37.3051 20.0504C32.4406 19.3841 28.8874 20.3477 26.4519 21.9408C23.9999 23.5448 22.5394 25.8757 21.9978 28.2C21.4484 30.5577 21.8702 32.7475 22.937 34.1797Z" fill="black"/>
<path fill-rule="evenodd" clip-rule="evenodd" d="M37.5579 18.2045C36.8986 18.1142 36.2586 18.0514 35.6379 18.0144L35.672 17.4422C36.3078 17.4801 36.9624 17.5443 37.6357 17.6366L37.5579 18.2045ZM31.7877 18.1289C30.4296 18.3026 29.1926 18.6162 28.0744 19.0416L27.8706 18.5058C29.0328 18.0637 30.314 17.7394 31.715 17.5603L31.7877 18.1289ZM24.7339 20.8718C23.6734 21.6702 22.7903 22.5936 22.0816 23.5898L21.6145 23.2575C22.3567 22.2142 23.2808 21.2482 24.3891 20.4138L24.7339 20.8718ZM20.3961 26.9911C20.0079 28.2478 19.8467 29.525 19.9065 30.7428L19.3339 30.7709C19.2707 29.4838 19.4413 28.1399 19.8484 26.8219L20.3961 26.9911ZM20.8596 34.3678C21.4456 35.4743 22.2948 36.4027 23.4011 37.0499L23.1117 37.5447C21.9064 36.8396 20.985 35.8295 20.353 34.6361L20.8596 34.3678ZM28.893 37.945C29.6786 37.8398 30.4256 37.7924 31.1341 37.7979L31.1297 38.3711C30.4499 38.3659 29.7297 38.4114 28.969 38.5132C28.2634 38.6077 27.5938 38.6393 26.9608 38.6133L26.9843 38.0405C27.5817 38.065 28.218 38.0354 28.893 37.945ZM35.5163 38.6583C37.0061 39.3036 38.1748 40.2755 39.0216 41.4473L38.5569 41.7831C37.7702 40.6944 36.6832 39.7885 35.2884 39.1843L35.5163 38.6583ZM40.6217 45.6333C40.7967 47.0974 40.6434 48.6255 40.1672 50.0857L39.6222 49.9079C40.0733 48.5246 40.2173 47.0803 40.0525 45.7014L40.6217 45.6333ZM13.453 54.2686C11.9466 54.0544 10.6417 54.0762 9.51973 54.2871L9.41384 53.7237C10.608 53.4993 11.977 53.4797 13.5337 53.7011L13.453 54.2686ZM37.9311 53.9611C36.9776 55.0241 35.7796 55.9382 34.3411 56.6151L34.0971 56.0964C35.4656 55.4524 36.6016 54.5846 37.5043 53.5783L37.9311 53.9611ZM19.1955 55.9023C18.5435 55.6403 17.9153 55.4097 17.3102 55.2088L17.4909 54.6647C18.1078 54.8696 18.7471 55.1043 19.4092 55.3703C20.1092 55.6515 20.7915 55.8992 21.456 56.115L21.2789 56.6602C20.6016 56.4402 19.9071 56.1881 19.1955 55.9023ZM6.06637 55.927C5.11627 56.7791 4.44322 57.8931 4.01467 59.1765L3.47093 58.9949C3.92501 57.6351 4.64665 56.4302 5.68362 55.5002L6.06637 55.927ZM30.0415 57.7851C28.6817 57.9296 27.1966 57.9049 25.5879 57.678L25.668 57.1104C27.234 57.3313 28.6717 57.3542 29.9809 57.2151L30.0415 57.7851ZM3.43027 63.0564C3.42617 64.3429 3.57983 65.679 3.86759 66.9987L3.30749 67.1208C3.01182 65.7648 2.85277 64.3871 2.85702 63.0546L3.43027 63.0564ZM5.08376 70.7829C5.63032 72.0472 6.29285 73.2183 7.04203 74.2236L6.58237 74.5662C5.80331 73.5207 5.11941 72.3101 4.55757 71.0104L5.08376 70.7829ZM9.87828 76.8964C10.455 77.2373 11.0498 77.4761 11.6559 77.5979L11.543 78.1599C10.8656 78.0238 10.2108 77.7589 9.58652 77.3898L9.87828 76.8964Z" fill="white"/>
<path d="M17.4748 78.5954C17.4748 81.3657 15.2291 83.6114 12.4588 83.6114C9.6886 83.6114 7.44287 81.3657 7.44287 78.5954C7.44287 75.8252 9.6886 73.5795 12.4588 73.5795C15.2291 73.5795 17.4748 75.8252 17.4748 78.5954Z" fill="#C4C4C4"/>
<path d="M14.6087 78.5954C14.6087 79.7827 13.6463 80.7451 12.459 80.7451C11.2718 80.7451 10.3093 79.7827 10.3093 78.5954C10.3093 77.4082 11.2718 76.4457 12.459 76.4457C13.6463 76.4457 14.6087 77.4082 14.6087 78.5954Z" fill="white"/>
<path d="M44.7046 16.9706C44.7046 19.7408 42.4588 21.9865 39.6886 21.9865C36.9183 21.9865 34.6726 19.7408 34.6726 16.9706C34.6726 14.2003 36.9183 11.9546 39.6886 11.9546C42.4588 11.9546 44.7046 14.2003 44.7046 16.9706Z" fill="#C4C4C4"/>
<path d="M41.8382 16.9706C41.8382 18.1578 40.8758 19.1203 39.6885 19.1203C38.5013 19.1203 37.5388 18.1578 37.5388 16.9706C37.5388 15.7833 38.5013 14.8209 39.6885 14.8209C40.8758 14.8209 41.8382 15.7833 41.8382 16.9706Z" fill="white"/>
</svg>
