<svg width="202" height="71" fill="none" xmlns="http://www.w3.org/2000/svg"><rect x="2" y="23" width="32" height="40" rx="3" stroke="#fff" stroke-width="4"/><path d="M11 18a3 3 0 0 1 3-3h8a3 3 0 0 1 3 3v5H11v-5z" stroke="#fff" stroke-width="4"/><path d="M65.1 53.072c-.832 0-1.588-.184-2.268-.552a4.175 4.175 0 0 1-1.584-1.536c-.376-.648-.564-1.376-.564-2.184 0-.808.188-1.536.564-2.184a4.087 4.087 0 0 1 1.584-1.524 4.608 4.608 0 0 1 2.268-.564c.832 0 1.58.184 2.244.552.672.368 1.2.88 1.584 1.536.384.648.576 1.376.576 2.184 0 .808-.192 1.54-.576 2.196a4.087 4.087 0 0 1-1.584 1.524c-.664.368-1.412.552-2.244.552zm0-.792a3.66 3.66 0 0 0 1.8-.444c.536-.304.956-.72 1.26-1.248a3.56 3.56 0 0 0 .456-1.788c0-.656-.152-1.248-.456-1.776a3.203 3.203 0 0 0-1.26-1.248 3.584 3.584 0 0 0-1.8-.456 3.65 3.65 0 0 0-1.812.456c-.536.296-.96.712-1.272 1.248a3.495 3.495 0 0 0-.456 1.776c0 .656.152 1.252.456 1.788a3.4 3.4 0 0 0 1.272 1.248 3.729 3.729 0 0 0 1.812.444zm9.379-5.436c.584 0 1.104.132 1.56.396.464.256.824.62 1.08 1.092.256.464.384.996.384 1.596 0 .616-.136 1.164-.408 1.644-.264.472-.636.84-1.116 1.104-.48.264-1.032.396-1.656.396-1.048 0-1.86-.368-2.436-1.104-.576-.736-.864-1.752-.864-3.048 0-1.352.256-2.388.768-3.108.52-.72 1.328-1.208 2.424-1.464l2.832-.648.144.78-2.664.612c-.904.2-1.568.556-1.992 1.068-.424.504-.656 1.252-.696 2.244a2.825 2.825 0 0 1 1.068-1.14c.456-.28.98-.42 1.572-.42zm-.132 5.52c.44 0 .832-.1 1.176-.3.352-.208.624-.496.816-.864.2-.368.3-.784.3-1.248 0-.464-.096-.872-.288-1.224a2.004 2.004 0 0 0-.816-.816c-.344-.2-.74-.3-1.188-.3-.448 0-.848.1-1.2.3a2.105 2.105 0 0 0-.816.816c-.192.352-.288.76-.288 1.224 0 .464.096.88.288 1.248.2.368.476.656.828.864.352.2.748.3 1.188.3zm8.192-3.468c.776 0 1.368.176 1.776.528.408.352.612.848.612 1.488 0 .68-.22 1.2-.66 1.56-.44.352-1.072.528-1.896.528h-2.496v-5.556h-1.968v-.756h2.82v2.208h1.812zm-.18 3.444c.56 0 .984-.12 1.272-.36.288-.24.432-.596.432-1.068 0-.912-.568-1.368-1.704-1.368h-1.632v2.796h1.632zm9.709-2.232h-5.28c.048.656.3 1.188.756 1.596.456.4 1.032.6 1.728.6.392 0 .752-.068 1.08-.204.328-.144.612-.352.852-.624l.48.552c-.28.336-.632.592-1.056.768a3.507 3.507 0 0 1-1.38.264c-.648 0-1.224-.136-1.728-.408a3.038 3.038 0 0 1-1.164-1.152 3.267 3.267 0 0 1-.42-1.656c0-.616.132-1.168.396-1.656.272-.488.64-.868 1.104-1.14.472-.272 1-.408 1.584-.408a3.05 3.05 0 0 1 1.572.408c.464.272.828.652 1.092 1.14.264.48.396 1.032.396 1.656l-.012.264zm-3.048-2.736c-.608 0-1.12.196-1.536.588-.408.384-.64.888-.696 1.512h4.476c-.056-.624-.292-1.128-.708-1.512-.408-.392-.92-.588-1.536-.588zm12.002-.684V53h-.78v-4.992l-2.556 4.224h-.384l-2.556-4.236V53h-.78v-6.312h.864l2.676 4.548 2.724-4.548h.792zm10.029.756h-3.612V53h-.852v-6.312h4.464v.756zm4.483-.804c.592 0 1.128.136 1.608.408.48.264.856.64 1.128 1.128.272.488.408 1.044.408 1.668 0 .632-.136 1.192-.408 1.68a2.916 2.916 0 0 1-1.128 1.14c-.472.264-1.008.396-1.608.396-.512 0-.976-.104-1.392-.312a2.687 2.687 0 0 1-1.008-.936v3.516h-.852v-8.64h.816v1.248a2.637 2.637 0 0 1 1.008-.96 3.01 3.01 0 0 1 1.428-.336zm-.06 5.664c.44 0 .84-.1 1.2-.3.36-.208.64-.5.84-.876.208-.376.312-.804.312-1.284s-.104-.904-.312-1.272c-.2-.376-.48-.668-.84-.876a2.355 2.355 0 0 0-1.2-.312c-.448 0-.852.104-1.212.312a2.27 2.27 0 0 0-.84.876c-.2.368-.3.792-.3 1.272s.1.908.3 1.284c.208.376.488.668.84.876.36.2.764.3 1.212.3zm10.223-5.616l-3.156 7.068c-.256.592-.552 1.012-.888 1.26-.336.248-.74.372-1.212.372-.304 0-.588-.048-.852-.144a1.846 1.846 0 0 1-.684-.432l.396-.636c.32.32.704.48 1.152.48.288 0 .532-.08.732-.24.208-.16.4-.432.576-.816l.276-.612-2.82-6.3h.888l2.376 5.364 2.376-5.364h.84zm4.235 3.024c.448.104.792.284 1.032.54.248.256.372.568.372.936 0 .368-.128.696-.384.984-.248.288-.588.512-1.02.672a4.277 4.277 0 0 1-1.428.228c-.456 0-.904-.064-1.344-.192a3.56 3.56 0 0 1-1.152-.588l.288-.636c.288.216.624.384 1.008.504s.772.18 1.164.18c.584 0 1.06-.108 1.428-.324.376-.224.564-.524.564-.9 0-.336-.152-.596-.456-.78-.304-.192-.72-.288-1.248-.288h-1.08v-.624h1.032c.472 0 .852-.088 1.14-.264.288-.184.432-.428.432-.732 0-.336-.164-.6-.492-.792-.32-.192-.74-.288-1.26-.288-.68 0-1.352.172-2.016.516l-.24-.66a5 5 0 0 1 2.34-.588c.48 0 .912.072 1.296.216.392.136.696.332.912.588.224.256.336.552.336.888 0 .32-.112.604-.336.852-.216.248-.512.432-.888.552zm5.943 3.348a3.319 3.319 0 0 1-1.644-.408 3.063 3.063 0 0 1-1.152-1.152 3.267 3.267 0 0 1-.42-1.656c0-.616.14-1.168.42-1.656.28-.488.664-.868 1.152-1.14a3.319 3.319 0 0 1 1.644-.408c.608 0 1.156.136 1.644.408.488.272.868.652 1.14 1.14.28.488.42 1.04.42 1.656 0 .616-.14 1.168-.42 1.656a2.976 2.976 0 0 1-1.14 1.152 3.319 3.319 0 0 1-1.644.408zm0-.756c.448 0 .848-.1 1.2-.3.36-.208.64-.5.84-.876.2-.376.3-.804.3-1.284s-.1-.908-.3-1.284c-.2-.376-.48-.664-.84-.864a2.314 2.314 0 0 0-1.2-.312c-.448 0-.852.104-1.212.312-.352.2-.632.488-.84.864-.2.376-.3.804-.3 1.284s.1.908.3 1.284c.208.376.488.668.84.876.36.2.764.3 1.212.3zm9.045-2.568c.856.2 1.284.716 1.284 1.548 0 .552-.204.976-.612 1.272-.408.296-1.016.444-1.824.444H140.9v-6.312h2.784c.72 0 1.284.14 1.692.42.408.28.612.68.612 1.2 0 .344-.096.64-.288.888-.184.24-.444.42-.78.54zm-3.192-.24h1.896c.488 0 .86-.092 1.116-.276.264-.184.396-.452.396-.804 0-.352-.132-.616-.396-.792-.256-.176-.628-.264-1.116-.264h-1.896v2.136zm2.004 2.832c.544 0 .952-.088 1.224-.264.272-.176.408-.452.408-.828 0-.376-.124-.652-.372-.828-.248-.184-.64-.276-1.176-.276h-2.088v2.196h2.004zm7.072.732a3.319 3.319 0 0 1-1.644-.408 3.063 3.063 0 0 1-1.152-1.152 3.267 3.267 0 0 1-.42-1.656c0-.616.14-1.168.42-1.656.28-.488.664-.868 1.152-1.14a3.319 3.319 0 0 1 1.644-.408c.608 0 1.156.136 1.644.408.488.272.868.652 1.14 1.14.28.488.42 1.04.42 1.656 0 .616-.14 1.168-.42 1.656a2.976 2.976 0 0 1-1.14 1.152 3.319 3.319 0 0 1-1.644.408zm0-.756c.448 0 .848-.1 1.2-.3.36-.208.64-.5.84-.876.2-.376.3-.804.3-1.284s-.1-.908-.3-1.284c-.2-.376-.48-.664-.84-.864a2.314 2.314 0 0 0-1.2-.312c-.448 0-.852.104-1.212.312-.352.2-.632.488-.84.864-.2.376-.3.804-.3 1.284s.1.908.3 1.284c.208.376.488.668.84.876.36.2.764.3 1.212.3zm9.489-4.86h-3.612V53h-.852v-6.312h4.464v.756zm3.543 5.616a3.319 3.319 0 0 1-1.644-.408 3.063 3.063 0 0 1-1.152-1.152 3.267 3.267 0 0 1-.42-1.656c0-.616.14-1.168.42-1.656.28-.488.664-.868 1.152-1.14a3.319 3.319 0 0 1 1.644-.408c.608 0 1.156.136 1.644.408.488.272.868.652 1.14 1.14.28.488.42 1.04.42 1.656 0 .616-.14 1.168-.42 1.656a2.976 2.976 0 0 1-1.14 1.152 3.319 3.319 0 0 1-1.644.408zm0-.756c.448 0 .848-.1 1.2-.3.36-.208.64-.5.84-.876.2-.376.3-.804.3-1.284s-.1-.908-.3-1.284c-.2-.376-.48-.664-.84-.864a2.314 2.314 0 0 0-1.2-.312c-.448 0-.852.104-1.212.312-.352.2-.632.488-.84.864-.2.376-.3.804-.3 1.284s.1.908.3 1.284c.208.376.488.668.84.876.36.2.764.3 1.212.3zm-96.96 8.384V67h-.852v-5.556h-3.96V67h-.852v-6.312h5.664zm5.674-.048c.592 0 1.128.136 1.608.408.48.264.856.64 1.128 1.128.272.488.408 1.044.408 1.668 0 .632-.136 1.192-.408 1.68a2.916 2.916 0 0 1-1.128 1.14c-.472.264-1.008.396-1.608.396-.512 0-.976-.104-1.392-.312a2.687 2.687 0 0 1-1.008-.936v3.516h-.852v-8.64h.816v1.248a2.637 2.637 0 0 1 1.008-.96 3.01 3.01 0 0 1 1.428-.336zm-.06 5.664c.44 0 .84-.1 1.2-.3.36-.208.64-.5.84-.876.208-.376.312-.804.312-1.284s-.104-.904-.312-1.272c-.2-.376-.48-.668-.84-.876a2.355 2.355 0 0 0-1.2-.312c-.448 0-.852.104-1.212.312a2.27 2.27 0 0 0-.84.876c-.2.368-.3.792-.3 1.272s.1.908.3 1.284c.208.376.488.668.84.876.36.2.764.3 1.212.3zm7.639.756a3.319 3.319 0 0 1-1.645-.408 3.063 3.063 0 0 1-1.151-1.152 3.267 3.267 0 0 1-.42-1.656c0-.616.14-1.168.42-1.656.28-.488.663-.868 1.151-1.14a3.319 3.319 0 0 1 1.645-.408c.608 0 1.155.136 1.643.408.488.272.868.652 1.14 1.14.28.488.42 1.04.42 1.656 0 .616-.14 1.168-.42 1.656a2.976 2.976 0 0 1-1.14 1.152 3.319 3.319 0 0 1-1.644.408zm0-.756c.447 0 .847-.1 1.2-.3.36-.208.64-.5.84-.876.2-.376.3-.804.3-1.284s-.1-.908-.3-1.284c-.2-.376-.48-.664-.84-.864a2.314 2.314 0 0 0-1.2-.312c-.449 0-.853.104-1.213.312-.352.2-.632.488-.84.864-.2.376-.3.804-.3 1.284s.1.908.3 1.284c.209.376.489.668.84.876.36.2.764.3 1.213.3zm7.664.756a3.436 3.436 0 0 1-1.68-.408 2.976 2.976 0 0 1-1.152-1.14 3.333 3.333 0 0 1-.42-1.668c0-.616.14-1.168.42-1.656.28-.488.664-.868 1.152-1.14a3.436 3.436 0 0 1 1.68-.408c.544 0 1.028.108 1.452.324.432.208.772.516 1.02.924l-.636.432a1.945 1.945 0 0 0-.792-.696c-.32-.16-.668-.24-1.044-.24-.456 0-.868.104-1.236.312-.36.2-.644.488-.852.864-.2.376-.3.804-.3 1.284 0 .488.1.92.3 1.296.208.368.492.656.852.864.368.2.78.3 1.236.3.376 0 .724-.076 1.044-.228.32-.152.584-.384.792-.696l.636.432c-.248.408-.588.72-1.02.936a3.304 3.304 0 0 1-1.452.312zm8.445-5.616H93.85V67h-.852v-5.556H90.61v-.756h5.628v.756zm4.484-.804c.592 0 1.128.136 1.608.408.48.264.856.64 1.128 1.128.272.488.408 1.044.408 1.668 0 .632-.136 1.192-.408 1.68a2.916 2.916 0 0 1-1.128 1.14c-.472.264-1.008.396-1.608.396a3.07 3.07 0 0 1-1.392-.312 2.687 2.687 0 0 1-1.008-.936v3.516h-.852v-8.64h.816v1.248a2.637 2.637 0 0 1 1.008-.96 3.01 3.01 0 0 1 1.428-.336zm-.06 5.664c.44 0 .84-.1 1.2-.3.36-.208.64-.5.84-.876.208-.376.312-.804.312-1.284s-.104-.904-.312-1.272c-.2-.376-.48-.668-.84-.876a2.355 2.355 0 0 0-1.2-.312 2.38 2.38 0 0 0-1.212.312 2.27 2.27 0 0 0-.84.876c-.2.368-.3.792-.3 1.272s.1.908.3 1.284c.208.376.488.668.84.876.36.2.764.3 1.212.3zm7.171-5.664c.824 0 1.456.208 1.896.624.44.408.66 1.016.66 1.824V67h-.816v-.984a1.947 1.947 0 0 1-.852.768c-.368.184-.808.276-1.32.276-.704 0-1.264-.168-1.68-.504-.416-.336-.624-.78-.624-1.332 0-.536.192-.968.576-1.296.392-.328 1.012-.492 1.86-.492h2.004v-.384c0-.544-.152-.956-.456-1.236-.304-.288-.748-.432-1.332-.432-.4 0-.784.068-1.152.204a2.822 2.822 0 0 0-.948.54l-.384-.636c.32-.272.704-.48 1.152-.624.448-.152.92-.228 1.416-.228zm-.3 5.748c.48 0 .892-.108 1.236-.324.344-.224.6-.544.768-.96v-1.032h-1.98c-1.08 0-1.62.376-1.62 1.128 0 .368.14.66.42.876.28.208.672.312 1.176.312zm5.124-5.7h.852v2.796h3.972v-2.796h.852V67h-.852v-2.784h-3.972V67h-.852v-6.312zm10.738 6.372a3.436 3.436 0 0 1-1.68-.408 2.976 2.976 0 0 1-1.152-1.14 3.333 3.333 0 0 1-.42-1.668c0-.616.14-1.168.42-1.656.28-.488.664-.868 1.152-1.14a3.436 3.436 0 0 1 1.68-.408c.544 0 1.028.108 1.452.324.432.208.772.516 1.02.924l-.636.432a1.945 1.945 0 0 0-.792-.696c-.32-.16-.668-.24-1.044-.24-.456 0-.868.104-1.236.312-.36.2-.644.488-.852.864-.2.376-.3.804-.3 1.284 0 .488.1.92.3 1.296.208.368.492.656.852.864.368.2.78.3 1.236.3.376 0 .724-.076 1.044-.228.32-.152.584-.384.792-.696l.636.432c-.248.408-.588.72-1.02.936a3.304 3.304 0 0 1-1.452.312zm8.445-5.616h-2.388V67h-.852v-5.556h-2.388v-.756h5.628v.756zm5.251 2.292c.856.2 1.284.716 1.284 1.548 0 .552-.204.976-.612 1.272-.408.296-1.016.444-1.824.444h-2.868v-6.312h2.784c.72 0 1.284.14 1.692.42.408.28.612.68.612 1.2 0 .344-.096.64-.288.888-.184.24-.444.42-.78.54zm-3.192-.24h1.896c.488 0 .86-.092 1.116-.276.264-.184.396-.452.396-.804 0-.352-.132-.616-.396-.792-.256-.176-.628-.264-1.116-.264h-1.896v2.136zm2.004 2.832c.544 0 .952-.088 1.224-.264.272-.176.408-.452.408-.828 0-.376-.124-.652-.372-.828-.248-.184-.64-.276-1.176-.276h-2.088v2.196h2.004zm6.641-5.688c.824 0 1.456.208 1.896.624.44.408.66 1.016.66 1.824V67h-.816v-.984a1.947 1.947 0 0 1-.852.768c-.368.184-.808.276-1.32.276-.704 0-1.264-.168-1.68-.504-.416-.336-.624-.78-.624-1.332 0-.536.192-.968.576-1.296.392-.328 1.012-.492 1.86-.492h2.004v-.384c0-.544-.152-.956-.456-1.236-.304-.288-.748-.432-1.332-.432-.4 0-.784.068-1.152.204a2.822 2.822 0 0 0-.948.54l-.384-.636c.32-.272.704-.48 1.152-.624.448-.152.92-.228 1.416-.228zm-.3 5.748c.48 0 .892-.108 1.236-.324.344-.224.6-.544.768-.96v-1.032h-1.98c-1.08 0-1.62.376-1.62 1.128 0 .368.14.66.42.876.28.208.672.312 1.176.312zM77.43 21.12c1.283.583 2.263 1.377 2.94 2.38.7.98 1.05 2.135 1.05 3.465 0 1.493-.42 2.8-1.26 3.92-.817 1.12-1.983 1.983-3.5 2.59-1.517.583-3.278.875-5.285.875s-3.768-.292-5.285-.875c-1.493-.607-2.648-1.47-3.465-2.59-.817-1.12-1.225-2.427-1.225-3.92 0-1.33.338-2.485 1.015-3.465.677-1.003 1.645-1.797 2.905-2.38-.98-.537-1.738-1.237-2.275-2.1-.513-.887-.77-1.902-.77-3.045 0-1.377.373-2.578 1.12-3.605.77-1.027 1.843-1.82 3.22-2.38 1.377-.56 2.963-.84 4.76-.84 1.82 0 3.418.28 4.795.84 1.377.56 2.45 1.353 3.22 2.38s1.155 2.228 1.155 3.605c0 1.143-.268 2.147-.805 3.01s-1.307 1.575-2.31 2.135zm-6.055-8.4c-1.423 0-2.555.303-3.395.91-.817.607-1.225 1.458-1.225 2.555 0 1.05.408 1.89 1.225 2.52.84.607 1.972.91 3.395.91 1.447 0 2.59-.303 3.43-.91.84-.63 1.26-1.47 1.26-2.52 0-1.097-.432-1.948-1.295-2.555-.84-.607-1.972-.91-3.395-.91zm0 18.06c1.68 0 3.01-.35 3.99-1.05.98-.7 1.47-1.668 1.47-2.905 0-1.213-.49-2.17-1.47-2.87-.98-.7-2.31-1.05-3.99-1.05-1.68 0-2.998.35-3.955 1.05-.957.7-1.435 1.657-1.435 2.87 0 1.237.478 2.205 1.435 2.905.957.7 2.275 1.05 3.955 1.05zM92.632 9.15c3.36 0 5.962 1.05 7.805 3.15 1.867 2.1 2.8 5.11 2.8 9.03 0 2.753-.502 5.11-1.505 7.07-1.003 1.937-2.415 3.418-4.235 4.445-1.797 1.003-3.885 1.505-6.265 1.505-1.26 0-2.45-.128-3.57-.385-1.097-.28-2.053-.677-2.87-1.19l1.68-3.43c1.213.793 2.765 1.19 4.655 1.19 2.357 0 4.2-.723 5.53-2.17s1.995-3.535 1.995-6.265v-.035c-.723.84-1.645 1.482-2.765 1.925-1.12.42-2.38.63-3.78.63-1.61 0-3.057-.303-4.34-.91-1.283-.63-2.287-1.517-3.01-2.66-.723-1.143-1.085-2.462-1.085-3.955 0-1.587.397-2.975 1.19-4.165.793-1.213 1.867-2.147 3.22-2.8 1.353-.653 2.87-.98 4.55-.98zm.35 11.9c1.47 0 2.66-.397 3.57-1.19.933-.793 1.4-1.797 1.4-3.01 0-1.19-.455-2.17-1.365-2.94-.887-.793-2.123-1.19-3.71-1.19-1.423 0-2.578.385-3.465 1.155-.887.747-1.33 1.75-1.33 3.01 0 1.283.443 2.298 1.33 3.045.887.747 2.077 1.12 3.57 1.12zm35.173 7.385h-4.34V34h-4.41v-5.565h-13.44v-3.15L118.04 9.5h4.865L111.53 24.585h8.015V19.65h4.27v4.935h4.34v3.85zM150.36 23.32V34h-2.5v-8.56h-4l-.1 2.12c-.067 1.413-.2 2.6-.4 3.56-.187.947-.513 1.7-.98 2.26-.453.547-1.08.82-1.88.82-.373 0-.833-.073-1.38-.22l.12-2.1c.187.04.347.06.48.06.507 0 .887-.2 1.14-.6.253-.413.413-.9.48-1.46.08-.573.147-1.387.2-2.44l.18-4.12h8.64zm3.367 0h2.5v7.04l5.9-7.04h2.28V34h-2.5v-7.04l-5.88 7.04h-2.3V23.32zm22.503 2.12h-3.74V34h-2.5v-8.56h-3.76v-2.12h10v2.12zm7.733-2.24c1.04 0 1.967.227 2.78.68a4.88 4.88 0 0 1 1.94 1.92c.467.827.7 1.78.7 2.86 0 1.08-.233 2.04-.7 2.88a4.88 4.88 0 0 1-1.94 1.92c-.813.453-1.74.68-2.78.68-1.44 0-2.58-.48-3.42-1.44v5.18h-2.5V23.32h2.38v1.4c.414-.507.92-.887 1.52-1.14a5.245 5.245 0 0 1 2.02-.38zm-.28 8.8c.92 0 1.674-.307 2.26-.92.6-.613.9-1.42.9-2.42s-.3-1.807-.9-2.42c-.586-.613-1.34-.92-2.26-.92-.6 0-1.14.14-1.62.42-.48.267-.86.653-1.14 1.16-.28.507-.42 1.093-.42 1.76s.14 1.253.42 1.76c.28.507.66.9 1.14 1.18.48.267 1.02.4 1.62.4zm12.032-8.8c1.573 0 2.773.38 3.6 1.14.84.747 1.26 1.88 1.26 3.4V34h-2.36v-1.3c-.307.467-.747.827-1.32 1.08-.56.24-1.24.36-2.04.36s-1.5-.133-2.1-.4c-.6-.28-1.067-.66-1.4-1.14a2.985 2.985 0 0 1-.48-1.66c0-.96.353-1.727 1.06-2.3.72-.587 1.846-.88 3.38-.88h2.76v-.16c0-.747-.227-1.32-.68-1.72-.44-.4-1.1-.6-1.98-.6-.6 0-1.194.093-1.78.28a4.356 4.356 0 0 0-1.46.78l-.98-1.82c.56-.427 1.233-.753 2.02-.98a8.983 8.983 0 0 1 2.5-.34zm-.34 9.12c.626 0 1.18-.14 1.66-.42.493-.293.84-.707 1.04-1.24v-1.24h-2.58c-1.44 0-2.16.473-2.16 1.42 0 .453.18.813.54 1.08.36.267.86.4 1.5.4z" fill="#fff"/></svg>