<svg width="202" height="71" viewBox="0 0 202 71" fill="none" xmlns="http://www.w3.org/2000/svg">
<rect x="2" y="23" width="32" height="40" rx="3" stroke="white" stroke-width="4"/>
<path d="M11 18C11 16.3431 12.3431 15 14 15H22C23.6569 15 25 16.3431 25 18V23H11V18Z" stroke="white" stroke-width="4"/>
<path d="M65.1 53.072C64.268 53.072 63.512 52.888 62.832 52.52C62.16 52.144 61.632 51.632 61.248 50.984C60.872 50.336 60.684 49.608 60.684 48.8C60.684 47.992 60.872 47.264 61.248 46.616C61.632 45.968 62.16 45.46 62.832 45.092C63.512 44.716 64.268 44.528 65.1 44.528C65.932 44.528 66.68 44.712 67.344 45.08C68.016 45.448 68.544 45.96 68.928 46.616C69.312 47.264 69.504 47.992 69.504 48.8C69.504 49.608 69.312 50.34 68.928 50.996C68.544 51.644 68.016 52.152 67.344 52.52C66.68 52.888 65.932 53.072 65.1 53.072ZM65.1 52.28C65.764 52.28 66.364 52.132 66.9 51.836C67.436 51.532 67.856 51.116 68.16 50.588C68.464 50.052 68.616 49.456 68.616 48.8C68.616 48.144 68.464 47.552 68.16 47.024C67.856 46.488 67.436 46.072 66.9 45.776C66.364 45.472 65.764 45.32 65.1 45.32C64.436 45.32 63.832 45.472 63.288 45.776C62.752 46.072 62.328 46.488 62.016 47.024C61.712 47.552 61.56 48.144 61.56 48.8C61.56 49.456 61.712 50.052 62.016 50.588C62.328 51.116 62.752 51.532 63.288 51.836C63.832 52.132 64.436 52.28 65.1 52.28ZM74.479 46.844C75.063 46.844 75.583 46.976 76.039 47.24C76.503 47.496 76.863 47.86 77.119 48.332C77.375 48.796 77.503 49.328 77.503 49.928C77.503 50.544 77.367 51.092 77.095 51.572C76.831 52.044 76.459 52.412 75.979 52.676C75.499 52.94 74.947 53.072 74.323 53.072C73.275 53.072 72.463 52.704 71.887 51.968C71.311 51.232 71.023 50.216 71.023 48.92C71.023 47.568 71.279 46.532 71.791 45.812C72.311 45.092 73.119 44.604 74.215 44.348L77.047 43.7L77.191 44.48L74.527 45.092C73.623 45.292 72.959 45.648 72.535 46.16C72.111 46.664 71.879 47.412 71.839 48.404C72.095 47.916 72.451 47.536 72.907 47.264C73.363 46.984 73.887 46.844 74.479 46.844ZM74.347 52.364C74.787 52.364 75.179 52.264 75.523 52.064C75.875 51.856 76.147 51.568 76.339 51.2C76.539 50.832 76.639 50.416 76.639 49.952C76.639 49.488 76.543 49.08 76.351 48.728C76.159 48.376 75.887 48.104 75.535 47.912C75.191 47.712 74.795 47.612 74.347 47.612C73.899 47.612 73.499 47.712 73.147 47.912C72.803 48.104 72.531 48.376 72.331 48.728C72.139 49.08 72.043 49.488 72.043 49.952C72.043 50.416 72.139 50.832 72.331 51.2C72.531 51.568 72.807 51.856 73.159 52.064C73.511 52.264 73.907 52.364 74.347 52.364ZM82.5388 48.896C83.3148 48.896 83.9068 49.072 84.3148 49.424C84.7228 49.776 84.9268 50.272 84.9268 50.912C84.9268 51.592 84.7068 52.112 84.2668 52.472C83.8268 52.824 83.1948 53 82.3708 53H79.8748V47.444H77.9068V46.688H80.7268V48.896H82.5388ZM82.3588 52.34C82.9188 52.34 83.3428 52.22 83.6308 51.98C83.9188 51.74 84.0628 51.384 84.0628 50.912C84.0628 50 83.4948 49.544 82.3588 49.544H80.7268V52.34H82.3588ZM92.0679 50.108H86.7879C86.8359 50.764 87.0879 51.296 87.5439 51.704C87.9999 52.104 88.5759 52.304 89.2719 52.304C89.6639 52.304 90.0239 52.236 90.3519 52.1C90.6799 51.956 90.9639 51.748 91.2039 51.476L91.6839 52.028C91.4039 52.364 91.0519 52.62 90.6279 52.796C90.2119 52.972 89.7519 53.06 89.2479 53.06C88.5999 53.06 88.0239 52.924 87.5199 52.652C87.0239 52.372 86.6359 51.988 86.3559 51.5C86.0759 51.012 85.9359 50.46 85.9359 49.844C85.9359 49.228 86.0679 48.676 86.3319 48.188C86.6039 47.7 86.9719 47.32 87.4359 47.048C87.9079 46.776 88.4359 46.64 89.0199 46.64C89.6039 46.64 90.1279 46.776 90.5919 47.048C91.0559 47.32 91.4199 47.7 91.6839 48.188C91.9479 48.668 92.0799 49.22 92.0799 49.844L92.0679 50.108ZM89.0199 47.372C88.4119 47.372 87.8999 47.568 87.4839 47.96C87.0759 48.344 86.8439 48.848 86.7879 49.472H91.2639C91.2079 48.848 90.9719 48.344 90.5559 47.96C90.1479 47.568 89.6359 47.372 89.0199 47.372ZM101.022 46.688V53H100.242V48.008L97.6859 52.232H97.3019L94.7459 47.996V53H93.9659V46.688H94.8299L97.5059 51.236L100.23 46.688H101.022ZM111.051 47.444H107.439V53H106.587V46.688H111.051V47.444ZM115.534 46.64C116.126 46.64 116.662 46.776 117.142 47.048C117.622 47.312 117.998 47.688 118.27 48.176C118.542 48.664 118.678 49.22 118.678 49.844C118.678 50.476 118.542 51.036 118.27 51.524C117.998 52.012 117.622 52.392 117.142 52.664C116.67 52.928 116.134 53.06 115.534 53.06C115.022 53.06 114.558 52.956 114.142 52.748C113.734 52.532 113.398 52.22 113.134 51.812V55.328H112.282V46.688H113.098V47.936C113.354 47.52 113.69 47.2 114.106 46.976C114.53 46.752 115.006 46.64 115.534 46.64ZM115.474 52.304C115.914 52.304 116.314 52.204 116.674 52.004C117.034 51.796 117.314 51.504 117.514 51.128C117.722 50.752 117.826 50.324 117.826 49.844C117.826 49.364 117.722 48.94 117.514 48.572C117.314 48.196 117.034 47.904 116.674 47.696C116.314 47.488 115.914 47.384 115.474 47.384C115.026 47.384 114.622 47.488 114.262 47.696C113.91 47.904 113.63 48.196 113.422 48.572C113.222 48.94 113.122 49.364 113.122 49.844C113.122 50.324 113.222 50.752 113.422 51.128C113.63 51.504 113.91 51.796 114.262 52.004C114.622 52.204 115.026 52.304 115.474 52.304ZM125.697 46.688L122.541 53.756C122.285 54.348 121.989 54.768 121.653 55.016C121.317 55.264 120.913 55.388 120.441 55.388C120.137 55.388 119.853 55.34 119.589 55.244C119.325 55.148 119.097 55.004 118.905 54.812L119.301 54.176C119.621 54.496 120.005 54.656 120.453 54.656C120.741 54.656 120.985 54.576 121.185 54.416C121.393 54.256 121.585 53.984 121.761 53.6L122.037 52.988L119.217 46.688H120.105L122.481 52.052L124.857 46.688H125.697ZM129.932 49.712C130.38 49.816 130.724 49.996 130.964 50.252C131.212 50.508 131.336 50.82 131.336 51.188C131.336 51.556 131.208 51.884 130.952 52.172C130.704 52.46 130.364 52.684 129.932 52.844C129.5 52.996 129.024 53.072 128.504 53.072C128.048 53.072 127.6 53.008 127.16 52.88C126.72 52.744 126.336 52.548 126.008 52.292L126.296 51.656C126.584 51.872 126.92 52.04 127.304 52.16C127.688 52.28 128.076 52.34 128.468 52.34C129.052 52.34 129.528 52.232 129.896 52.016C130.272 51.792 130.46 51.492 130.46 51.116C130.46 50.78 130.308 50.52 130.004 50.336C129.7 50.144 129.284 50.048 128.756 50.048H127.676V49.424H128.708C129.18 49.424 129.56 49.336 129.848 49.16C130.136 48.976 130.28 48.732 130.28 48.428C130.28 48.092 130.116 47.828 129.788 47.636C129.468 47.444 129.048 47.348 128.528 47.348C127.848 47.348 127.176 47.52 126.512 47.864L126.272 47.204C127.024 46.812 127.804 46.616 128.612 46.616C129.092 46.616 129.524 46.688 129.908 46.832C130.3 46.968 130.604 47.164 130.82 47.42C131.044 47.676 131.156 47.972 131.156 48.308C131.156 48.628 131.044 48.912 130.82 49.16C130.604 49.408 130.308 49.592 129.932 49.712ZM135.875 53.06C135.267 53.06 134.719 52.924 134.231 52.652C133.743 52.372 133.359 51.988 133.079 51.5C132.799 51.012 132.659 50.46 132.659 49.844C132.659 49.228 132.799 48.676 133.079 48.188C133.359 47.7 133.743 47.32 134.231 47.048C134.719 46.776 135.267 46.64 135.875 46.64C136.483 46.64 137.031 46.776 137.519 47.048C138.007 47.32 138.387 47.7 138.659 48.188C138.939 48.676 139.079 49.228 139.079 49.844C139.079 50.46 138.939 51.012 138.659 51.5C138.387 51.988 138.007 52.372 137.519 52.652C137.031 52.924 136.483 53.06 135.875 53.06ZM135.875 52.304C136.323 52.304 136.723 52.204 137.075 52.004C137.435 51.796 137.715 51.504 137.915 51.128C138.115 50.752 138.215 50.324 138.215 49.844C138.215 49.364 138.115 48.936 137.915 48.56C137.715 48.184 137.435 47.896 137.075 47.696C136.723 47.488 136.323 47.384 135.875 47.384C135.427 47.384 135.023 47.488 134.663 47.696C134.311 47.896 134.031 48.184 133.823 48.56C133.623 48.936 133.523 49.364 133.523 49.844C133.523 50.324 133.623 50.752 133.823 51.128C134.031 51.504 134.311 51.796 134.663 52.004C135.023 52.204 135.427 52.304 135.875 52.304ZM144.92 49.736C145.776 49.936 146.204 50.452 146.204 51.284C146.204 51.836 146 52.26 145.592 52.556C145.184 52.852 144.576 53 143.768 53H140.9V46.688H143.684C144.404 46.688 144.968 46.828 145.376 47.108C145.784 47.388 145.988 47.788 145.988 48.308C145.988 48.652 145.892 48.948 145.7 49.196C145.516 49.436 145.256 49.616 144.92 49.736ZM141.728 49.496H143.624C144.112 49.496 144.484 49.404 144.74 49.22C145.004 49.036 145.136 48.768 145.136 48.416C145.136 48.064 145.004 47.8 144.74 47.624C144.484 47.448 144.112 47.36 143.624 47.36H141.728V49.496ZM143.732 52.328C144.276 52.328 144.684 52.24 144.956 52.064C145.228 51.888 145.364 51.612 145.364 51.236C145.364 50.86 145.24 50.584 144.992 50.408C144.744 50.224 144.352 50.132 143.816 50.132H141.728V52.328H143.732ZM150.804 53.06C150.196 53.06 149.648 52.924 149.16 52.652C148.672 52.372 148.288 51.988 148.008 51.5C147.728 51.012 147.588 50.46 147.588 49.844C147.588 49.228 147.728 48.676 148.008 48.188C148.288 47.7 148.672 47.32 149.16 47.048C149.648 46.776 150.196 46.64 150.804 46.64C151.412 46.64 151.96 46.776 152.448 47.048C152.936 47.32 153.316 47.7 153.588 48.188C153.868 48.676 154.008 49.228 154.008 49.844C154.008 50.46 153.868 51.012 153.588 51.5C153.316 51.988 152.936 52.372 152.448 52.652C151.96 52.924 151.412 53.06 150.804 53.06ZM150.804 52.304C151.252 52.304 151.652 52.204 152.004 52.004C152.364 51.796 152.644 51.504 152.844 51.128C153.044 50.752 153.144 50.324 153.144 49.844C153.144 49.364 153.044 48.936 152.844 48.56C152.644 48.184 152.364 47.896 152.004 47.696C151.652 47.488 151.252 47.384 150.804 47.384C150.356 47.384 149.952 47.488 149.592 47.696C149.24 47.896 148.96 48.184 148.752 48.56C148.552 48.936 148.452 49.364 148.452 49.844C148.452 50.324 148.552 50.752 148.752 51.128C148.96 51.504 149.24 51.796 149.592 52.004C149.952 52.204 150.356 52.304 150.804 52.304ZM160.293 47.444H156.681V53H155.829V46.688H160.293V47.444ZM163.836 53.06C163.228 53.06 162.68 52.924 162.192 52.652C161.704 52.372 161.32 51.988 161.04 51.5C160.76 51.012 160.62 50.46 160.62 49.844C160.62 49.228 160.76 48.676 161.04 48.188C161.32 47.7 161.704 47.32 162.192 47.048C162.68 46.776 163.228 46.64 163.836 46.64C164.444 46.64 164.992 46.776 165.48 47.048C165.968 47.32 166.348 47.7 166.62 48.188C166.9 48.676 167.04 49.228 167.04 49.844C167.04 50.46 166.9 51.012 166.62 51.5C166.348 51.988 165.968 52.372 165.48 52.652C164.992 52.924 164.444 53.06 163.836 53.06ZM163.836 52.304C164.284 52.304 164.684 52.204 165.036 52.004C165.396 51.796 165.676 51.504 165.876 51.128C166.076 50.752 166.176 50.324 166.176 49.844C166.176 49.364 166.076 48.936 165.876 48.56C165.676 48.184 165.396 47.896 165.036 47.696C164.684 47.488 164.284 47.384 163.836 47.384C163.388 47.384 162.984 47.488 162.624 47.696C162.272 47.896 161.992 48.184 161.784 48.56C161.584 48.936 161.484 49.364 161.484 49.844C161.484 50.324 161.584 50.752 161.784 51.128C161.992 51.504 162.272 51.796 162.624 52.004C162.984 52.204 163.388 52.304 163.836 52.304ZM66.876 60.688V67H66.024V61.444H62.064V67H61.212V60.688H66.876ZM72.5499 60.64C73.1419 60.64 73.6779 60.776 74.1579 61.048C74.6379 61.312 75.0139 61.688 75.2859 62.176C75.5579 62.664 75.6939 63.22 75.6939 63.844C75.6939 64.476 75.5579 65.036 75.2859 65.524C75.0139 66.012 74.6379 66.392 74.1579 66.664C73.6859 66.928 73.1499 67.06 72.5499 67.06C72.0379 67.06 71.5739 66.956 71.1579 66.748C70.7499 66.532 70.4139 66.22 70.1499 65.812V69.328H69.2979V60.688H70.1139V61.936C70.3699 61.52 70.7059 61.2 71.1219 60.976C71.5459 60.752 72.0219 60.64 72.5499 60.64ZM72.4899 66.304C72.9299 66.304 73.3299 66.204 73.6899 66.004C74.0499 65.796 74.3299 65.504 74.5299 65.128C74.7379 64.752 74.8419 64.324 74.8419 63.844C74.8419 63.364 74.7379 62.94 74.5299 62.572C74.3299 62.196 74.0499 61.904 73.6899 61.696C73.3299 61.488 72.9299 61.384 72.4899 61.384C72.0419 61.384 71.6379 61.488 71.2779 61.696C70.9259 61.904 70.6459 62.196 70.4379 62.572C70.2379 62.94 70.1379 63.364 70.1379 63.844C70.1379 64.324 70.2379 64.752 70.4379 65.128C70.6459 65.504 70.9259 65.796 71.2779 66.004C71.6379 66.204 72.0419 66.304 72.4899 66.304ZM80.1285 67.06C79.5205 67.06 78.9725 66.924 78.4845 66.652C77.9965 66.372 77.6125 65.988 77.3325 65.5C77.0525 65.012 76.9125 64.46 76.9125 63.844C76.9125 63.228 77.0525 62.676 77.3325 62.188C77.6125 61.7 77.9965 61.32 78.4845 61.048C78.9725 60.776 79.5205 60.64 80.1285 60.64C80.7365 60.64 81.2845 60.776 81.7725 61.048C82.2605 61.32 82.6405 61.7 82.9125 62.188C83.1925 62.676 83.3325 63.228 83.3325 63.844C83.3325 64.46 83.1925 65.012 82.9125 65.5C82.6405 65.988 82.2605 66.372 81.7725 66.652C81.2845 66.924 80.7365 67.06 80.1285 67.06ZM80.1285 66.304C80.5765 66.304 80.9765 66.204 81.3285 66.004C81.6885 65.796 81.9685 65.504 82.1685 65.128C82.3685 64.752 82.4685 64.324 82.4685 63.844C82.4685 63.364 82.3685 62.936 82.1685 62.56C81.9685 62.184 81.6885 61.896 81.3285 61.696C80.9765 61.488 80.5765 61.384 80.1285 61.384C79.6805 61.384 79.2765 61.488 78.9165 61.696C78.5645 61.896 78.2845 62.184 78.0765 62.56C77.8765 62.936 77.7765 63.364 77.7765 63.844C77.7765 64.324 77.8765 64.752 78.0765 65.128C78.2845 65.504 78.5645 65.796 78.9165 66.004C79.2765 66.204 79.6805 66.304 80.1285 66.304ZM87.7934 67.06C87.1694 67.06 86.6094 66.924 86.1134 66.652C85.6254 66.38 85.2414 66 84.9614 65.512C84.6814 65.016 84.5414 64.46 84.5414 63.844C84.5414 63.228 84.6814 62.676 84.9614 62.188C85.2414 61.7 85.6254 61.32 86.1134 61.048C86.6094 60.776 87.1694 60.64 87.7934 60.64C88.3374 60.64 88.8214 60.748 89.2454 60.964C89.6774 61.172 90.0174 61.48 90.2654 61.888L89.6294 62.32C89.4214 62.008 89.1574 61.776 88.8374 61.624C88.5174 61.464 88.1694 61.384 87.7934 61.384C87.3374 61.384 86.9254 61.488 86.5574 61.696C86.1974 61.896 85.9134 62.184 85.7054 62.56C85.5054 62.936 85.4054 63.364 85.4054 63.844C85.4054 64.332 85.5054 64.764 85.7054 65.14C85.9134 65.508 86.1974 65.796 86.5574 66.004C86.9254 66.204 87.3374 66.304 87.7934 66.304C88.1694 66.304 88.5174 66.228 88.8374 66.076C89.1574 65.924 89.4214 65.692 89.6294 65.38L90.2654 65.812C90.0174 66.22 89.6774 66.532 89.2454 66.748C88.8134 66.956 88.3294 67.06 87.7934 67.06ZM96.2379 61.444H93.8499V67H92.9979V61.444H90.6099V60.688H96.2379V61.444ZM100.722 60.64C101.314 60.64 101.85 60.776 102.33 61.048C102.81 61.312 103.186 61.688 103.458 62.176C103.73 62.664 103.866 63.22 103.866 63.844C103.866 64.476 103.73 65.036 103.458 65.524C103.186 66.012 102.81 66.392 102.33 66.664C101.858 66.928 101.322 67.06 100.722 67.06C100.21 67.06 99.7458 66.956 99.3298 66.748C98.9218 66.532 98.5858 66.22 98.3218 65.812V69.328H97.4698V60.688H98.2858V61.936C98.5418 61.52 98.8778 61.2 99.2938 60.976C99.7178 60.752 100.194 60.64 100.722 60.64ZM100.662 66.304C101.102 66.304 101.502 66.204 101.862 66.004C102.222 65.796 102.502 65.504 102.702 65.128C102.91 64.752 103.014 64.324 103.014 63.844C103.014 63.364 102.91 62.94 102.702 62.572C102.502 62.196 102.222 61.904 101.862 61.696C101.502 61.488 101.102 61.384 100.662 61.384C100.214 61.384 99.8098 61.488 99.4498 61.696C99.0978 61.904 98.8178 62.196 98.6098 62.572C98.4098 62.94 98.3098 63.364 98.3098 63.844C98.3098 64.324 98.4098 64.752 98.6098 65.128C98.8178 65.504 99.0978 65.796 99.4498 66.004C99.8098 66.204 100.214 66.304 100.662 66.304ZM107.833 60.64C108.657 60.64 109.289 60.848 109.729 61.264C110.169 61.672 110.389 62.28 110.389 63.088V67H109.573V66.016C109.381 66.344 109.097 66.6 108.721 66.784C108.353 66.968 107.913 67.06 107.401 67.06C106.697 67.06 106.137 66.892 105.721 66.556C105.305 66.22 105.097 65.776 105.097 65.224C105.097 64.688 105.289 64.256 105.673 63.928C106.065 63.6 106.685 63.436 107.533 63.436H109.537V63.052C109.537 62.508 109.385 62.096 109.081 61.816C108.777 61.528 108.333 61.384 107.749 61.384C107.349 61.384 106.965 61.452 106.597 61.588C106.229 61.716 105.913 61.896 105.649 62.128L105.265 61.492C105.585 61.22 105.969 61.012 106.417 60.868C106.865 60.716 107.337 60.64 107.833 60.64ZM107.533 66.388C108.013 66.388 108.425 66.28 108.769 66.064C109.113 65.84 109.369 65.52 109.537 65.104V64.072H107.557C106.477 64.072 105.937 64.448 105.937 65.2C105.937 65.568 106.077 65.86 106.357 66.076C106.637 66.284 107.029 66.388 107.533 66.388ZM112.657 60.688H113.509V63.484H117.481V60.688H118.333V67H117.481V64.216H113.509V67H112.657V60.688ZM123.395 67.06C122.771 67.06 122.211 66.924 121.715 66.652C121.227 66.38 120.843 66 120.563 65.512C120.283 65.016 120.143 64.46 120.143 63.844C120.143 63.228 120.283 62.676 120.563 62.188C120.843 61.7 121.227 61.32 121.715 61.048C122.211 60.776 122.771 60.64 123.395 60.64C123.939 60.64 124.423 60.748 124.847 60.964C125.279 61.172 125.619 61.48 125.867 61.888L125.231 62.32C125.023 62.008 124.759 61.776 124.439 61.624C124.119 61.464 123.771 61.384 123.395 61.384C122.939 61.384 122.527 61.488 122.159 61.696C121.799 61.896 121.515 62.184 121.307 62.56C121.107 62.936 121.007 63.364 121.007 63.844C121.007 64.332 121.107 64.764 121.307 65.14C121.515 65.508 121.799 65.796 122.159 66.004C122.527 66.204 122.939 66.304 123.395 66.304C123.771 66.304 124.119 66.228 124.439 66.076C124.759 65.924 125.023 65.692 125.231 65.38L125.867 65.812C125.619 66.22 125.279 66.532 124.847 66.748C124.415 66.956 123.931 67.06 123.395 67.06ZM131.84 61.444H129.452V67H128.6V61.444H126.212V60.688H131.84V61.444ZM137.091 63.736C137.947 63.936 138.375 64.452 138.375 65.284C138.375 65.836 138.171 66.26 137.763 66.556C137.355 66.852 136.747 67 135.939 67H133.071V60.688H135.855C136.575 60.688 137.139 60.828 137.547 61.108C137.955 61.388 138.159 61.788 138.159 62.308C138.159 62.652 138.063 62.948 137.871 63.196C137.687 63.436 137.427 63.616 137.091 63.736ZM133.899 63.496H135.795C136.283 63.496 136.655 63.404 136.911 63.22C137.175 63.036 137.307 62.768 137.307 62.416C137.307 62.064 137.175 61.8 136.911 61.624C136.655 61.448 136.283 61.36 135.795 61.36H133.899V63.496ZM135.903 66.328C136.447 66.328 136.855 66.24 137.127 66.064C137.399 65.888 137.535 65.612 137.535 65.236C137.535 64.86 137.411 64.584 137.163 64.408C136.915 64.224 136.523 64.132 135.987 64.132H133.899V66.328H135.903ZM142.544 60.64C143.368 60.64 144 60.848 144.44 61.264C144.88 61.672 145.1 62.28 145.1 63.088V67H144.284V66.016C144.092 66.344 143.808 66.6 143.432 66.784C143.064 66.968 142.624 67.06 142.112 67.06C141.408 67.06 140.848 66.892 140.432 66.556C140.016 66.22 139.808 65.776 139.808 65.224C139.808 64.688 140 64.256 140.384 63.928C140.776 63.6 141.396 63.436 142.244 63.436H144.248V63.052C144.248 62.508 144.096 62.096 143.792 61.816C143.488 61.528 143.044 61.384 142.46 61.384C142.06 61.384 141.676 61.452 141.308 61.588C140.94 61.716 140.624 61.896 140.36 62.128L139.976 61.492C140.296 61.22 140.68 61.012 141.128 60.868C141.576 60.716 142.048 60.64 142.544 60.64ZM142.244 66.388C142.724 66.388 143.136 66.28 143.48 66.064C143.824 65.84 144.08 65.52 144.248 65.104V64.072H142.268C141.188 64.072 140.648 64.448 140.648 65.2C140.648 65.568 140.788 65.86 141.068 66.076C141.348 66.284 141.74 66.388 142.244 66.388Z" fill="white"/>
<path d="M77.43 21.12C78.7133 21.7033 79.6933 22.4967 80.37 23.5C81.07 24.48 81.42 25.635 81.42 26.965C81.42 28.4583 81 29.765 80.16 30.885C79.3433 32.005 78.1767 32.8683 76.66 33.475C75.1433 34.0583 73.3817 34.35 71.375 34.35C69.3683 34.35 67.6067 34.0583 66.09 33.475C64.5967 32.8683 63.4417 32.005 62.625 30.885C61.8083 29.765 61.4 28.4583 61.4 26.965C61.4 25.635 61.7383 24.48 62.415 23.5C63.0917 22.4967 64.06 21.7033 65.32 21.12C64.34 20.5833 63.5817 19.8833 63.045 19.02C62.5317 18.1333 62.275 17.1183 62.275 15.975C62.275 14.5983 62.6483 13.3967 63.395 12.37C64.165 11.3433 65.2383 10.55 66.615 9.99C67.9917 9.43 69.5783 9.15 71.375 9.15C73.195 9.15 74.7933 9.43 76.17 9.99C77.5467 10.55 78.62 11.3433 79.39 12.37C80.16 13.3967 80.545 14.5983 80.545 15.975C80.545 17.1183 80.2767 18.1217 79.74 18.985C79.2033 19.8483 78.4333 20.56 77.43 21.12ZM71.375 12.72C69.9517 12.72 68.82 13.0233 67.98 13.63C67.1633 14.2367 66.755 15.0883 66.755 16.185C66.755 17.235 67.1633 18.075 67.98 18.705C68.82 19.3117 69.9517 19.615 71.375 19.615C72.8217 19.615 73.965 19.3117 74.805 18.705C75.645 18.075 76.065 17.235 76.065 16.185C76.065 15.0883 75.6333 14.2367 74.77 13.63C73.93 13.0233 72.7983 12.72 71.375 12.72ZM71.375 30.78C73.055 30.78 74.385 30.43 75.365 29.73C76.345 29.03 76.835 28.0617 76.835 26.825C76.835 25.6117 76.345 24.655 75.365 23.955C74.385 23.255 73.055 22.905 71.375 22.905C69.695 22.905 68.3767 23.255 67.42 23.955C66.4633 24.655 65.985 25.6117 65.985 26.825C65.985 28.0617 66.4633 29.03 67.42 29.73C68.3767 30.43 69.695 30.78 71.375 30.78ZM92.632 9.15C95.992 9.15 98.5937 10.2 100.437 12.3C102.304 14.4 103.237 17.41 103.237 21.33C103.237 24.0833 102.735 26.44 101.732 28.4C100.729 30.3367 99.317 31.8183 97.497 32.845C95.7004 33.8483 93.612 34.35 91.232 34.35C89.972 34.35 88.782 34.2217 87.662 33.965C86.5654 33.685 85.6087 33.2883 84.792 32.775L86.472 29.345C87.6854 30.1383 89.237 30.535 91.127 30.535C93.4837 30.535 95.327 29.8117 96.657 28.365C97.987 26.9183 98.652 24.83 98.652 22.1V22.065C97.9287 22.905 97.007 23.5467 95.887 23.99C94.767 24.41 93.507 24.62 92.107 24.62C90.497 24.62 89.0504 24.3167 87.767 23.71C86.4837 23.08 85.4804 22.1933 84.757 21.05C84.0337 19.9067 83.672 18.5883 83.672 17.095C83.672 15.5083 84.0687 14.12 84.862 12.93C85.6554 11.7167 86.7287 10.7833 88.082 10.13C89.4354 9.47667 90.952 9.15 92.632 9.15ZM92.982 21.05C94.452 21.05 95.642 20.6533 96.552 19.86C97.4854 19.0667 97.952 18.0633 97.952 16.85C97.952 15.66 97.497 14.68 96.587 13.91C95.7004 13.1167 94.4637 12.72 92.877 12.72C91.4537 12.72 90.2987 13.105 89.412 13.875C88.5254 14.6217 88.082 15.625 88.082 16.885C88.082 18.1683 88.5254 19.1833 89.412 19.93C90.2987 20.6767 91.4887 21.05 92.982 21.05ZM128.155 28.435H123.815V34H119.405V28.435H105.965V25.285L118.04 9.5H122.905L111.53 24.585H119.545V19.65H123.815V24.585H128.155V28.435Z" fill="white"/>
<path d="M150.36 23.32V34H147.86V25.44H143.86L143.76 27.56C143.693 28.9733 143.56 30.16 143.36 31.12C143.173 32.0667 142.847 32.82 142.38 33.38C141.927 33.9267 141.3 34.2 140.5 34.2C140.127 34.2 139.667 34.1267 139.12 33.98L139.24 31.88C139.427 31.92 139.587 31.94 139.72 31.94C140.227 31.94 140.607 31.74 140.86 31.34C141.113 30.9267 141.273 30.44 141.34 29.88C141.42 29.3067 141.487 28.4933 141.54 27.44L141.72 23.32H150.36ZM153.727 23.32H156.227V30.36L162.127 23.32H164.407V34H161.907V26.96L156.027 34H153.727V23.32ZM176.23 25.44H172.49V34H169.99V25.44H166.23V23.32H176.23V25.44ZM183.963 23.2C185.003 23.2 185.93 23.4267 186.743 23.88C187.57 24.3333 188.217 24.9733 188.683 25.8C189.15 26.6267 189.383 27.58 189.383 28.66C189.383 29.74 189.15 30.7 188.683 31.54C188.217 32.3667 187.57 33.0067 186.743 33.46C185.93 33.9133 185.003 34.14 183.963 34.14C182.523 34.14 181.383 33.66 180.543 32.7V37.88H178.043V23.32H180.423V24.72C180.837 24.2133 181.343 23.8333 181.943 23.58C182.557 23.3267 183.23 23.2 183.963 23.2ZM183.683 32C184.603 32 185.357 31.6933 185.943 31.08C186.543 30.4667 186.843 29.66 186.843 28.66C186.843 27.66 186.543 26.8533 185.943 26.24C185.357 25.6267 184.603 25.32 183.683 25.32C183.083 25.32 182.543 25.46 182.063 25.74C181.583 26.0067 181.203 26.3933 180.923 26.9C180.643 27.4067 180.503 27.9933 180.503 28.66C180.503 29.3267 180.643 29.9133 180.923 30.42C181.203 30.9267 181.583 31.32 182.063 31.6C182.543 31.8667 183.083 32 183.683 32ZM195.715 23.2C197.288 23.2 198.488 23.58 199.315 24.34C200.155 25.0867 200.575 26.22 200.575 27.74V34H198.215V32.7C197.908 33.1667 197.468 33.5267 196.895 33.78C196.335 34.02 195.655 34.14 194.855 34.14C194.055 34.14 193.355 34.0067 192.755 33.74C192.155 33.46 191.688 33.08 191.355 32.6C191.035 32.1067 190.875 31.5533 190.875 30.94C190.875 29.98 191.228 29.2133 191.935 28.64C192.655 28.0533 193.781 27.76 195.315 27.76H198.075V27.6C198.075 26.8533 197.848 26.28 197.395 25.88C196.955 25.48 196.295 25.28 195.415 25.28C194.815 25.28 194.221 25.3733 193.635 25.56C193.061 25.7467 192.575 26.0067 192.175 26.34L191.195 24.52C191.755 24.0933 192.428 23.7667 193.215 23.54C194.001 23.3133 194.835 23.2 195.715 23.2ZM195.375 32.32C196.001 32.32 196.555 32.18 197.035 31.9C197.528 31.6067 197.875 31.1933 198.075 30.66V29.42H195.495C194.055 29.42 193.335 29.8933 193.335 30.84C193.335 31.2933 193.515 31.6533 193.875 31.92C194.235 32.1867 194.735 32.32 195.375 32.32Z" fill="white"/>
</svg>
