<svg width="250" height="128" fill="none" xmlns="http://www.w3.org/2000/svg"><path d="M29.597 103l-.017-7.888-3.91 6.528h-.986l-3.91-6.426V103h-2.091V91.1h1.819l4.709 7.871 4.658-7.871h1.802l.034 11.9h-2.108zm5.2-9.078h2.125v5.984l5.015-5.984h1.938V103H41.75v-5.984L36.752 103h-1.955v-9.078zm11.937 0h2.125v3.689h4.573v-3.689h2.125V103h-2.125v-3.587h-4.573V103h-2.125v-9.078zm11.67 0h2.126v5.984l5.015-5.984h1.938V103h-2.125v-5.984L60.36 103h-1.955v-9.078zM79.267 103v-6.018l-3.06 5.066h-.918l-3.009-5.083V103h-1.938v-9.078h2.227l3.23 5.678 3.383-5.678h1.99l.016 9.078h-1.92zm8.154-9.18c1.338 0 2.358.323 3.06.969.714.635 1.071 1.598 1.071 2.89V103h-2.006v-1.105c-.26.397-.634.703-1.122.918-.476.204-1.054.306-1.734.306-.68 0-1.275-.113-1.785-.34-.51-.238-.906-.561-1.19-.969a2.537 2.537 0 0 1-.408-1.411c0-.816.3-1.468.901-1.955.612-.499 1.57-.748 2.873-.748h2.346v-.136c0-.635-.192-1.122-.578-1.462-.374-.34-.935-.51-1.683-.51-.51 0-1.014.08-1.513.238-.487.159-.9.38-1.24.663l-.834-1.547c.476-.363 1.049-.64 1.717-.833a7.638 7.638 0 0 1 2.125-.289zm-.289 7.752c.533 0 1.003-.119 1.411-.357.42-.249.714-.601.884-1.054v-1.054h-2.193c-1.224 0-1.836.402-1.836 1.207 0 .385.153.691.46.918.305.227.73.34 1.274.34zm15.278-7.65V103h-2.125v-7.276h-3.4l-.085 1.802c-.057 1.201-.17 2.21-.34 3.026-.159.805-.436 1.445-.833 1.921-.385.465-.918.697-1.598.697-.317 0-.708-.062-1.173-.187l.102-1.785c.159.034.295.051.408.051.43 0 .754-.17.969-.51.215-.351.351-.765.408-1.241.068-.487.125-1.179.17-2.074l.153-3.502h7.344zm7.418 2.992c1.156 0 2.04.26 2.652.782.623.521.935 1.258.935 2.21 0 .997-.34 1.768-1.02 2.312-.68.544-1.638.81-2.873.799l-4.25-.017v-9.078h2.125v2.975l2.431.017zm-.493 4.539c.623.011 1.099-.119 1.428-.391.328-.272.493-.669.493-1.19 0-.51-.159-.884-.476-1.122-.318-.238-.799-.363-1.445-.374l-1.938-.017v3.077l1.938.017zm5.948-7.531h2.125v3.689h4.573v-3.689h2.125V103h-2.125v-3.587h-4.573V103h-2.125v-9.078zm16.09 2.992c1.156 0 2.04.26 2.652.782.612.521.918 1.258.918 2.21 0 .997-.34 1.768-1.02 2.312-.668.544-1.62.81-2.856.799l-4.114-.017v-9.078h2.125v2.975l2.295.017zm4.743-2.992h2.125V103h-2.125v-9.078zm-5.236 7.531c.624.011 1.1-.119 1.428-.391.329-.272.493-.669.493-1.19 0-.51-.158-.884-.476-1.122-.317-.238-.799-.363-1.445-.374l-1.802-.017v3.077l1.802.017zm10.218-7.531h2.125v5.984l5.015-5.984h1.938V103h-2.125v-5.984L143.052 103h-1.955v-9.078zm4.403-1.071c-.918 0-1.621-.21-2.108-.629-.476-.43-.72-1.054-.731-1.87h1.411c.011.408.136.731.374.969.249.238.595.357 1.037.357.431 0 .771-.119 1.02-.357.261-.238.397-.561.408-.969h1.445c-.011.816-.261 1.44-.748 1.87-.487.42-1.19.629-2.108.629zm17.264.969c.884 0 1.671.193 2.363.578.702.385 1.252.93 1.649 1.632.396.703.595 1.513.595 2.431 0 .918-.199 1.734-.595 2.448a4.155 4.155 0 0 1-1.649 1.632c-.692.385-1.479.578-2.363.578-1.224 0-2.193-.408-2.907-1.224v4.403h-2.125V93.922h2.023v1.19c.351-.43.782-.754 1.292-.969a4.452 4.452 0 0 1 1.717-.323zm-.238 7.48c.782 0 1.422-.261 1.921-.782.51-.521.765-1.207.765-2.057 0-.85-.255-1.536-.765-2.057-.499-.521-1.139-.782-1.921-.782-.51 0-.969.119-1.377.357a2.46 2.46 0 0 0-.969.986c-.238.43-.357.93-.357 1.496 0 .567.119 1.065.357 1.496.238.431.561.765.969 1.003.408.227.867.34 1.377.34zm6.96-7.378h2.125v5.984l5.015-5.984h1.938V103h-2.125v-5.984L171.441 103h-1.955v-9.078zm16.067 9.197c-.941 0-1.785-.198-2.533-.595a4.385 4.385 0 0 1-1.751-1.649c-.419-.714-.629-1.519-.629-2.414 0-.895.21-1.694.629-2.397a4.412 4.412 0 0 1 1.734-1.649c.748-.397 1.598-.595 2.55-.595.895 0 1.677.181 2.346.544a3.52 3.52 0 0 1 1.53 1.564l-1.632.952a2.509 2.509 0 0 0-.986-.935 2.568 2.568 0 0 0-1.275-.323c-.793 0-1.451.26-1.972.782-.521.51-.782 1.196-.782 2.057s.255 1.553.765 2.074c.521.51 1.184.765 1.989.765.465 0 .89-.102 1.275-.306a2.64 2.64 0 0 0 .986-.952l1.632.952a3.715 3.715 0 0 1-1.547 1.581c-.669.363-1.445.544-2.329.544zm9.521-3.757h-1.649V103H191.3v-9.078h2.125v3.672h1.7l2.686-3.672h2.278l-3.298 4.369L200.31 103h-2.499l-2.737-3.638zm-167.942 9.56V118h-2.108v-7.276h-4.471V118h-2.125v-9.078h8.704zm11.367 4.59c0 .147-.011.357-.034.629h-7.123c.125.669.448 1.201.97 1.598.532.385 1.19.578 1.971.578.998 0 1.82-.329 2.465-.986l1.14 1.309a3.838 3.838 0 0 1-1.548 1.105c-.623.249-1.326.374-2.108.374-.997 0-1.875-.198-2.635-.595a4.36 4.36 0 0 1-1.768-1.649c-.408-.714-.612-1.519-.612-2.414 0-.884.199-1.677.595-2.38a4.326 4.326 0 0 1 1.683-1.666c.714-.397 1.519-.595 2.414-.595.884 0 1.672.198 2.363.595a4.011 4.011 0 0 1 1.632 1.649c.397.703.595 1.519.595 2.448zm-4.59-2.992c-.68 0-1.258.204-1.734.612-.464.397-.748.929-.85 1.598h5.151c-.09-.657-.368-1.19-.833-1.598-.464-.408-1.042-.612-1.734-.612zm11.947-1.7c.883 0 1.671.193 2.362.578a4.149 4.149 0 0 1 1.65 1.632c.396.703.594 1.513.594 2.431 0 .918-.198 1.734-.595 2.448a4.149 4.149 0 0 1-1.648 1.632c-.692.385-1.48.578-2.364.578-1.223 0-2.192-.408-2.906-1.224v4.403h-2.125v-12.376h2.023v1.19a3.294 3.294 0 0 1 1.291-.969 4.461 4.461 0 0 1 1.718-.323zm-.239 7.48c.783 0 1.423-.261 1.922-.782.51-.521.764-1.207.764-2.057 0-.85-.255-1.536-.764-2.057-.5-.521-1.14-.782-1.922-.782-.51 0-.968.119-1.377.357a2.46 2.46 0 0 0-.968.986c-.239.431-.358.929-.358 1.496s.12 1.065.358 1.496c.238.431.56.765.968 1.003.408.227.867.34 1.377.34zm15.46-2.788c0 .147-.01.357-.034.629H53.92c.125.669.448 1.201.97 1.598.532.385 1.19.578 1.971.578.998 0 1.82-.329 2.465-.986l1.14 1.309a3.838 3.838 0 0 1-1.548 1.105c-.623.249-1.326.374-2.108.374-.997 0-1.875-.198-2.635-.595a4.36 4.36 0 0 1-1.768-1.649c-.408-.714-.612-1.519-.612-2.414 0-.884.199-1.677.595-2.38a4.326 4.326 0 0 1 1.683-1.666c.714-.397 1.52-.595 2.414-.595.884 0 1.672.198 2.363.595a4.011 4.011 0 0 1 1.632 1.649c.397.703.595 1.519.595 2.448zm-4.59-2.992c-.68 0-1.258.204-1.734.612-.464.397-.748.929-.85 1.598h5.151c-.09-.657-.368-1.19-.833-1.598-.464-.408-1.042-.612-1.734-.612zm13.494 2.754c1.122.34 1.683 1.065 1.683 2.176 0 .816-.306 1.445-.918 1.887-.612.442-1.519.663-2.72.663h-4.624v-9.078h4.437c1.11 0 1.977.204 2.6.612.624.408.936.986.936 1.734 0 .465-.125.867-.374 1.207-.238.34-.578.606-1.02.799zm-4.556-.561h2.227c1.099 0 1.649-.38 1.649-1.139 0-.737-.55-1.105-1.65-1.105h-2.226v2.244zm2.43 3.74c1.168 0 1.752-.38 1.752-1.139 0-.397-.136-.691-.408-.884-.272-.204-.697-.306-1.275-.306h-2.5v2.329h2.432zm14.572-2.941c0 .147-.011.357-.034.629H75.27c.125.669.448 1.201.969 1.598.533.385 1.19.578 1.972.578.997 0 1.819-.329 2.465-.986l1.139 1.309a3.837 3.837 0 0 1-1.547 1.105c-.623.249-1.326.374-2.108.374-.997 0-1.876-.198-2.635-.595a4.361 4.361 0 0 1-1.768-1.649c-.408-.714-.612-1.519-.612-2.414 0-.884.198-1.677.595-2.38a4.326 4.326 0 0 1 1.683-1.666c.714-.397 1.519-.595 2.414-.595.884 0 1.672.198 2.363.595a4.011 4.011 0 0 1 1.632 1.649c.397.703.595 1.519.595 2.448zm-4.59-2.992c-.68 0-1.258.204-1.734.612-.465.397-.748.929-.85 1.598h5.151c-.09-.657-.368-1.19-.833-1.598-.465-.408-1.043-.612-1.734-.612zm11.946-1.7c.884 0 1.672.193 2.363.578a4.148 4.148 0 0 1 1.65 1.632c.396.703.594 1.513.594 2.431 0 .918-.198 1.734-.595 2.448a4.148 4.148 0 0 1-1.649 1.632c-.691.385-1.479.578-2.363.578-1.224 0-2.193-.408-2.907-1.224v4.403h-2.125v-12.376h2.023v1.19a3.295 3.295 0 0 1 1.292-.969 4.461 4.461 0 0 1 1.717-.323zm-.238 7.48c.782 0 1.423-.261 1.921-.782.51-.521.765-1.207.765-2.057 0-.85-.255-1.536-.765-2.057-.498-.521-1.139-.782-1.92-.782-.51 0-.97.119-1.378.357a2.46 2.46 0 0 0-.969.986c-.238.431-.357.929-.357 1.496s.12 1.065.357 1.496c.238.431.561.765.97 1.003.407.227.866.34 1.376.34zm6.96-7.378h2.125v3.689h4.573v-3.689h2.125V118h-2.125v-3.587H98.63V118h-2.125v-9.078zm20.239 0l-4.25 9.809c-.397.986-.878 1.677-1.445 2.074-.567.408-1.252.612-2.057.612-.453 0-.901-.074-1.343-.221-.442-.147-.805-.351-1.088-.612l.85-1.564c.204.193.442.346.714.459.283.113.567.17.85.17.374 0 .68-.096.918-.289.249-.193.476-.516.68-.969l.153-.357-3.961-9.112h2.21l2.856 6.715 2.873-6.715h2.04zm8.733 1.802h-3.179V118h-2.125v-7.276h-3.196v-1.802h8.5v1.802zm6.098 1.19c1.156 0 2.04.261 2.652.782.623.521.935 1.258.935 2.21 0 .997-.34 1.768-1.02 2.312-.68.544-1.638.81-2.873.799l-4.25-.017v-9.078h2.125v2.975l2.431.017zm-.493 4.539c.623.011 1.099-.119 1.428-.391.328-.272.493-.669.493-1.19 0-.51-.159-.884-.476-1.122-.318-.238-.799-.363-1.445-.374l-1.938-.017v3.077l1.938.017zm10.079 1.666c-.941 0-1.785-.198-2.533-.595a4.385 4.385 0 0 1-1.751-1.649c-.42-.714-.629-1.519-.629-2.414 0-.895.209-1.694.629-2.397a4.412 4.412 0 0 1 1.734-1.649c.748-.397 1.598-.595 2.55-.595.895 0 1.677.181 2.346.544a3.52 3.52 0 0 1 1.53 1.564l-1.632.952a2.518 2.518 0 0 0-.986-.935 2.576 2.576 0 0 0-1.275-.323c-.794 0-1.451.261-1.972.782-.522.51-.782 1.196-.782 2.057s.255 1.553.765 2.074c.521.51 1.184.765 1.989.765.464 0 .889-.102 1.275-.306.396-.215.725-.533.986-.952l1.632.952a3.72 3.72 0 0 1-1.547 1.581c-.669.363-1.445.544-2.329.544zm13.164-9.197V118h-1.904v-2.737h-2.397L148.171 118h-2.278l2.142-3.026c-.657-.227-1.161-.572-1.513-1.037-.34-.476-.51-1.06-.51-1.751 0-1.043.369-1.847 1.105-2.414.737-.567 1.751-.85 3.043-.85h4.165zm-4.097 1.785c-1.371 0-2.057.516-2.057 1.547 0 1.02.663 1.53 1.989 1.53h2.261v-3.077h-2.193zm18.233 2.567c1.122.34 1.683 1.065 1.683 2.176 0 .816-.306 1.445-.918 1.887-.612.442-1.519.663-2.72.663h-4.624v-9.078h4.437c1.111 0 1.978.204 2.601.612.623.408.935.986.935 1.734 0 .465-.125.867-.374 1.207-.238.34-.578.606-1.02.799zm-4.556-.561h2.227c1.099 0 1.649-.38 1.649-1.139 0-.737-.55-1.105-1.649-1.105h-2.227v2.244zm2.431 3.74c1.167 0 1.751-.38 1.751-1.139 0-.397-.136-.691-.408-.884-.272-.204-.697-.306-1.275-.306h-2.499v2.329h2.431zm14.153-7.633c1.337 0 2.357.323 3.06.969.714.635 1.071 1.598 1.071 2.89V118h-2.006v-1.105c-.261.397-.635.703-1.122.918-.476.204-1.054.306-1.734.306-.68 0-1.275-.113-1.785-.34-.51-.238-.907-.561-1.19-.969a2.537 2.537 0 0 1-.408-1.411c0-.816.3-1.468.901-1.955.612-.499 1.569-.748 2.873-.748h2.346v-.136c0-.635-.193-1.122-.578-1.462-.374-.34-.935-.51-1.683-.51a4.95 4.95 0 0 0-1.513.238c-.488.159-.901.38-1.241.663l-.833-1.547c.476-.363 1.048-.64 1.717-.833a7.624 7.624 0 0 1 2.125-.289zm-.289 7.752c.532 0 1.003-.119 1.411-.357a2.02 2.02 0 0 0 .884-1.054v-1.054h-2.193c-1.224 0-1.836.402-1.836 1.207 0 .385.153.691.459.918.306.227.731.34 1.275.34zm13.628-3.298c1.122.34 1.683 1.065 1.683 2.176 0 .816-.306 1.445-.918 1.887-.612.442-1.518.663-2.72.663h-4.624v-9.078h4.437c1.111 0 1.978.204 2.601.612.624.408.935.986.935 1.734 0 .465-.124.867-.374 1.207-.238.34-.578.606-1.02.799zm-4.556-.561h2.227c1.1 0 1.649-.38 1.649-1.139 0-.737-.549-1.105-1.649-1.105h-2.227v2.244zm2.431 3.74c1.168 0 1.751-.38 1.751-1.139 0-.397-.136-.691-.408-.884-.272-.204-.697-.306-1.275-.306h-2.499v2.329h2.431zm9.455-7.633c1.337 0 2.357.323 3.06.969.714.635 1.071 1.598 1.071 2.89V118h-2.006v-1.105c-.261.397-.635.703-1.122.918-.476.204-1.054.306-1.734.306-.68 0-1.275-.113-1.785-.34-.51-.238-.907-.561-1.19-.969a2.537 2.537 0 0 1-.408-1.411c0-.816.3-1.468.901-1.955.612-.499 1.569-.748 2.873-.748h2.346v-.136c0-.635-.193-1.122-.578-1.462-.374-.34-.935-.51-1.683-.51a4.95 4.95 0 0 0-1.513.238c-.488.159-.901.38-1.241.663l-.833-1.547c.476-.363 1.048-.64 1.717-.833a7.624 7.624 0 0 1 2.125-.289zm-.289 7.752c.532 0 1.003-.119 1.411-.357a2.02 2.02 0 0 0 .884-1.054v-1.054h-2.193c-1.224 0-1.836.402-1.836 1.207 0 .385.153.691.459.918.306.227.731.34 1.275.34zm12.081-7.752c.884 0 1.672.193 2.363.578a4.142 4.142 0 0 1 1.649 1.632c.397.703.595 1.513.595 2.431 0 .918-.198 1.734-.595 2.448a4.142 4.142 0 0 1-1.649 1.632c-.691.385-1.479.578-2.363.578-1.224 0-2.193-.408-2.907-1.224v4.403h-2.125v-12.376h2.023v1.19a3.3 3.3 0 0 1 1.292-.969 4.465 4.465 0 0 1 1.717-.323zm-.238 7.48c.782 0 1.423-.261 1.921-.782.51-.521.765-1.207.765-2.057 0-.85-.255-1.536-.765-2.057-.498-.521-1.139-.782-1.921-.782-.51 0-.969.119-1.377.357a2.46 2.46 0 0 0-.969.986c-.238.431-.357.929-.357 1.496s.119 1.065.357 1.496c.238.431.561.765.969 1.003.408.227.867.34 1.377.34zm6.96-7.378h2.125v5.984l5.015-5.984h1.938V118h-2.125v-5.984L221.627 118h-1.955v-9.078zm11.937 0h2.125v5.984l5.015-5.984h1.938V118h-2.125v-5.984L233.564 118h-1.955v-9.078z" fill="#000"/><path fill="#E51937" d="M9 118H5V10h4z"/><circle cx="7" cy="7" r="5.5" transform="rotate(-180 7 7)" fill="#fff" stroke="#E51937" stroke-width="3"/></svg>