<svg width="190" height="91" viewBox="0 0 190 91" fill="none" xmlns="http://www.w3.org/2000/svg">
<path d="M35.975 61.2412L35.945 50.7412H34.355L30.245 57.6862L26.09 50.7412H24.485V61.2412H26.33V54.3712L29.78 60.0412H30.65L34.1 54.2812L34.115 61.2412H35.975ZM38.7034 61.2412H40.4284L44.8384 55.9612V61.2412H46.7134V53.2312H45.0034L40.5784 58.5112V53.2312H38.7034V61.2412ZM49.2356 61.2412H51.1106V58.0762H55.1456V61.2412H57.0206V53.2312H55.1456V56.4862H51.1106V53.2312H49.2356V61.2412ZM59.5334 61.2412H61.2584L65.6684 55.9612V61.2412H67.5434V53.2312H65.8334L61.4084 58.5112V53.2312H59.5334V61.2412ZM79.6357 61.2412L79.6207 53.2312H77.8657L74.8807 58.2412L72.0307 53.2312H70.0657V61.2412H71.7757V55.9162L74.4307 60.4012H75.2407L77.9407 55.9312V61.2412H79.6357ZM85.1356 53.1412C83.8456 53.1412 82.6006 53.4712 81.7456 54.1312L82.4806 55.4962C83.0806 55.0012 84.0106 54.7012 84.9106 54.7012C86.2456 54.7012 86.9056 55.3462 86.9056 56.4412V56.5612H84.8356C82.4056 56.5612 81.5056 57.6112 81.5056 58.9462C81.5056 60.3412 82.6606 61.3462 84.4906 61.3462C85.6906 61.3462 86.5606 60.9562 87.0106 60.2662V61.2412H88.7806V56.5462C88.7806 54.2362 87.4456 53.1412 85.1356 53.1412ZM84.8806 59.9812C83.9206 59.9812 83.3506 59.5462 83.3506 58.8712C83.3506 58.2862 83.6956 57.8062 84.9706 57.8062H86.9056V58.7362C86.5906 59.5612 85.7956 59.9812 84.8806 59.9812ZM91.8808 53.2312L91.7458 56.3212C91.6558 57.9862 91.6108 59.6962 90.3808 59.6962C90.2758 59.6962 90.1558 59.6812 90.0208 59.6512L89.9308 61.2262C90.3208 61.3312 90.6658 61.3912 90.9658 61.3912C92.8558 61.3912 93.2758 59.2612 93.4108 56.4112L93.4858 54.8212H96.4858V61.2412H98.3608V53.2312H91.8808ZM104.906 55.8712L102.761 55.8562V53.2312H100.886V61.2412L104.636 61.2562C106.826 61.2712 108.071 60.2662 108.071 58.5112C108.071 56.8462 106.961 55.8712 104.906 55.8712ZM104.471 59.8762L102.761 59.8612V57.1462L104.471 57.1612C105.581 57.1762 106.166 57.5662 106.166 58.4812C106.166 59.4112 105.566 59.8912 104.471 59.8762ZM109.719 61.2412H111.594V58.0762H115.629V61.2412H117.504V53.2312H115.629V56.4862H111.594V53.2312H109.719V61.2412ZM123.917 55.8712L121.892 55.8562V53.2312H120.017V61.2412L123.647 61.2562C125.837 61.2712 127.067 60.2662 127.067 58.5112C127.067 56.8462 125.972 55.8712 123.917 55.8712ZM128.102 61.2412H129.977V53.2312H128.102V61.2412ZM123.482 59.8762L121.892 59.8612V57.1462L123.482 57.1612C124.592 57.1762 125.177 57.5662 125.177 58.4812C125.177 59.4112 124.577 59.8912 123.482 59.8762ZM136.382 52.2862C137.987 52.2862 138.872 51.5362 138.902 50.0812H137.627C137.612 50.8012 137.132 51.2512 136.367 51.2512C135.587 51.2512 135.137 50.8012 135.122 50.0812H133.877C133.892 51.5362 134.777 52.2862 136.382 52.2862ZM132.497 61.2412H134.222L138.632 55.9612V61.2412H140.507V53.2312H138.797L134.372 58.5112V53.2312H132.497V61.2412ZM151.615 53.1412C150.52 53.1412 149.59 53.5162 148.96 54.2812V53.2312H147.175V64.1512H149.05V60.2662C149.695 61.0012 150.595 61.3462 151.615 61.3462C153.955 61.3462 155.68 59.7262 155.68 57.2362C155.68 54.7612 153.955 53.1412 151.615 53.1412ZM151.405 59.7412C150.055 59.7412 149.02 58.7662 149.02 57.2362C149.02 55.7062 150.055 54.7312 151.405 54.7312C152.755 54.7312 153.775 55.7062 153.775 57.2362C153.775 58.7662 152.755 59.7412 151.405 59.7412ZM157.546 61.2412H159.271L163.681 55.9612V61.2412H165.556V53.2312H163.846L159.421 58.5112V53.2312H157.546V61.2412ZM171.723 61.3462C173.283 61.3462 174.528 60.6712 175.143 59.4712L173.703 58.6312C173.223 59.3962 172.503 59.7412 171.708 59.7412C170.328 59.7412 169.278 58.7962 169.278 57.2362C169.278 55.6912 170.328 54.7312 171.708 54.7312C172.503 54.7312 173.223 55.0762 173.703 55.8412L175.143 55.0012C174.528 53.7862 173.283 53.1412 171.723 53.1412C169.188 53.1412 167.388 54.8362 167.388 57.2362C167.388 59.6362 169.188 61.3462 171.723 61.3462ZM182.539 61.2412H184.744L181.639 57.0862L184.549 53.2312H182.539L180.169 56.4712H178.669V53.2312H176.794V61.2412H178.669V58.0312H180.124L182.539 61.2412ZM24.26 66.2312V74.2412H26.135V67.8212H30.08V74.2412H31.94V66.2312H24.26ZM41.97 70.2812C41.97 67.7762 40.26 66.1412 37.92 66.1412C35.535 66.1412 33.78 67.8512 33.78 70.2362C33.78 72.6212 35.52 74.3462 38.205 74.3462C39.585 74.3462 40.71 73.8962 41.43 73.0412L40.425 71.8862C39.855 72.4712 39.15 72.7562 38.25 72.7562C36.855 72.7562 35.88 72.0062 35.655 70.8362H41.94C41.955 70.6562 41.97 70.4312 41.97 70.2812ZM37.92 67.6412C39.15 67.6412 40.035 68.4362 40.185 69.5912H35.64C35.82 68.4212 36.705 67.6412 37.92 67.6412ZM48.4607 66.1412C47.3657 66.1412 46.4357 66.5162 45.8057 67.2812V66.2312H44.0207V77.1512H45.8957V73.2662C46.5407 74.0012 47.4407 74.3462 48.4607 74.3462C50.8007 74.3462 52.5257 72.7262 52.5257 70.2362C52.5257 67.7612 50.8007 66.1412 48.4607 66.1412ZM48.2507 72.7412C46.9007 72.7412 45.8657 71.7662 45.8657 70.2362C45.8657 68.7062 46.9007 67.7312 48.2507 67.7312C49.6007 67.7312 50.6207 68.7062 50.6207 70.2362C50.6207 71.7662 49.6007 72.7412 48.2507 72.7412ZM61.8918 70.2812C61.8918 67.7762 60.1818 66.1412 57.8418 66.1412C55.4568 66.1412 53.7018 67.8512 53.7018 70.2362C53.7018 72.6212 55.4418 74.3462 58.1268 74.3462C59.5068 74.3462 60.6318 73.8962 61.3518 73.0412L60.3468 71.8862C59.7768 72.4712 59.0718 72.7562 58.1718 72.7562C56.7768 72.7562 55.8018 72.0062 55.5768 70.8362H61.8618C61.8768 70.6562 61.8918 70.4312 61.8918 70.2812ZM57.8418 67.6412C59.0718 67.6412 59.9568 68.4362 60.1068 69.5912H55.5618C55.7418 68.4212 56.6268 67.6412 57.8418 67.6412ZM69.7476 70.0712C70.5126 69.7412 70.9776 69.1262 70.9776 68.3012C70.9776 66.9812 69.8076 66.2312 67.8576 66.2312H63.9426V74.2412H68.0226C70.1826 74.2412 71.2326 73.4012 71.2326 71.9912C71.2326 71.0162 70.7376 70.3712 69.7476 70.0712ZM65.7276 67.5962H67.6926C68.6526 67.5962 69.1476 67.9112 69.1476 68.5712C69.1476 69.2312 68.6526 69.5762 67.6926 69.5762H65.7276V67.5962ZM67.8726 72.8762H65.7276V70.8212H67.9326C68.9526 70.8212 69.4176 71.1662 69.4176 71.8712C69.4176 72.5612 68.8776 72.8762 67.8726 72.8762ZM80.7297 70.2812C80.7297 67.7762 79.0197 66.1412 76.6797 66.1412C74.2947 66.1412 72.5397 67.8512 72.5397 70.2362C72.5397 72.6212 74.2797 74.3462 76.9647 74.3462C78.3447 74.3462 79.4697 73.8962 80.1897 73.0412L79.1847 71.8862C78.6147 72.4712 77.9097 72.7562 77.0097 72.7562C75.6147 72.7562 74.6397 72.0062 74.4147 70.8362H80.6997C80.7147 70.6562 80.7297 70.4312 80.7297 70.2812ZM76.6797 67.6412C77.9097 67.6412 78.7947 68.4362 78.9447 69.5912H74.3997C74.5797 68.4212 75.4647 67.6412 76.6797 67.6412ZM87.2205 66.1412C86.1255 66.1412 85.1955 66.5162 84.5655 67.2812V66.2312H82.7805V77.1512H84.6555V73.2662C85.3005 74.0012 86.2005 74.3462 87.2205 74.3462C89.5605 74.3462 91.2855 72.7262 91.2855 70.2362C91.2855 67.7612 89.5605 66.1412 87.2205 66.1412ZM87.0105 72.7412C85.6605 72.7412 84.6255 71.7662 84.6255 70.2362C84.6255 68.7062 85.6605 67.7312 87.0105 67.7312C88.3605 67.7312 89.3805 68.7062 89.3805 70.2362C89.3805 71.7662 88.3605 72.7412 87.0105 72.7412ZM93.1516 74.2412H95.0266V71.0762H99.0616V74.2412H100.937V66.2312H99.0616V69.4862H95.0266V66.2312H93.1516V74.2412ZM109.209 66.2312L106.674 72.1562L104.154 66.2312H102.204L105.699 74.2712L105.564 74.5862C105.204 75.3812 104.814 75.6962 104.154 75.6962C103.644 75.6962 103.134 75.4862 102.774 75.1412L102.024 76.5212C102.534 76.9862 103.374 77.2562 104.169 77.2562C105.504 77.2562 106.524 76.7012 107.259 74.8862L111.009 66.2312H109.209ZM118.715 66.2312H111.215V67.8212H114.035V74.2412H115.91V67.8212H118.715V66.2312ZM124.095 68.8712L121.95 68.8562V66.2312H120.075V74.2412L123.825 74.2562C126.015 74.2712 127.26 73.2662 127.26 71.5112C127.26 69.8462 126.15 68.8712 124.095 68.8712ZM123.66 72.8762L121.95 72.8612V70.1462L123.66 70.1612C124.77 70.1762 125.355 70.5662 125.355 71.4812C125.355 72.4112 124.755 72.8912 123.66 72.8762ZM132.553 74.3462C134.113 74.3462 135.358 73.6712 135.973 72.4712L134.533 71.6312C134.053 72.3962 133.333 72.7412 132.538 72.7412C131.158 72.7412 130.108 71.7962 130.108 70.2362C130.108 68.6912 131.158 67.7312 132.538 67.7312C133.333 67.7312 134.053 68.0762 134.533 68.8412L135.973 68.0012C135.358 66.7862 134.113 66.1412 132.553 66.1412C130.018 66.1412 128.218 67.8362 128.218 70.2362C128.218 72.6362 130.018 74.3462 132.553 74.3462ZM140.495 66.2312C138.26 66.2312 136.835 67.2362 136.835 69.1112C136.835 70.3412 137.48 71.1812 138.62 71.5712L136.73 74.2412H138.74L140.375 71.8262H142.49V74.2412H144.17V66.2312H140.495ZM140.555 67.8062H142.49V70.5212H140.495C139.34 70.5212 138.74 70.1012 138.74 69.1712C138.74 68.2112 139.4 67.8062 140.555 67.8062ZM156.642 70.0712C157.407 69.7412 157.872 69.1262 157.872 68.3012C157.872 66.9812 156.702 66.2312 154.752 66.2312H150.837V74.2412H154.917C157.077 74.2412 158.127 73.4012 158.127 71.9912C158.127 71.0162 157.632 70.3712 156.642 70.0712ZM152.622 67.5962H154.587C155.547 67.5962 156.042 67.9112 156.042 68.5712C156.042 69.2312 155.547 69.5762 154.587 69.5762H152.622V67.5962ZM154.767 72.8762H152.622V70.8212H154.827C155.847 70.8212 156.312 71.1662 156.312 71.8712C156.312 72.5612 155.772 72.8762 154.767 72.8762ZM27.245 79.1412C25.955 79.1412 24.71 79.4712 23.855 80.1312L24.59 81.4962C25.19 81.0012 26.12 80.7012 27.02 80.7012C28.355 80.7012 29.015 81.3462 29.015 82.4412V82.5612H26.945C24.515 82.5612 23.615 83.6112 23.615 84.9462C23.615 86.3412 24.77 87.3462 26.6 87.3462C27.8 87.3462 28.67 86.9562 29.12 86.2662V87.2412H30.89V82.5462C30.89 80.2362 29.555 79.1412 27.245 79.1412ZM26.99 85.9812C26.03 85.9812 25.46 85.5462 25.46 84.8712C25.46 84.2862 25.805 83.8062 27.08 83.8062H29.015V84.7362C28.7 85.5612 27.905 85.9812 26.99 85.9812ZM39.0152 83.0712C39.7802 82.7412 40.2452 82.1262 40.2452 81.3012C40.2452 79.9812 39.0752 79.2312 37.1252 79.2312H33.2102V87.2412H37.2902C39.4502 87.2412 40.5002 86.4012 40.5002 84.9912C40.5002 84.0162 40.0052 83.3712 39.0152 83.0712ZM34.9952 80.5962H36.9602C37.9202 80.5962 38.4152 80.9112 38.4152 81.5712C38.4152 82.2312 37.9202 82.5762 36.9602 82.5762H34.9952V80.5962ZM37.1402 85.8762H34.9952V83.8212H37.2002C38.2202 83.8212 38.6852 84.1662 38.6852 84.8712C38.6852 85.5612 38.1452 85.8762 37.1402 85.8762ZM45.4823 79.1412C44.1923 79.1412 42.9473 79.4712 42.0923 80.1312L42.8273 81.4962C43.4273 81.0012 44.3573 80.7012 45.2573 80.7012C46.5923 80.7012 47.2523 81.3462 47.2523 82.4412V82.5612H45.1823C42.7523 82.5612 41.8523 83.6112 41.8523 84.9462C41.8523 86.3412 43.0073 87.3462 44.8373 87.3462C46.0373 87.3462 46.9073 86.9562 47.3573 86.2662V87.2412H49.1273V82.5462C49.1273 80.2362 47.7923 79.1412 45.4823 79.1412ZM45.2273 85.9812C44.2673 85.9812 43.6973 85.5462 43.6973 84.8712C43.6973 84.2862 44.0423 83.8062 45.3173 83.8062H47.2523V84.7362C46.9373 85.5612 46.1423 85.9812 45.2273 85.9812ZM55.8875 79.1412C54.7925 79.1412 53.8625 79.5162 53.2325 80.2812V79.2312H51.4475V90.1512H53.3225V86.2662C53.9675 87.0012 54.8675 87.3462 55.8875 87.3462C58.2275 87.3462 59.9525 85.7262 59.9525 83.2362C59.9525 80.7612 58.2275 79.1412 55.8875 79.1412ZM55.6775 85.7412C54.3275 85.7412 53.2925 84.7662 53.2925 83.2362C53.2925 81.7062 54.3275 80.7312 55.6775 80.7312C57.0275 80.7312 58.0475 81.7062 58.0475 83.2362C58.0475 84.7662 57.0275 85.7412 55.6775 85.7412ZM61.8186 87.2412H63.5436L67.9536 81.9612V87.2412H69.8286V79.2312H68.1186L63.6936 84.5112V79.2312H61.8186V87.2412ZM72.3508 87.2412H74.0758L78.4858 81.9612V87.2412H80.3608V79.2312H78.6508L74.2258 84.5112V79.2312H72.3508V87.2412Z" fill="black"/>
<rect x="7.35254" y="84.8572" width="2.86044" height="77.2316" transform="rotate(-180 7.35254 84.8572)" fill="#E51937"/>
<circle cx="5.92198" cy="5.48008" r="3.50575" transform="rotate(-180 5.92198 5.48008)" fill="white" stroke="#E51937" stroke-width="3"/>
</svg>
