<svg width="87" height="51" viewBox="0 0 87 51" fill="none" xmlns="http://www.w3.org/2000/svg">
<path d="M11.1929 37.0497L11.1859 33.8017L9.57586 36.4897H9.16986L7.55986 33.8437V37.0497H6.69886V32.1497H7.44786L9.38686 35.3907L11.3049 32.1497H12.0469L12.0609 37.0497H11.1929ZM13.3341 33.3117H14.2091V35.7757L16.2741 33.3117H17.0721V37.0497H16.1971V34.5857L14.1391 37.0497H13.3341V33.3117ZM18.2491 33.3117H19.1241V34.8307H21.0071V33.3117H21.8821V37.0497H21.0071V35.5727H19.1241V37.0497H18.2491V33.3117ZM23.0548 33.3117H23.9298V35.7757L25.9948 33.3117H26.7928V37.0497H25.9178V34.5857L23.8598 37.0497H23.0548V33.3117ZM31.6448 37.0497V34.5717L30.3848 36.6577H30.0068L28.7678 34.5647V37.0497H27.9698V33.3117H28.8868L30.2168 35.6497L31.6098 33.3117H32.4288L32.4358 37.0497H31.6448ZM35.0025 33.2697C35.5532 33.2697 35.9732 33.4027 36.2625 33.6687C36.5565 33.93 36.7035 34.3267 36.7035 34.8587V37.0497H35.8775V36.5947C35.7702 36.758 35.6162 36.884 35.4155 36.9727C35.2195 37.0567 34.9815 37.0987 34.7015 37.0987C34.4215 37.0987 34.1765 37.052 33.9665 36.9587C33.7565 36.8607 33.5932 36.7277 33.4765 36.5597C33.3645 36.387 33.3085 36.1933 33.3085 35.9787C33.3085 35.6427 33.4322 35.3743 33.6795 35.1737C33.9315 34.9683 34.3258 34.8657 34.8625 34.8657H35.8285V34.8097C35.8285 34.5483 35.7492 34.3477 35.5905 34.2077C35.4365 34.0677 35.2055 33.9977 34.8975 33.9977C34.6875 33.9977 34.4798 34.0303 34.2745 34.0957C34.0738 34.161 33.9035 34.252 33.7635 34.3687L33.4205 33.7317C33.6165 33.5823 33.8522 33.468 34.1275 33.3887C34.4028 33.3093 34.6945 33.2697 35.0025 33.2697ZM34.8835 36.4617C35.1028 36.4617 35.2965 36.4127 35.4645 36.3147C35.6372 36.212 35.7585 36.0673 35.8285 35.8807V35.4467H34.9255C34.4215 35.4467 34.1695 35.6123 34.1695 35.9437C34.1695 36.1023 34.2325 36.2283 34.3585 36.3217C34.4845 36.415 34.6595 36.4617 34.8835 36.4617ZM41.1742 33.3117V37.0497H40.2992V34.0537H38.8992L38.8642 34.7957C38.8409 35.2903 38.7942 35.7057 38.7242 36.0417C38.6589 36.373 38.5446 36.6367 38.3812 36.8327C38.2226 37.024 38.0032 37.1197 37.7232 37.1197C37.5926 37.1197 37.4316 37.094 37.2402 37.0427L37.2822 36.3077C37.3476 36.3217 37.4036 36.3287 37.4502 36.3287C37.6276 36.3287 37.7606 36.2587 37.8492 36.1187C37.9379 35.974 37.9939 35.8037 38.0172 35.6077C38.0452 35.407 38.0686 35.1223 38.0872 34.7537L38.1502 33.3117H41.1742ZM44.2286 34.5437C44.7046 34.5437 45.0686 34.651 45.3206 34.8657C45.5773 35.0803 45.7056 35.3837 45.7056 35.7757C45.7056 36.1863 45.5656 36.5037 45.2856 36.7277C45.0056 36.9517 44.6113 37.0613 44.1026 37.0567L42.3526 37.0497V33.3117H43.2276V34.5367L44.2286 34.5437ZM44.0256 36.4127C44.2823 36.4173 44.4783 36.3637 44.6136 36.2517C44.749 36.1397 44.8166 35.9763 44.8166 35.7617C44.8166 35.5517 44.7513 35.3977 44.6206 35.2997C44.49 35.2017 44.2916 35.1503 44.0256 35.1457L43.2276 35.1387V36.4057L44.0256 36.4127ZM46.4747 33.3117H47.3497V34.8307H49.2327V33.3117H50.1077V37.0497H49.2327V35.5727H47.3497V37.0497H46.4747V33.3117ZM53.1004 34.5437C53.5764 34.5437 53.9404 34.651 54.1924 34.8657C54.4444 35.0803 54.5704 35.3837 54.5704 35.7757C54.5704 36.1863 54.4304 36.5037 54.1504 36.7277C53.875 36.9517 53.483 37.0613 52.9744 37.0567L51.2804 37.0497V33.3117H52.1554V34.5367L53.1004 34.5437ZM55.0534 33.3117H55.9284V37.0497H55.0534V33.3117ZM52.8974 36.4127C53.154 36.4173 53.35 36.3637 53.4854 36.2517C53.6207 36.1397 53.6884 35.9763 53.6884 35.7617C53.6884 35.5517 53.623 35.3977 53.4924 35.2997C53.3617 35.2017 53.1634 35.1503 52.8974 35.1457L52.1554 35.1387V36.4057L52.8974 36.4127ZM57.1046 33.3117H57.9796V35.7757L60.0446 33.3117H60.8426V37.0497H59.9676V34.5857L57.9096 37.0497H57.1046V33.3117ZM58.9176 32.8707C58.5396 32.8707 58.2503 32.7843 58.0496 32.6117C57.8536 32.4343 57.7533 32.1777 57.7486 31.8417H58.3296C58.3343 32.0097 58.3856 32.1427 58.4836 32.2407C58.5863 32.3387 58.7286 32.3877 58.9106 32.3877C59.0879 32.3877 59.2279 32.3387 59.3306 32.2407C59.4379 32.1427 59.4939 32.0097 59.4986 31.8417H60.0936C60.0889 32.1777 59.9863 32.4343 59.7856 32.6117C59.5849 32.7843 59.2956 32.8707 58.9176 32.8707ZM66.0262 33.2697C66.3902 33.2697 66.7145 33.349 66.9992 33.5077C67.2885 33.6663 67.5149 33.8903 67.6782 34.1797C67.8415 34.469 67.9232 34.8027 67.9232 35.1807C67.9232 35.5587 67.8415 35.8947 67.6782 36.1887C67.5149 36.478 67.2885 36.702 66.9992 36.8607C66.7145 37.0193 66.3902 37.0987 66.0262 37.0987C65.5222 37.0987 65.1232 36.9307 64.8292 36.5947V38.4077H63.9542V33.3117H64.7872V33.8017C64.9319 33.6243 65.1092 33.4913 65.3192 33.4027C65.5339 33.314 65.7695 33.2697 66.0262 33.2697ZM65.9282 36.3497C66.2502 36.3497 66.5139 36.2423 66.7192 36.0277C66.9292 35.813 67.0342 35.5307 67.0342 35.1807C67.0342 34.8307 66.9292 34.5483 66.7192 34.3337C66.5139 34.119 66.2502 34.0117 65.9282 34.0117C65.7182 34.0117 65.5292 34.0607 65.3612 34.1587C65.1932 34.252 65.0602 34.3873 64.9622 34.5647C64.8642 34.742 64.8152 34.9473 64.8152 35.1807C64.8152 35.414 64.8642 35.6193 64.9622 35.7967C65.0602 35.974 65.1932 36.1117 65.3612 36.2097C65.5292 36.303 65.7182 36.3497 65.9282 36.3497ZM68.7941 33.3117H69.6691V35.7757L71.7341 33.3117H72.5321V37.0497H71.6571V34.5857L69.5991 37.0497H68.7941V33.3117ZM75.4101 37.0987C75.0228 37.0987 74.6751 37.017 74.3671 36.8537C74.0591 36.6903 73.8188 36.464 73.6461 36.1747C73.4734 35.8807 73.3871 35.5493 73.3871 35.1807C73.3871 34.812 73.4734 34.483 73.6461 34.1937C73.8188 33.9043 74.0568 33.678 74.3601 33.5147C74.6681 33.3513 75.0181 33.2697 75.4101 33.2697C75.7788 33.2697 76.1008 33.3443 76.3761 33.4937C76.6561 33.643 76.8661 33.8577 77.0061 34.1377L76.3341 34.5297C76.2268 34.357 76.0914 34.2287 75.9281 34.1447C75.7694 34.056 75.5944 34.0117 75.4031 34.0117C75.0764 34.0117 74.8058 34.119 74.5911 34.3337C74.3764 34.5437 74.2691 34.826 74.2691 35.1807C74.2691 35.5353 74.3741 35.82 74.5841 36.0347C74.7988 36.2447 75.0718 36.3497 75.4031 36.3497C75.5944 36.3497 75.7694 36.3077 75.9281 36.2237C76.0914 36.135 76.2268 36.0043 76.3341 35.8317L77.0061 36.2237C76.8614 36.5037 76.6491 36.7207 76.3691 36.8747C76.0938 37.024 75.7741 37.0987 75.4101 37.0987ZM79.3305 35.5517H78.6515V37.0497H77.7765V33.3117H78.6515V34.8237H79.3515L80.4575 33.3117H81.3955L80.0375 35.1107L81.4865 37.0497H80.4575L79.3305 35.5517ZM10.1779 39.3117V43.0497H9.30986V40.0537H7.46886V43.0497H6.59386V39.3117H10.1779ZM14.8585 41.2017C14.8585 41.2623 14.8538 41.3487 14.8445 41.4607H11.9115C11.9628 41.736 12.0958 41.9553 12.3105 42.1187C12.5298 42.2773 12.8005 42.3567 13.1225 42.3567C13.5332 42.3567 13.8715 42.2213 14.1375 41.9507L14.6065 42.4897C14.4385 42.6903 14.2262 42.842 13.9695 42.9447C13.7128 43.0473 13.4235 43.0987 13.1015 43.0987C12.6908 43.0987 12.3292 43.017 12.0165 42.8537C11.7038 42.6903 11.4612 42.464 11.2885 42.1747C11.1205 41.8807 11.0365 41.5493 11.0365 41.1807C11.0365 40.8167 11.1182 40.49 11.2815 40.2007C11.4495 39.9067 11.6805 39.678 11.9745 39.5147C12.2685 39.3513 12.5998 39.2697 12.9685 39.2697C13.3325 39.2697 13.6568 39.3513 13.9415 39.5147C14.2308 39.6733 14.4548 39.8997 14.6135 40.1937C14.7768 40.483 14.8585 40.819 14.8585 41.2017ZM12.9685 39.9697C12.6885 39.9697 12.4505 40.0537 12.2545 40.2217C12.0632 40.385 11.9465 40.6043 11.9045 40.8797H14.0255C13.9882 40.609 13.8738 40.3897 13.6825 40.2217C13.4912 40.0537 13.2532 39.9697 12.9685 39.9697ZM17.8875 39.2697C18.2515 39.2697 18.5759 39.349 18.8605 39.5077C19.1499 39.6663 19.3762 39.8903 19.5395 40.1797C19.7029 40.469 19.7845 40.8027 19.7845 41.1807C19.7845 41.5587 19.7029 41.8947 19.5395 42.1887C19.3762 42.478 19.1499 42.702 18.8605 42.8607C18.5759 43.0193 18.2515 43.0987 17.8875 43.0987C17.3835 43.0987 16.9845 42.9307 16.6905 42.5947V44.4077H15.8155V39.3117H16.6485V39.8017C16.7932 39.6243 16.9705 39.4913 17.1805 39.4027C17.3952 39.314 17.6309 39.2697 17.8875 39.2697ZM17.7895 42.3497C18.1115 42.3497 18.3752 42.2423 18.5805 42.0277C18.7905 41.813 18.8955 41.5307 18.8955 41.1807C18.8955 40.8307 18.7905 40.5483 18.5805 40.3337C18.3752 40.119 18.1115 40.0117 17.7895 40.0117C17.5795 40.0117 17.3905 40.0607 17.2225 40.1587C17.0545 40.252 16.9215 40.3873 16.8235 40.5647C16.7255 40.742 16.6765 40.9473 16.6765 41.1807C16.6765 41.414 16.7255 41.6193 16.8235 41.7967C16.9215 41.974 17.0545 42.1117 17.2225 42.2097C17.3905 42.303 17.5795 42.3497 17.7895 42.3497ZM24.1554 41.2017C24.1554 41.2623 24.1507 41.3487 24.1414 41.4607H21.2084C21.2597 41.736 21.3927 41.9553 21.6074 42.1187C21.8267 42.2773 22.0974 42.3567 22.4194 42.3567C22.83 42.3567 23.1684 42.2213 23.4344 41.9507L23.9034 42.4897C23.7354 42.6903 23.523 42.842 23.2664 42.9447C23.0097 43.0473 22.7204 43.0987 22.3984 43.0987C21.9877 43.0987 21.626 43.017 21.3134 42.8537C21.0007 42.6903 20.758 42.464 20.5854 42.1747C20.4174 41.8807 20.3334 41.5493 20.3334 41.1807C20.3334 40.8167 20.415 40.49 20.5784 40.2007C20.7464 39.9067 20.9774 39.678 21.2714 39.5147C21.5654 39.3513 21.8967 39.2697 22.2654 39.2697C22.6294 39.2697 22.9537 39.3513 23.2384 39.5147C23.5277 39.6733 23.7517 39.8997 23.9104 40.1937C24.0737 40.483 24.1554 40.819 24.1554 41.2017ZM22.2654 39.9697C21.9854 39.9697 21.7474 40.0537 21.5514 40.2217C21.36 40.385 21.2434 40.6043 21.2014 40.8797H23.3224C23.285 40.609 23.1707 40.3897 22.9794 40.2217C22.788 40.0537 22.55 39.9697 22.2654 39.9697ZM27.8214 41.1037C28.2834 41.2437 28.5144 41.5423 28.5144 41.9997C28.5144 42.3357 28.3884 42.5947 28.1364 42.7767C27.8844 42.9587 27.5111 43.0497 27.0164 43.0497H25.1124V39.3117H26.9394C27.3967 39.3117 27.7537 39.3957 28.0104 39.5637C28.2671 39.7317 28.3954 39.9697 28.3954 40.2777C28.3954 40.469 28.3441 40.6347 28.2414 40.7747C28.1434 40.9147 28.0034 41.0243 27.8214 41.1037ZM25.9454 40.8727H26.8624C27.3151 40.8727 27.5414 40.7163 27.5414 40.4037C27.5414 40.1003 27.3151 39.9487 26.8624 39.9487H25.9454V40.8727ZM26.9464 42.4127C27.4271 42.4127 27.6674 42.2563 27.6674 41.9437C27.6674 41.7803 27.6114 41.659 27.4994 41.5797C27.3874 41.4957 27.2124 41.4537 26.9744 41.4537H25.9454V42.4127H26.9464ZM32.9464 41.2017C32.9464 41.2623 32.9417 41.3487 32.9324 41.4607H29.9994C30.0507 41.736 30.1837 41.9553 30.3984 42.1187C30.6177 42.2773 30.8884 42.3567 31.2104 42.3567C31.6211 42.3567 31.9594 42.2213 32.2254 41.9507L32.6944 42.4897C32.5264 42.6903 32.3141 42.842 32.0574 42.9447C31.8007 43.0473 31.5114 43.0987 31.1894 43.0987C30.7787 43.0987 30.4171 43.017 30.1044 42.8537C29.7917 42.6903 29.5491 42.464 29.3764 42.1747C29.2084 41.8807 29.1244 41.5493 29.1244 41.1807C29.1244 40.8167 29.2061 40.49 29.3694 40.2007C29.5374 39.9067 29.7684 39.678 30.0624 39.5147C30.3564 39.3513 30.6877 39.2697 31.0564 39.2697C31.4204 39.2697 31.7447 39.3513 32.0294 39.5147C32.3187 39.6733 32.5427 39.8997 32.7014 40.1937C32.8647 40.483 32.9464 40.819 32.9464 41.2017ZM31.0564 39.9697C30.7764 39.9697 30.5384 40.0537 30.3424 40.2217C30.1511 40.385 30.0344 40.6043 29.9924 40.8797H32.1134C32.0761 40.609 31.9617 40.3897 31.7704 40.2217C31.5791 40.0537 31.3411 39.9697 31.0564 39.9697ZM35.9754 39.2697C36.3394 39.2697 36.6638 39.349 36.9484 39.5077C37.2378 39.6663 37.4641 39.8903 37.6274 40.1797C37.7908 40.469 37.8724 40.8027 37.8724 41.1807C37.8724 41.5587 37.7908 41.8947 37.6274 42.1887C37.4641 42.478 37.2378 42.702 36.9484 42.8607C36.6638 43.0193 36.3394 43.0987 35.9754 43.0987C35.4714 43.0987 35.0724 42.9307 34.7784 42.5947V44.4077H33.9034V39.3117H34.7364V39.8017C34.8811 39.6243 35.0584 39.4913 35.2684 39.4027C35.4831 39.314 35.7188 39.2697 35.9754 39.2697ZM35.8774 42.3497C36.1994 42.3497 36.4631 42.2423 36.6684 42.0277C36.8784 41.813 36.9834 41.5307 36.9834 41.1807C36.9834 40.8307 36.8784 40.5483 36.6684 40.3337C36.4631 40.119 36.1994 40.0117 35.8774 40.0117C35.6674 40.0117 35.4784 40.0607 35.3104 40.1587C35.1424 40.252 35.0094 40.3873 34.9114 40.5647C34.8134 40.742 34.7644 40.9473 34.7644 41.1807C34.7644 41.414 34.8134 41.6193 34.9114 41.7967C35.0094 41.974 35.1424 42.1117 35.3104 42.2097C35.4784 42.303 35.6674 42.3497 35.8774 42.3497ZM38.7433 39.3117H39.6183V40.8307H41.5013V39.3117H42.3763V43.0497H41.5013V41.5727H39.6183V43.0497H38.7433V39.3117ZM47.0769 39.3117L45.3269 43.3507C45.1636 43.7567 44.9653 44.0413 44.7319 44.2047C44.4986 44.3727 44.2163 44.4567 43.8849 44.4567C43.6983 44.4567 43.5139 44.4263 43.3319 44.3657C43.1499 44.305 43.0006 44.221 42.8839 44.1137L43.2339 43.4697C43.3179 43.549 43.4159 43.612 43.5279 43.6587C43.6446 43.7053 43.7613 43.7287 43.8779 43.7287C44.0319 43.7287 44.1579 43.689 44.2559 43.6097C44.3586 43.5303 44.4519 43.3973 44.5359 43.2107L44.5989 43.0637L42.9679 39.3117H43.8779L45.0539 42.0767L46.2369 39.3117H47.0769ZM50.673 40.0537H49.364V43.0497H48.489V40.0537H47.173V39.3117H50.673V40.0537ZM53.1837 40.5437C53.6597 40.5437 54.0237 40.651 54.2757 40.8657C54.5324 41.0803 54.6607 41.3837 54.6607 41.7757C54.6607 42.1863 54.5207 42.5037 54.2407 42.7277C53.9607 42.9517 53.5664 43.0613 53.0577 43.0567L51.3077 43.0497V39.3117H52.1827V40.5367L53.1837 40.5437ZM52.9807 42.4127C53.2374 42.4173 53.4334 42.3637 53.5687 42.2517C53.7041 42.1397 53.7717 41.9763 53.7717 41.7617C53.7717 41.5517 53.7064 41.3977 53.5757 41.2997C53.4451 41.2017 53.2467 41.1503 52.9807 41.1457L52.1827 41.1387V42.4057L52.9807 42.4127ZM57.1308 43.0987C56.7435 43.0987 56.3958 43.017 56.0878 42.8537C55.7798 42.6903 55.5395 42.464 55.3668 42.1747C55.1941 41.8807 55.1078 41.5493 55.1078 41.1807C55.1078 40.812 55.1941 40.483 55.3668 40.1937C55.5395 39.9043 55.7775 39.678 56.0808 39.5147C56.3888 39.3513 56.7388 39.2697 57.1308 39.2697C57.4995 39.2697 57.8215 39.3443 58.0968 39.4937C58.3768 39.643 58.5868 39.8577 58.7268 40.1377L58.0548 40.5297C57.9475 40.357 57.8121 40.2287 57.6488 40.1447C57.4901 40.056 57.3151 40.0117 57.1238 40.0117C56.7971 40.0117 56.5265 40.119 56.3118 40.3337C56.0971 40.5437 55.9898 40.826 55.9898 41.1807C55.9898 41.5353 56.0948 41.82 56.3048 42.0347C56.5195 42.2447 56.7925 42.3497 57.1238 42.3497C57.3151 42.3497 57.4901 42.3077 57.6488 42.2237C57.8121 42.135 57.9475 42.0043 58.0548 41.8317L58.7268 42.2237C58.5821 42.5037 58.3698 42.7207 58.0898 42.8747C57.8145 43.024 57.4948 43.0987 57.1308 43.0987ZM62.5516 39.3117V43.0497H61.7676V41.9227H60.7806L60.0176 43.0497H59.0796L59.9616 41.8037C59.691 41.7103 59.4833 41.568 59.3386 41.3767C59.1986 41.1807 59.1286 40.9403 59.1286 40.6557C59.1286 40.2263 59.2803 39.895 59.5836 39.6617C59.887 39.4283 60.3046 39.3117 60.8366 39.3117H62.5516ZM60.8646 40.0467C60.3 40.0467 60.0176 40.259 60.0176 40.6837C60.0176 41.1037 60.2906 41.3137 60.8366 41.3137H61.7676V40.0467H60.8646ZM68.3722 41.1037C68.8342 41.2437 69.0652 41.5423 69.0652 41.9997C69.0652 42.3357 68.9392 42.5947 68.6872 42.7767C68.4352 42.9587 68.0619 43.0497 67.5672 43.0497H65.6632V39.3117H67.4902C67.9475 39.3117 68.3045 39.3957 68.5612 39.5637C68.8179 39.7317 68.9462 39.9697 68.9462 40.2777C68.9462 40.469 68.8949 40.6347 68.7922 40.7747C68.6942 40.9147 68.5542 41.0243 68.3722 41.1037ZM66.4962 40.8727H67.4132C67.8659 40.8727 68.0922 40.7163 68.0922 40.4037C68.0922 40.1003 67.8659 39.9487 67.4132 39.9487H66.4962V40.8727ZM67.4972 42.4127C67.9779 42.4127 68.2182 42.2563 68.2182 41.9437C68.2182 41.7803 68.1622 41.659 68.0502 41.5797C67.9382 41.4957 67.7632 41.4537 67.5252 41.4537H66.4962V42.4127H67.4972ZM7.98686 45.2697C8.53753 45.2697 8.95753 45.4027 9.24686 45.6687C9.54086 45.93 9.68786 46.3267 9.68786 46.8587V49.0497H8.86186V48.5947C8.75453 48.758 8.60053 48.884 8.39986 48.9727C8.20386 49.0567 7.96586 49.0987 7.68586 49.0987C7.40586 49.0987 7.16086 49.052 6.95086 48.9587C6.74086 48.8607 6.57753 48.7277 6.46086 48.5597C6.34886 48.387 6.29286 48.1933 6.29286 47.9787C6.29286 47.6427 6.41653 47.3743 6.66386 47.1737C6.91586 46.9683 7.31019 46.8657 7.84686 46.8657H8.81286V46.8097C8.81286 46.5483 8.73353 46.3477 8.57486 46.2077C8.42086 46.0677 8.18986 45.9977 7.88186 45.9977C7.67186 45.9977 7.46419 46.0303 7.25886 46.0957C7.05819 46.161 6.88786 46.252 6.74786 46.3687L6.40486 45.7317C6.60086 45.5823 6.83653 45.468 7.11186 45.3887C7.38719 45.3093 7.67886 45.2697 7.98686 45.2697ZM7.86786 48.4617C8.08719 48.4617 8.28086 48.4127 8.44886 48.3147C8.62153 48.212 8.74286 48.0673 8.81286 47.8807V47.4467H7.90986C7.40586 47.4467 7.15386 47.6123 7.15386 47.9437C7.15386 48.1023 7.21686 48.2283 7.34286 48.3217C7.46886 48.415 7.64386 48.4617 7.86786 48.4617ZM13.4796 47.1037C13.9416 47.2437 14.1726 47.5423 14.1726 47.9997C14.1726 48.3357 14.0466 48.5947 13.7946 48.7767C13.5426 48.9587 13.1693 49.0497 12.6746 49.0497H10.7706V45.3117H12.5976C13.055 45.3117 13.412 45.3957 13.6686 45.5637C13.9253 45.7317 14.0536 45.9697 14.0536 46.2777C14.0536 46.469 14.0023 46.6347 13.8996 46.7747C13.8016 46.9147 13.6616 47.0243 13.4796 47.1037ZM11.6036 46.8727H12.5206C12.9733 46.8727 13.1996 46.7163 13.1996 46.4037C13.1996 46.1003 12.9733 45.9487 12.5206 45.9487H11.6036V46.8727ZM12.6046 48.4127C13.0853 48.4127 13.3256 48.2563 13.3256 47.9437C13.3256 47.7803 13.2696 47.659 13.1576 47.5797C13.0456 47.4957 12.8706 47.4537 12.6326 47.4537H11.6036V48.4127H12.6046ZM16.4976 45.2697C17.0483 45.2697 17.4683 45.4027 17.7576 45.6687C18.0516 45.93 18.1986 46.3267 18.1986 46.8587V49.0497H17.3726V48.5947C17.2653 48.758 17.1113 48.884 16.9106 48.9727C16.7146 49.0567 16.4766 49.0987 16.1966 49.0987C15.9166 49.0987 15.6716 49.052 15.4616 48.9587C15.2516 48.8607 15.0883 48.7277 14.9716 48.5597C14.8596 48.387 14.8036 48.1933 14.8036 47.9787C14.8036 47.6427 14.9273 47.3743 15.1746 47.1737C15.4266 46.9683 15.8209 46.8657 16.3576 46.8657H17.3236V46.8097C17.3236 46.5483 17.2443 46.3477 17.0856 46.2077C16.9316 46.0677 16.7006 45.9977 16.3926 45.9977C16.1826 45.9977 15.9749 46.0303 15.7696 46.0957C15.5689 46.161 15.3986 46.252 15.2586 46.3687L14.9156 45.7317C15.1116 45.5823 15.3473 45.468 15.6226 45.3887C15.8979 45.3093 16.1896 45.2697 16.4976 45.2697ZM16.3786 48.4617C16.5979 48.4617 16.7916 48.4127 16.9596 48.3147C17.1323 48.212 17.2536 48.0673 17.3236 47.8807V47.4467H16.4206C15.9166 47.4467 15.6646 47.6123 15.6646 47.9437C15.6646 48.1023 15.7276 48.2283 15.8536 48.3217C15.9796 48.415 16.1546 48.4617 16.3786 48.4617ZM21.3534 45.2697C21.7174 45.2697 22.0417 45.349 22.3264 45.5077C22.6157 45.6663 22.842 45.8903 23.0054 46.1797C23.1687 46.469 23.2504 46.8027 23.2504 47.1807C23.2504 47.5587 23.1687 47.8947 23.0054 48.1887C22.842 48.478 22.6157 48.702 22.3264 48.8607C22.0417 49.0193 21.7174 49.0987 21.3534 49.0987C20.8494 49.0987 20.4504 48.9307 20.1564 48.5947V50.4077H19.2814V45.3117H20.1144V45.8017C20.259 45.6243 20.4364 45.4913 20.6464 45.4027C20.861 45.314 21.0967 45.2697 21.3534 45.2697ZM21.2554 48.3497C21.5774 48.3497 21.841 48.2423 22.0464 48.0277C22.2564 47.813 22.3614 47.5307 22.3614 47.1807C22.3614 46.8307 22.2564 46.5483 22.0464 46.3337C21.841 46.119 21.5774 46.0117 21.2554 46.0117C21.0454 46.0117 20.8564 46.0607 20.6884 46.1587C20.5204 46.252 20.3874 46.3873 20.2894 46.5647C20.1914 46.742 20.1424 46.9473 20.1424 47.1807C20.1424 47.414 20.1914 47.6193 20.2894 47.7967C20.3874 47.974 20.5204 48.1117 20.6884 48.2097C20.8564 48.303 21.0454 48.3497 21.2554 48.3497ZM24.1212 45.3117H24.9962V47.7757L27.0612 45.3117H27.8592V49.0497H26.9842V46.5857L24.9262 49.0497H24.1212V45.3117ZM29.0362 45.3117H29.9112V47.7757L31.9762 45.3117H32.7742V49.0497H31.8992V46.5857L29.8412 49.0497H29.0362V45.3117Z" fill="black"/>
<rect x="3.24634" y="40.7421" width="1.37971" height="37.2506" transform="rotate(-180 3.24634 40.7421)" fill="#E51937"/>
<path d="M0.641962 2.45658C0.641962 1.39931 1.49909 0.542188 2.55646 0.542188C3.61382 0.542188 4.47095 1.39931 4.47095 2.45658C4.47095 3.51385 3.61382 4.37097 2.55645 4.37097C1.49909 4.37097 0.641962 3.51385 0.641962 2.45658Z" fill="white" stroke="#E51937"/>
</svg>
