<svg width="187" height="65" fill="none" xmlns="http://www.w3.org/2000/svg"><rect x="2" y="14" width="32" height="49" rx="3" stroke="#fff" stroke-width="4"/><circle cx="17.5" cy="51.5" r="4.5" fill="#fff"/><path d="M56.416 44.6h6.144v.756h-5.268v2.748h2.748c.992 0 1.744.204 2.256.612.52.408.78 1 .78 1.776 0 .808-.28 1.428-.84 1.86-.552.432-1.348.648-2.388.648h-3.432v-8.4zm3.42 7.692c.776 0 1.36-.148 1.752-.444.4-.296.6-.736.6-1.32 0-.576-.196-1.004-.588-1.284-.384-.288-.972-.432-1.764-.432h-2.544v3.48h2.544zm7.699.768a3.319 3.319 0 0 1-1.644-.408 3.063 3.063 0 0 1-1.152-1.152 3.267 3.267 0 0 1-.42-1.656c0-.616.14-1.168.42-1.656.28-.488.664-.868 1.152-1.14a3.319 3.319 0 0 1 1.644-.408c.608 0 1.156.136 1.644.408.488.272.868.652 1.14 1.14.28.488.42 1.04.42 1.656 0 .616-.14 1.168-.42 1.656a2.976 2.976 0 0 1-1.14 1.152 3.319 3.319 0 0 1-1.644.408zm0-.756c.448 0 .848-.1 1.2-.3.36-.208.64-.5.84-.876.2-.376.3-.804.3-1.284s-.1-.908-.3-1.284c-.2-.376-.48-.664-.84-.864a2.314 2.314 0 0 0-1.2-.312c-.448 0-.852.104-1.212.312-.352.2-.632.488-.84.864-.2.376-.3.804-.3 1.284s.1.908.3 1.284c.208.376.488.668.84.876.36.2.764.3 1.212.3zm10.15-5.616V53h-.853v-5.556H73.81l-.084 1.56c-.064 1.312-.216 2.32-.456 3.024-.24.704-.669 1.056-1.285 1.056-.167 0-.371-.032-.611-.096l.06-.732c.143.032.243.048.3.048.328 0 .575-.152.743-.456.168-.304.28-.68.337-1.128a26.6 26.6 0 0 0 .144-1.776l.108-2.256h4.62zm5.133 2.232c.793.008 1.392.184 1.8.528.416.344.625.84.625 1.488 0 .672-.224 1.188-.672 1.548-.44.36-1.08.536-1.92.528L80.106 53v-6.312h.852v2.208l1.86.024zm-.215 3.444c.584.008 1.023-.108 1.32-.348.303-.248.456-.608.456-1.08 0-.464-.148-.808-.445-1.032-.296-.224-.74-.34-1.331-.348l-1.644-.024v2.808l1.644.024zm12.977-5.676V53h-8.712v-6.312h.852v5.568h3.096v-5.568h.852v5.568h3.06v-5.568h.852zm5.037 6.372a3.32 3.32 0 0 1-1.644-.408A3.063 3.063 0 0 1 97.82 51.5a3.267 3.267 0 0 1-.42-1.656c0-.616.14-1.168.42-1.656.28-.488.664-.868 1.152-1.14a3.32 3.32 0 0 1 1.644-.408c.608 0 1.156.136 1.644.408.488.272.868.652 1.14 1.14.28.488.42 1.04.42 1.656 0 .616-.14 1.168-.42 1.656a2.976 2.976 0 0 1-1.14 1.152 3.319 3.319 0 0 1-1.644.408zm0-.756c.448 0 .848-.1 1.2-.3.36-.208.64-.5.84-.876.2-.376.3-.804.3-1.284s-.1-.908-.3-1.284c-.2-.376-.48-.664-.84-.864a2.314 2.314 0 0 0-1.2-.312 2.38 2.38 0 0 0-1.212.312c-.352.2-.632.488-.84.864-.2.376-.3.804-.3 1.284s.1.908.3 1.284c.208.376.488.668.84.876.36.2.764.3 1.212.3zm5.025-5.616h.852v5.016l4.212-5.016h.756V53h-.852v-5.016L106.41 53h-.768v-6.312zm2.868-.912c-.544 0-.976-.136-1.296-.408-.32-.272-.484-.656-.492-1.152h.612a1 1 0 0 0 .336.756c.216.184.496.276.84.276s.624-.092.84-.276a.983.983 0 0 0 .348-.756h.612c-.008.496-.176.88-.504 1.152-.32.272-.752.408-1.296.408zm14.69 6.48v2.268h-.804V53h-5.652v1.524h-.804v-2.268h.36c.424-.024.712-.336.864-.936.152-.6.256-1.44.312-2.52l.084-2.112h4.656v5.568h.984zm-4.944-3.408c-.04.896-.116 1.636-.228 2.22-.112.576-.312.972-.6 1.188h3.936v-4.812h-3.036l-.072 1.404zm6.604-2.16h.852v5.016l4.212-5.016h.756V53h-.852v-5.016l-4.2 5.016h-.768v-6.312zm10.902 6.372a3.436 3.436 0 0 1-1.68-.408 2.976 2.976 0 0 1-1.152-1.14 3.333 3.333 0 0 1-.42-1.668c0-.616.14-1.168.42-1.656.28-.488.664-.868 1.152-1.14a3.436 3.436 0 0 1 1.68-.408c.544 0 1.028.108 1.452.324.432.208.772.516 1.02.924l-.636.432a1.945 1.945 0 0 0-.792-.696c-.32-.16-.668-.24-1.044-.24-.456 0-.868.104-1.236.312-.36.2-.644.488-.852.864-.2.376-.3.804-.3 1.284 0 .488.1.92.3 1.296.208.368.492.656.852.864.368.2.78.3 1.236.3.376 0 .724-.076 1.044-.228.32-.152.584-.384.792-.696l.636.432c-.248.408-.588.72-1.02.936a3.304 3.304 0 0 1-1.452.312zm9.786-6.372V53h-.852v-5.556h-3.96V53h-.852v-6.312h5.664zm7.582 0V53h-.852v-5.556h-3.024l-.084 1.56c-.064 1.312-.216 2.32-.456 3.024-.24.704-.668 1.056-1.284 1.056-.168 0-.372-.032-.612-.096l.06-.732c.144.032.244.048.3.048.328 0 .576-.152.744-.456.168-.304.28-.68.336-1.128a26.6 26.6 0 0 0 .144-1.776l.108-2.256h4.62zm7.942 3.42h-5.28c.048.656.3 1.188.756 1.596.456.4 1.032.6 1.728.6.392 0 .752-.068 1.08-.204.328-.144.612-.352.852-.624l.48.552c-.28.336-.632.592-1.056.768a3.507 3.507 0 0 1-1.38.264c-.648 0-1.224-.136-1.728-.408a3.038 3.038 0 0 1-1.164-1.152 3.267 3.267 0 0 1-.42-1.656c0-.616.132-1.168.396-1.656.272-.488.64-.868 1.104-1.14.472-.272 1-.408 1.584-.408a3.05 3.05 0 0 1 1.572.408c.464.272.828.652 1.092 1.14.264.48.396 1.032.396 1.656l-.012.264zm-3.048-2.736c-.608 0-1.12.196-1.536.588-.408.384-.64.888-.696 1.512h4.476c-.056-.624-.292-1.128-.708-1.512-.408-.392-.92-.588-1.536-.588zm4.946-.684h.852v5.016l4.212-5.016h.756V53h-.852v-5.016l-4.2 5.016h-.768v-6.312zm2.868-.912c-.544 0-.976-.136-1.296-.408-.32-.272-.484-.656-.492-1.152h.612a1 1 0 0 0 .336.756c.216.184.496.276.84.276s.624-.092.84-.276a.983.983 0 0 0 .348-.756h.612c-.008.496-.176.88-.504 1.152-.32.272-.752.408-1.296.408zM65.01 9.5V34h-4.55V13.315h-5.18V9.5h9.73zm23.34 0v3.045L78.83 34h-4.865l9.205-20.65h-9.625v4.165H69.31V9.5h19.04zM113.08 31.88v4.5h-2.34V34h-8.24v2.38h-2.32v-4.5h.5c.68-.027 1.14-.46 1.38-1.3.253-.853.42-2.053.5-3.6l.14-3.66h8.8v8.56h1.58zm-8.24-4.72c-.053 1.227-.153 2.227-.3 3-.147.773-.413 1.347-.8 1.72H109v-6.44h-4.1l-.06 1.72zm20.233-3.96c1.066 0 2.02.233 2.86.7.84.453 1.5 1.1 1.98 1.94.48.827.72 1.767.72 2.82s-.24 2-.72 2.84a5.127 5.127 0 0 1-1.98 1.94c-.84.467-1.794.7-2.86.7-.934 0-1.787-.18-2.56-.54a5.216 5.216 0 0 1-1.92-1.56 5.293 5.293 0 0 1-.98-2.32h-1.8V34h-2.5V23.32h2.5v4.14h1.84c.16-.84.493-1.58 1-2.22a4.982 4.982 0 0 1 1.9-1.5c.76-.36 1.6-.54 2.52-.54zm0 8.82a3.13 3.13 0 0 0 1.58-.4c.466-.28.833-.673 1.1-1.18.266-.52.4-1.113.4-1.78 0-1.013-.294-1.82-.88-2.42-.574-.613-1.307-.92-2.2-.92-.894 0-1.627.307-2.2.92-.574.6-.86 1.407-.86 2.42s.286 1.827.86 2.44c.586.613 1.32.92 2.2.92zm8.013-8.7h2.5v7.04l5.9-7.04h2.28V34h-2.5v-7.04l-5.88 7.04h-2.3V23.32zm5.18-1.26c-1.08 0-1.906-.247-2.48-.74-.56-.507-.846-1.24-.86-2.2h1.66c.014.48.16.86.44 1.14.294.28.7.42 1.22.42.507 0 .907-.14 1.2-.42.307-.28.467-.66.48-1.14h1.7c-.013.96-.306 1.693-.88 2.2-.573.493-1.4.74-2.48.74zM157.629 34v-7.08l-3.6 5.96h-1.08l-3.54-5.98V34h-2.28V23.32h2.62l3.8 6.68 3.98-6.68h2.34l.02 10.68h-2.26zm10.374.14c-1.08 0-2.054-.233-2.92-.7a5.191 5.191 0 0 1-2.04-1.94c-.48-.84-.72-1.787-.72-2.84s.24-1.993.72-2.82a5.191 5.191 0 0 1 2.04-1.94c.866-.467 1.84-.7 2.92-.7 1.093 0 2.073.233 2.94.7a5.06 5.06 0 0 1 2.02 1.94c.493.827.74 1.767.74 2.82s-.247 2-.74 2.84a5.06 5.06 0 0 1-2.02 1.94c-.867.467-1.847.7-2.94.7zm0-2.14c.92 0 1.68-.307 2.28-.92.6-.613.9-1.42.9-2.42s-.3-1.807-.9-2.42c-.6-.613-1.36-.92-2.28-.92-.92 0-1.68.307-2.28.92-.587.613-.88 1.42-.88 2.42s.293 1.807.88 2.42c.6.613 1.36.92 2.28.92zm15.909-3.56c1.32.4 1.98 1.253 1.98 2.56 0 .96-.36 1.7-1.08 2.22-.72.52-1.786.78-3.2.78h-5.44V23.32h5.22c1.307 0 2.327.24 3.06.72.734.48 1.1 1.16 1.1 2.04 0 .547-.146 1.02-.44 1.42-.28.4-.68.713-1.2.94zm-5.36-.66h2.62c1.294 0 1.94-.447 1.94-1.34 0-.867-.646-1.3-1.94-1.3h-2.62v2.64zm2.86 4.4c1.374 0 2.06-.447 2.06-1.34 0-.467-.16-.813-.48-1.04-.32-.24-.82-.36-1.5-.36h-2.94v2.74h2.86z" fill="#fff"/></svg>