<svg width="280" height="92" fill="none" xmlns="http://www.w3.org/2000/svg"><path d="M98.15 26.55c4.933 0 8.583.967 10.95 2.9 2.367 1.9 3.55 4.5 3.55 7.8 0 2.1-.517 4-1.55 5.7-1.033 1.7-2.583 3.05-4.65 4.05s-4.617 1.5-7.65 1.5c-2.5 0-4.917-.35-7.25-1.05-2.333-.733-4.3-1.733-5.9-3l2.75-5.05c1.3 1.067 2.85 1.917 4.65 2.55 1.833.6 3.717.9 5.65.9 2.3 0 4.1-.467 5.4-1.4 1.333-.967 2-2.283 2-3.95 0-1.8-.717-3.15-2.15-4.05-1.4-.933-3.817-1.4-7.25-1.4h-8.45L90.05 13h20.55v5.45H95.55l-.75 8.1h3.35zm50.018 7.55c1.666.467 2.95 1.233 3.85 2.3.933 1.033 1.4 2.283 1.4 3.75 0 1.633-.55 3.083-1.65 4.35-1.1 1.233-2.617 2.2-4.55 2.9-1.934.7-4.134 1.05-6.6 1.05-2.067 0-4.084-.233-6.05-.7-1.967-.5-3.75-1.2-5.35-2.1l1.8-4.65c1.3.733 2.766 1.3 4.4 1.7 1.633.4 3.266.6 4.9.6 2.1 0 3.733-.317 4.9-.95 1.2-.667 1.8-1.567 1.8-2.7 0-1.033-.467-1.833-1.4-2.4-.9-.567-2.184-.85-3.85-.85h-5.2v-4.2h4.7c1.566 0 2.783-.267 3.65-.8.9-.533 1.35-1.283 1.35-2.25 0-.967-.534-1.733-1.6-2.3-1.067-.567-2.534-.85-4.4-.85-2.667 0-5.484.65-8.45 1.95l-1.6-4.6c3.5-1.633 7.033-2.45 10.6-2.45 2.266 0 4.3.317 6.1.95 1.8.6 3.2 1.467 4.2 2.6 1.033 1.1 1.55 2.367 1.55 3.8 0 1.3-.4 2.467-1.2 3.5-.8 1-1.9 1.783-3.3 2.35zm31.085 0c3.3 1 4.95 3.133 4.95 6.4 0 2.4-.9 4.25-2.7 5.55-1.8 1.3-4.467 1.95-8 1.95h-13.6V21.3h13.05c3.267 0 5.817.6 7.65 1.8 1.833 1.2 2.75 2.9 2.75 5.1 0 1.367-.367 2.55-1.1 3.55-.7 1-1.7 1.783-3 2.35zm-13.4-1.65h6.55c3.233 0 4.85-1.117 4.85-3.35 0-2.167-1.617-3.25-4.85-3.25h-6.55v6.6zm7.15 11c3.433 0 5.15-1.117 5.15-3.35 0-1.167-.4-2.033-1.2-2.6-.8-.6-2.05-.9-3.75-.9h-7.35v6.85h7.15zm42.857-8.65c0 .433-.033 1.05-.1 1.85h-20.95c.367 1.967 1.317 3.533 2.85 4.7 1.567 1.133 3.5 1.7 5.8 1.7 2.933 0 5.35-.967 7.25-2.9l3.35 3.85c-1.2 1.433-2.717 2.517-4.55 3.25-1.833.733-3.9 1.1-6.2 1.1-2.933 0-5.517-.583-7.75-1.75-2.233-1.167-3.967-2.783-5.2-4.85-1.2-2.1-1.8-4.467-1.8-7.1 0-2.6.583-4.933 1.75-7 1.2-2.1 2.85-3.733 4.95-4.9 2.1-1.167 4.467-1.75 7.1-1.75 2.6 0 4.917.583 6.95 1.75 2.067 1.133 3.667 2.75 4.8 4.85 1.167 2.067 1.75 4.467 1.75 7.2zm-13.5-8.8c-2 0-3.7.6-5.1 1.8-1.367 1.167-2.2 2.733-2.5 4.7h15.15c-.267-1.933-1.083-3.5-2.45-4.7-1.367-1.2-3.067-1.8-5.1-1.8zm35.798 8.1c1.666.467 2.95 1.233 3.85 2.3.933 1.033 1.4 2.283 1.4 3.75 0 1.633-.55 3.083-1.65 4.35-1.1 1.233-2.617 2.2-4.55 2.9-1.934.7-4.134 1.05-6.6 1.05-2.067 0-4.084-.233-6.05-.7-1.967-.5-3.75-1.2-5.35-2.1l1.8-4.65c1.3.733 2.766 1.3 4.4 1.7 1.633.4 3.266.6 4.9.6 2.1 0 3.733-.317 4.9-.95 1.2-.667 1.8-1.567 1.8-2.7 0-1.033-.467-1.833-1.4-2.4-.9-.567-2.184-.85-3.85-.85h-5.2v-4.2h4.7c1.566 0 2.783-.267 3.65-.8.9-.533 1.35-1.283 1.35-2.25 0-.967-.534-1.733-1.6-2.3-1.067-.567-2.534-.85-4.4-.85-2.667 0-5.484.65-8.45 1.95l-1.6-4.6c3.5-1.633 7.033-2.45 10.6-2.45 2.266 0 4.3.317 6.1.95 1.8.6 3.2 1.467 4.2 2.6 1.033 1.1 1.55 2.367 1.55 3.8 0 1.3-.4 2.467-1.2 3.5-.8 1-1.9 1.783-3.3 2.35zm40.235 8.6v11.25h-5.85V48h-20.6v5.95h-5.8V42.7h1.25c1.7-.067 2.85-1.15 3.45-3.25.634-2.133 1.05-5.133 1.25-9l.35-9.15h22v21.4h3.95zm-20.6-11.8c-.133 3.067-.383 5.567-.75 7.5-.366 1.933-1.033 3.367-2 4.3h13.15V26.6h-10.25l-.15 4.3zM61.92 28.054c-.038-1.998-.074-3.886-.074-5.712 0-1.43-1.156-2.59-2.582-2.59-11.046 0-19.455-3.183-26.465-10.019a2.577 2.577 0 0 0-3.6 0c-7.01 6.836-15.418 10.02-26.463 10.02a2.586 2.586 0 0 0-2.582 2.59c0 1.826-.036 3.714-.074 5.712-.354 18.593-.84 44.056 30.073 54.802a2.575 2.575 0 0 0 1.691 0c30.915-10.746 30.43-36.21 30.076-54.803zM31 77.66C4.488 68.002 4.889 46.844 5.244 28.154c.022-1.122.042-2.21.057-3.275 10.344-.438 18.616-3.582 25.698-9.768 7.082 6.186 15.355 9.33 25.7 9.768.015 1.066.036 2.152.057 3.273.355 18.691.756 39.85-25.757 49.51z" fill="#fff"/><path d="M39.892 37.002L27.427 49.503l-5.32-5.335a2.578 2.578 0 0 0-3.651 0 2.596 2.596 0 0 0 0 3.663l7.145 7.167a2.571 2.571 0 0 0 1.826.758c.661 0 1.322-.253 1.826-.758l14.291-14.333a2.595 2.595 0 0 0 0-3.663 2.577 2.577 0 0 0-3.651 0zM93.325 63.3c1.267 0 2.383.275 3.35.825a5.621 5.621 0 0 1 2.25 2.25c.55.967.825 2.075.825 3.325 0 1.283-.3 2.425-.9 3.425-.6.983-1.442 1.75-2.525 2.3-1.083.55-2.317.825-3.7.825-2.317 0-4.108-.767-5.375-2.3-1.267-1.533-1.9-3.742-1.9-6.625 0-2.683.575-4.808 1.725-6.375 1.15-1.567 2.908-2.6 5.275-3.1l6.2-1.325.45 2.8-5.625 1.15c-1.617.333-2.825.9-3.625 1.7-.8.8-1.267 1.925-1.4 3.375a6.04 6.04 0 0 1 2.175-1.65c.85-.4 1.783-.6 2.8-.6zM92.7 73.725c1.15 0 2.075-.367 2.775-1.1.717-.75 1.075-1.7 1.075-2.85 0-1.15-.358-2.075-1.075-2.775-.7-.7-1.625-1.05-2.775-1.05-1.167 0-2.108.35-2.825 1.05-.717.7-1.075 1.625-1.075 2.775 0 1.167.358 2.117 1.075 2.85.733.733 1.675 1.1 2.825 1.1zm22.575-4.325c0 .217-.017.525-.05.925H104.75c.183.983.658 1.767 1.425 2.35.783.567 1.75.85 2.9.85 1.466 0 2.675-.483 3.625-1.45L114.375 74a5.648 5.648 0 0 1-2.275 1.625c-.917.367-1.95.55-3.1.55-1.467 0-2.759-.292-3.875-.875-1.117-.583-1.984-1.392-2.6-2.425-.6-1.05-.9-2.233-.9-3.55 0-1.3.291-2.467.875-3.5a6.358 6.358 0 0 1 2.475-2.45c1.05-.583 2.233-.875 3.55-.875 1.3 0 2.458.292 3.475.875a5.907 5.907 0 0 1 2.4 2.425c.583 1.033.875 2.233.875 3.6zm-6.75-4.4c-1 0-1.85.3-2.55.9-.684.583-1.1 1.367-1.25 2.35h7.575c-.134-.967-.542-1.75-1.225-2.35-.684-.6-1.534-.9-2.55-.9zm17.899 4.05c.833.233 1.475.617 1.925 1.15.466.517.7 1.142.7 1.875 0 .817-.275 1.542-.825 2.175-.55.617-1.309 1.1-2.275 1.45-.967.35-2.067.525-3.3.525-1.034 0-2.042-.117-3.025-.35-.984-.25-1.875-.6-2.675-1.05l.9-2.325a8.63 8.63 0 0 0 2.2.85c.816.2 1.633.3 2.45.3 1.05 0 1.866-.158 2.45-.475.6-.333.9-.783.9-1.35 0-.517-.234-.917-.7-1.2-.45-.283-1.092-.425-1.925-.425h-2.6v-2.1h2.35c.783 0 1.391-.133 1.825-.4.45-.267.675-.642.675-1.125s-.267-.867-.8-1.15c-.534-.283-1.267-.425-2.2-.425-1.334 0-2.742.325-4.225.975l-.8-2.3c1.75-.817 3.516-1.225 5.3-1.225 1.133 0 2.15.158 3.05.475.9.3 1.6.733 2.1 1.3.516.55.775 1.183.775 1.9 0 .65-.2 1.233-.6 1.75-.4.5-.95.892-1.65 1.175zm11.817 7.125c-1.35 0-2.566-.292-3.65-.875a6.499 6.499 0 0 1-2.55-2.425c-.6-1.05-.9-2.233-.9-3.55 0-1.317.3-2.492.9-3.525a6.499 6.499 0 0 1 2.55-2.425c1.084-.583 2.3-.875 3.65-.875 1.367 0 2.592.292 3.675.875a6.315 6.315 0 0 1 2.525 2.425c.617 1.033.925 2.208.925 3.525 0 1.317-.308 2.5-.925 3.55a6.315 6.315 0 0 1-2.525 2.425c-1.083.583-2.308.875-3.675.875zm0-2.675c1.15 0 2.1-.383 2.85-1.15.75-.767 1.125-1.775 1.125-3.025s-.375-2.258-1.125-3.025c-.75-.767-1.7-1.15-2.85-1.15-1.15 0-2.1.383-2.85 1.15-.733.767-1.1 1.775-1.1 3.025s.367 2.258 1.1 3.025c.75.767 1.7 1.15 2.85 1.15zm23.013-10.85V76h-3.1V65.3h-6.575V76h-3.125V62.65h12.8zm9.191-.15c1.967 0 3.467.475 4.5 1.425 1.05.933 1.575 2.35 1.575 4.25V76h-2.95v-1.625c-.383.583-.933 1.033-1.65 1.35-.7.3-1.55.45-2.55.45-1 0-1.875-.167-2.625-.5-.75-.35-1.333-.825-1.75-1.425a3.73 3.73 0 0 1-.6-2.075c0-1.2.442-2.158 1.325-2.875.9-.733 2.308-1.1 4.225-1.1h3.45V68c0-.933-.283-1.65-.85-2.15-.55-.5-1.375-.75-2.475-.75-.75 0-1.492.117-2.225.35-.717.233-1.325.558-1.825.975l-1.225-2.275c.7-.533 1.542-.942 2.525-1.225a11.234 11.234 0 0 1 3.125-.425zm-.425 11.4c.783 0 1.475-.175 2.075-.525a2.967 2.967 0 0 0 1.3-1.55v-1.55h-3.225c-1.8 0-2.7.592-2.7 1.775 0 .567.225 1.017.675 1.35.45.333 1.075.5 1.875.5zm16.442 2.275c-1.383 0-2.625-.292-3.725-.875s-1.958-1.392-2.575-2.425c-.617-1.05-.925-2.233-.925-3.55 0-1.317.308-2.492.925-3.525a6.499 6.499 0 0 1 2.55-2.425c1.1-.583 2.35-.875 3.75-.875 1.317 0 2.467.267 3.45.8 1 .533 1.75 1.3 2.25 2.3l-2.4 1.4c-.383-.617-.867-1.075-1.45-1.375a3.78 3.78 0 0 0-1.875-.475c-1.167 0-2.133.383-2.9 1.15-.767.75-1.15 1.758-1.15 3.025s.375 2.283 1.125 3.05c.767.75 1.742 1.125 2.925 1.125.683 0 1.308-.15 1.875-.45.583-.317 1.067-.783 1.45-1.4l2.4 1.4a5.468 5.468 0 0 1-2.275 2.325c-.983.533-2.125.8-3.425.8zm8.451-13.525h3.125v5.425h6.725V62.65h3.125V76h-3.125v-5.275h-6.725V76h-3.125V62.65zm23.114 13.525c-1.35 0-2.567-.292-3.65-.875a6.485 6.485 0 0 1-2.55-2.425c-.6-1.05-.9-2.233-.9-3.55 0-1.317.3-2.492.9-3.525a6.485 6.485 0 0 1 2.55-2.425c1.083-.583 2.3-.875 3.65-.875 1.366 0 2.591.292 3.675.875a6.321 6.321 0 0 1 2.525 2.425c.616 1.033.925 2.208.925 3.525 0 1.317-.309 2.5-.925 3.55a6.321 6.321 0 0 1-2.525 2.425c-1.084.583-2.309.875-3.675.875zm0-2.675c1.15 0 2.1-.383 2.85-1.15.75-.767 1.125-1.775 1.125-3.025s-.375-2.258-1.125-3.025c-.75-.767-1.7-1.15-2.85-1.15-1.15 0-2.1.383-2.85 1.15-.734.767-1.1 1.775-1.1 3.025s.366 2.258 1.1 3.025c.75.767 1.7 1.15 2.85 1.15zm16.287 2.675c-1.384 0-2.625-.292-3.725-.875s-1.959-1.392-2.575-2.425c-.617-1.05-.925-2.233-.925-3.55 0-1.317.308-2.492.925-3.525a6.485 6.485 0 0 1 2.55-2.425c1.1-.583 2.35-.875 3.75-.875 1.316 0 2.466.267 3.45.8 1 .533 1.75 1.3 2.25 2.3l-2.4 1.4c-.384-.617-.867-1.075-1.45-1.375a3.78 3.78 0 0 0-1.875-.475c-1.167 0-2.134.383-2.9 1.15-.767.75-1.15 1.758-1.15 3.025s.375 2.283 1.125 3.05c.766.75 1.741 1.125 2.925 1.125.683 0 1.308-.15 1.875-.45.583-.317 1.066-.783 1.45-1.4l2.4 1.4a5.468 5.468 0 0 1-2.275 2.325c-.984.533-2.125.8-3.425.8zM253.218 65.3h-4.675V76h-3.125V65.3h-4.7v-2.65h12.5v2.65zm2.267-2.65h3.125v8.8l7.375-8.8h2.85V76h-3.125v-8.8l-7.35 8.8h-2.875V62.65z" fill="#fff"/></svg>