<svg width="68" height="99" viewBox="0 0 68 99" fill="none" xmlns="http://www.w3.org/2000/svg">
<path d="M11.0967 4.52435C11.3907 4.61768 11.6194 4.76935 11.7827 4.97935C11.9507 5.18468 12.0347 5.42735 12.0347 5.70735C12.0347 6.00135 11.9391 6.25801 11.7477 6.47735C11.5564 6.69201 11.2997 6.85768 10.9777 6.97435C10.6604 7.09101 10.3127 7.14935 9.93472 7.14935C9.60805 7.14935 9.27905 7.10501 8.94772 7.01635C8.62105 6.92301 8.31772 6.78535 8.03772 6.60335L8.33172 5.93835C8.54638 6.08301 8.78438 6.19501 9.04572 6.27435C9.30705 6.34901 9.56605 6.38635 9.82272 6.38635C10.1914 6.38635 10.4971 6.31401 10.7397 6.16935C10.9871 6.02468 11.1107 5.82635 11.1107 5.57435C11.1107 5.35968 11.0221 5.19635 10.8447 5.08435C10.6674 4.97235 10.4224 4.91635 10.1097 4.91635H8.96872V4.20235H10.0397C10.3104 4.20235 10.5227 4.14635 10.6767 4.03435C10.8307 3.92235 10.9077 3.77068 10.9077 3.57935C10.9077 3.35068 10.8027 3.17335 10.5927 3.04735C10.3874 2.92135 10.1237 2.85835 9.80172 2.85835C9.58238 2.85835 9.35605 2.89101 9.12272 2.95635C8.88938 3.01701 8.67005 3.10801 8.46472 3.22935L8.17772 2.49435C8.42972 2.35901 8.69572 2.25868 8.97572 2.19335C9.26038 2.12335 9.54272 2.08835 9.82272 2.08835C10.1867 2.08835 10.5204 2.14435 10.8237 2.25635C11.1317 2.36835 11.3767 2.52935 11.5587 2.73935C11.7407 2.94468 11.8317 3.18735 11.8317 3.46735C11.8317 3.71001 11.7664 3.92235 11.6357 4.10435C11.5051 4.28635 11.3254 4.42635 11.0967 4.52435ZM14.3616 3.29935C14.9123 3.29935 15.3323 3.43235 15.6216 3.69835C15.9156 3.95968 16.0626 4.35635 16.0626 4.88835V7.07935H15.2366V6.62435C15.1293 6.78768 14.9753 6.91368 14.7746 7.00235C14.5786 7.08635 14.3406 7.12835 14.0606 7.12835C13.7806 7.12835 13.5356 7.08168 13.3256 6.98835C13.1156 6.89035 12.9523 6.75735 12.8356 6.58935C12.7236 6.41668 12.6676 6.22301 12.6676 6.00835C12.6676 5.67235 12.7913 5.40401 13.0386 5.20335C13.2906 4.99801 13.6849 4.89535 14.2216 4.89535H15.1876V4.83935C15.1876 4.57801 15.1083 4.37735 14.9496 4.23735C14.7956 4.09735 14.5646 4.02735 14.2566 4.02735C14.0466 4.02735 13.8389 4.06001 13.6336 4.12535C13.4329 4.19068 13.2626 4.28168 13.1226 4.39835L12.7796 3.76135C12.9756 3.61201 13.2113 3.49768 13.4866 3.41835C13.7619 3.33901 14.0536 3.29935 14.3616 3.29935ZM14.2426 6.49135C14.4619 6.49135 14.6556 6.44235 14.8236 6.34435C14.9963 6.24168 15.1176 6.09701 15.1876 5.91035V5.47635H14.2846C13.7806 5.47635 13.5286 5.64201 13.5286 5.97335C13.5286 6.13201 13.5916 6.25801 13.7176 6.35135C13.8436 6.44468 14.0186 6.49135 14.2426 6.49135ZM22.6544 3.34135V7.07935H17.1454V3.34135H18.0204V6.33735H19.4694V3.34135H20.3444V6.33735H21.7794V3.34135H22.6544ZM23.1934 6.33735V7.84935H22.3744V7.07935H21.7514V6.33735H23.1934ZM23.8309 3.34135H24.7059V5.80535L26.7709 3.34135H27.5689V7.07935H26.6939V4.61535L24.6359 7.07935H23.8309V3.34135ZM31.707 4.08335H30.398V7.07935H29.523V4.08335H28.207V3.34135H31.707V4.08335ZM33.7347 3.29935C34.2853 3.29935 34.7053 3.43235 34.9947 3.69835C35.2887 3.95968 35.4357 4.35635 35.4357 4.88835V7.07935H34.6097V6.62435C34.5023 6.78768 34.3483 6.91368 34.1477 7.00235C33.9517 7.08635 33.7137 7.12835 33.4337 7.12835C33.1537 7.12835 32.9087 7.08168 32.6987 6.98835C32.4887 6.89035 32.3253 6.75735 32.2087 6.58935C32.0967 6.41668 32.0407 6.22301 32.0407 6.00835C32.0407 5.67235 32.1643 5.40401 32.4117 5.20335C32.6637 4.99801 33.058 4.89535 33.5947 4.89535H34.5607V4.83935C34.5607 4.57801 34.4813 4.37735 34.3227 4.23735C34.1687 4.09735 33.9377 4.02735 33.6297 4.02735C33.4197 4.02735 33.212 4.06001 33.0067 4.12535C32.806 4.19068 32.6357 4.28168 32.4957 4.39835L32.1527 3.76135C32.3487 3.61201 32.5843 3.49768 32.8597 3.41835C33.135 3.33901 33.4267 3.29935 33.7347 3.29935ZM33.6157 6.49135C33.835 6.49135 34.0287 6.44235 34.1967 6.34435C34.3693 6.24168 34.4907 6.09701 34.5607 5.91035V5.47635H33.6577C33.1537 5.47635 32.9017 5.64201 32.9017 5.97335C32.9017 6.13201 32.9647 6.25801 33.0907 6.35135C33.2167 6.44468 33.3917 6.49135 33.6157 6.49135ZM40.119 7.12835C39.741 7.12835 39.4003 7.04668 39.097 6.88335C38.7937 6.72001 38.5557 6.49368 38.383 6.20435C38.215 5.91035 38.131 5.57901 38.131 5.21035C38.131 4.84168 38.215 4.51268 38.383 4.22335C38.5557 3.93401 38.7937 3.70768 39.097 3.54435C39.4003 3.38101 39.741 3.29935 40.119 3.29935C40.5017 3.29935 40.8447 3.38101 41.148 3.54435C41.4513 3.70768 41.687 3.93401 41.855 4.22335C42.0277 4.51268 42.114 4.84168 42.114 5.21035C42.114 5.57901 42.0277 5.91035 41.855 6.20435C41.687 6.49368 41.4513 6.72001 41.148 6.88335C40.8447 7.04668 40.5017 7.12835 40.119 7.12835ZM40.119 6.37935C40.441 6.37935 40.707 6.27201 40.917 6.05735C41.127 5.84268 41.232 5.56035 41.232 5.21035C41.232 4.86035 41.127 4.57801 40.917 4.36335C40.707 4.14868 40.441 4.04135 40.119 4.04135C39.797 4.04135 39.531 4.14868 39.321 4.36335C39.1157 4.57801 39.013 4.86035 39.013 5.21035C39.013 5.56035 39.1157 5.84268 39.321 6.05735C39.531 6.27201 39.797 6.37935 40.119 6.37935ZM45.8027 4.08335H44.4937V7.07935H43.6187V4.08335H42.3027V3.34135H45.8027V4.08335ZM11.9507 9.34135L10.2007 13.3803C10.0374 13.7863 9.83905 14.071 9.60572 14.2343C9.37238 14.4023 9.09005 14.4863 8.75872 14.4863C8.57205 14.4863 8.38772 14.456 8.20572 14.3953C8.02372 14.3347 7.87438 14.2507 7.75772 14.1433L8.10772 13.4993C8.19172 13.5787 8.28972 13.6417 8.40172 13.6883C8.51838 13.735 8.63505 13.7583 8.75172 13.7583C8.90572 13.7583 9.03172 13.7187 9.12972 13.6393C9.23238 13.56 9.32572 13.427 9.40972 13.2403L9.47272 13.0933L7.84172 9.34135H8.75172L9.92772 12.1063L11.1107 9.34135H11.9507ZM16.316 12.3373V13.9123H15.497V13.0793H12.613V13.9123H11.801V12.3373H11.976C12.214 12.328 12.375 12.1763 12.459 11.8823C12.5477 11.5837 12.606 11.1637 12.634 10.6223L12.683 9.34135H15.763V12.3373H16.316ZM13.432 10.6853C13.4134 11.1147 13.3784 11.4647 13.327 11.7353C13.2757 12.006 13.1824 12.2067 13.047 12.3373H14.888V10.0833H13.453L13.432 10.6853ZM18.4905 9.29935C19.0412 9.29935 19.4612 9.43235 19.7505 9.69835C20.0445 9.95968 20.1915 10.3563 20.1915 10.8883V13.0793H19.3655V12.6243C19.2582 12.7877 19.1042 12.9137 18.9035 13.0023C18.7075 13.0863 18.4695 13.1283 18.1895 13.1283C17.9095 13.1283 17.6645 13.0817 17.4545 12.9883C17.2445 12.8903 17.0812 12.7573 16.9645 12.5893C16.8525 12.4167 16.7965 12.223 16.7965 12.0083C16.7965 11.6723 16.9202 11.404 17.1675 11.2033C17.4195 10.998 17.8139 10.8953 18.3505 10.8953H19.3165V10.8393C19.3165 10.578 19.2372 10.3773 19.0785 10.2373C18.9245 10.0973 18.6935 10.0273 18.3855 10.0273C18.1755 10.0273 17.9679 10.06 17.7625 10.1253C17.5619 10.1907 17.3915 10.2817 17.2515 10.3983L16.9085 9.76135C17.1045 9.61201 17.3402 9.49768 17.6155 9.41835C17.8909 9.33901 18.1825 9.29935 18.4905 9.29935ZM18.3715 12.4913C18.5909 12.4913 18.7845 12.4423 18.9525 12.3443C19.1252 12.2417 19.2465 12.097 19.3165 11.9103V11.4763H18.4135C17.9095 11.4763 17.6575 11.642 17.6575 11.9733C17.6575 12.132 17.7205 12.258 17.8465 12.3513C17.9725 12.4447 18.1475 12.4913 18.3715 12.4913ZM23.3463 9.29935C23.7103 9.29935 24.0346 9.37868 24.3193 9.53735C24.6086 9.69601 24.8349 9.92001 24.9983 10.2093C25.1616 10.4987 25.2433 10.8323 25.2433 11.2103C25.2433 11.5883 25.1616 11.9243 24.9983 12.2183C24.8349 12.5077 24.6086 12.7317 24.3193 12.8903C24.0346 13.049 23.7103 13.1283 23.3463 13.1283C22.8423 13.1283 22.4433 12.9603 22.1493 12.6243V14.4373H21.2743V9.34135H22.1073V9.83135C22.2519 9.65401 22.4293 9.52101 22.6393 9.43235C22.8539 9.34368 23.0896 9.29935 23.3463 9.29935ZM23.2483 12.3793C23.5703 12.3793 23.8339 12.272 24.0393 12.0573C24.2493 11.8427 24.3543 11.5603 24.3543 11.2103C24.3543 10.8603 24.2493 10.578 24.0393 10.3633C23.8339 10.1487 23.5703 10.0413 23.2483 10.0413C23.0383 10.0413 22.8493 10.0903 22.6813 10.1883C22.5133 10.2817 22.3803 10.417 22.2823 10.5943C22.1843 10.7717 22.1353 10.977 22.1353 11.2103C22.1353 11.4437 22.1843 11.649 22.2823 11.8263C22.3803 12.0037 22.5133 12.1413 22.6813 12.2393C22.8493 12.3327 23.0383 12.3793 23.2483 12.3793ZM27.4593 9.29935C28.0099 9.29935 28.4299 9.43235 28.7193 9.69835C29.0133 9.95968 29.1603 10.3563 29.1603 10.8883V13.0793H28.3343V12.6243C28.2269 12.7877 28.0729 12.9137 27.8723 13.0023C27.6763 13.0863 27.4383 13.1283 27.1583 13.1283C26.8783 13.1283 26.6333 13.0817 26.4233 12.9883C26.2133 12.8903 26.0499 12.7573 25.9333 12.5893C25.8213 12.4167 25.7653 12.223 25.7653 12.0083C25.7653 11.6723 25.8889 11.404 26.1363 11.2033C26.3883 10.998 26.7826 10.8953 27.3193 10.8953H28.2853V10.8393C28.2853 10.578 28.2059 10.3773 28.0473 10.2373C27.8933 10.0973 27.6623 10.0273 27.3543 10.0273C27.1443 10.0273 26.9366 10.06 26.7313 10.1253C26.5306 10.1907 26.3603 10.2817 26.2203 10.3983L25.8773 9.76135C26.0733 9.61201 26.3089 9.49768 26.5843 9.41835C26.8596 9.33901 27.1513 9.29935 27.4593 9.29935ZM27.3403 12.4913C27.5596 12.4913 27.7533 12.4423 27.9213 12.3443C28.0939 12.2417 28.2153 12.097 28.2853 11.9103V11.4763H27.3823C26.8783 11.4763 26.6263 11.642 26.6263 11.9733C26.6263 12.132 26.6893 12.258 26.8153 12.3513C26.9413 12.4447 27.1163 12.4913 27.3403 12.4913ZM33.8786 13.1283C33.4913 13.1283 33.1436 13.0467 32.8356 12.8833C32.5276 12.72 32.2873 12.4937 32.1146 12.2043C31.9419 11.9103 31.8556 11.579 31.8556 11.2103C31.8556 10.8417 31.9419 10.5127 32.1146 10.2233C32.2873 9.93401 32.5253 9.70768 32.8286 9.54435C33.1366 9.38101 33.4866 9.29935 33.8786 9.29935C34.2473 9.29935 34.5693 9.37401 34.8446 9.52335C35.1246 9.67268 35.3346 9.88735 35.4746 10.1673L34.8026 10.5593C34.6953 10.3867 34.5599 10.2583 34.3966 10.1743C34.2379 10.0857 34.0629 10.0413 33.8716 10.0413C33.5449 10.0413 33.2743 10.1487 33.0596 10.3633C32.8449 10.5733 32.7376 10.8557 32.7376 11.2103C32.7376 11.565 32.8426 11.8497 33.0526 12.0643C33.2673 12.2743 33.5403 12.3793 33.8716 12.3793C34.0629 12.3793 34.2379 12.3373 34.3966 12.2533C34.5599 12.1647 34.6953 12.034 34.8026 11.8613L35.4746 12.2533C35.3299 12.5333 35.1176 12.7503 34.8376 12.9043C34.5623 13.0537 34.2426 13.1283 33.8786 13.1283ZM39.829 9.34135V13.0793H38.961V10.0833H37.12V13.0793H36.245V9.34135H39.829ZM44.5096 11.2313C44.5096 11.292 44.505 11.3783 44.4956 11.4903H41.5626C41.614 11.7657 41.747 11.985 41.9616 12.1483C42.181 12.307 42.4516 12.3863 42.7736 12.3863C43.1843 12.3863 43.5226 12.251 43.7886 11.9803L44.2576 12.5193C44.0896 12.72 43.8773 12.8717 43.6206 12.9743C43.364 13.077 43.0746 13.1283 42.7526 13.1283C42.342 13.1283 41.9803 13.0467 41.6676 12.8833C41.355 12.72 41.1123 12.4937 40.9396 12.2043C40.7716 11.9103 40.6876 11.579 40.6876 11.2103C40.6876 10.8463 40.7693 10.5197 40.9326 10.2303C41.1006 9.93635 41.3316 9.70768 41.6256 9.54435C41.9196 9.38101 42.251 9.29935 42.6196 9.29935C42.9836 9.29935 43.308 9.38101 43.5926 9.54435C43.882 9.70301 44.106 9.92935 44.2646 10.2233C44.428 10.5127 44.5096 10.8487 44.5096 11.2313ZM42.6196 9.99935C42.3396 9.99935 42.1016 10.0833 41.9056 10.2513C41.7143 10.4147 41.5976 10.634 41.5556 10.9093H43.6766C43.6393 10.6387 43.525 10.4193 43.3336 10.2513C43.1423 10.0833 42.9043 9.99935 42.6196 9.99935ZM47.5387 9.29935C47.9027 9.29935 48.227 9.37868 48.5117 9.53735C48.801 9.69601 49.0273 9.92001 49.1907 10.2093C49.354 10.4987 49.4357 10.8323 49.4357 11.2103C49.4357 11.5883 49.354 11.9243 49.1907 12.2183C49.0273 12.5077 48.801 12.7317 48.5117 12.8903C48.227 13.049 47.9027 13.1283 47.5387 13.1283C47.0347 13.1283 46.6357 12.9603 46.3417 12.6243V14.4373H45.4667V9.34135H46.2997V9.83135C46.4443 9.65401 46.6217 9.52101 46.8317 9.43235C47.0463 9.34368 47.282 9.29935 47.5387 9.29935ZM47.4407 12.3793C47.7627 12.3793 48.0263 12.272 48.2317 12.0573C48.4417 11.8427 48.5467 11.5603 48.5467 11.2103C48.5467 10.8603 48.4417 10.578 48.2317 10.3633C48.0263 10.1487 47.7627 10.0413 47.4407 10.0413C47.2307 10.0413 47.0417 10.0903 46.8737 10.1883C46.7057 10.2817 46.5727 10.417 46.4747 10.5943C46.3767 10.7717 46.3277 10.977 46.3277 11.2103C46.3277 11.4437 46.3767 11.649 46.4747 11.8263C46.5727 12.0037 46.7057 12.1413 46.8737 12.2393C47.0417 12.3327 47.2307 12.3793 47.4407 12.3793ZM53.8065 11.2313C53.8065 11.292 53.8018 11.3783 53.7925 11.4903H50.8595C50.9108 11.7657 51.0438 11.985 51.2585 12.1483C51.4778 12.307 51.7485 12.3863 52.0705 12.3863C52.4812 12.3863 52.8195 12.251 53.0855 11.9803L53.5545 12.5193C53.3865 12.72 53.1742 12.8717 52.9175 12.9743C52.6608 13.077 52.3715 13.1283 52.0495 13.1283C51.6388 13.1283 51.2772 13.0467 50.9645 12.8833C50.6518 12.72 50.4092 12.4937 50.2365 12.2043C50.0685 11.9103 49.9845 11.579 49.9845 11.2103C49.9845 10.8463 50.0662 10.5197 50.2295 10.2303C50.3975 9.93635 50.6285 9.70768 50.9225 9.54435C51.2165 9.38101 51.5478 9.29935 51.9165 9.29935C52.2805 9.29935 52.6048 9.38101 52.8895 9.54435C53.1788 9.70301 53.4028 9.92935 53.5615 10.2233C53.7248 10.5127 53.8065 10.8487 53.8065 11.2313ZM51.9165 9.99935C51.6365 9.99935 51.3985 10.0833 51.2025 10.2513C51.0112 10.4147 50.8945 10.634 50.8525 10.9093H52.9735C52.9362 10.6387 52.8218 10.4193 52.6305 10.2513C52.4392 10.0833 52.2012 9.99935 51.9165 9.99935ZM58.7057 12.3373V13.9123H57.8867V13.0793H55.0027V13.9123H54.1907V12.3373H54.3657C54.6037 12.328 54.7647 12.1763 54.8487 11.8823C54.9374 11.5837 54.9957 11.1637 55.0237 10.6223L55.0727 9.34135H58.1527V12.3373H58.7057ZM55.8217 10.6853C55.803 11.1147 55.768 11.4647 55.7167 11.7353C55.6654 12.006 55.572 12.2067 55.4367 12.3373H57.2777V10.0833H55.8427L55.8217 10.6853ZM59.4872 9.34135H60.3622V11.8053L62.4272 9.34135H63.2252V13.0793H62.3502V10.6153L60.2922 13.0793H59.4872V9.34135Z" fill="black"/>
<rect x="2.66113" y="1.45911" width="1.37971" height="93.4715" fill="#E51937"/>
<path d="M5.26502 95.9652C5.26502 97.0224 4.40789 97.8796 3.35053 97.8796C2.29316 97.8796 1.43604 97.0224 1.43604 95.9652C1.43604 94.9079 2.29316 94.0508 3.35053 94.0508C4.40789 94.0508 5.26502 94.9079 5.26502 95.9652Z" fill="white" stroke="#E51937"/>
</svg>
