<svg width="279" height="53" fill="none" xmlns="http://www.w3.org/2000/svg"><path d="M45.59 52l-.07-32.48-16.1 26.88h-4.06L9.26 19.94V52H.58V3h7.49l19.46 32.48L46.64 3h7.49l.07 49h-8.61zm37.805.49c-3.78 0-7.186-.817-10.22-2.45-3.033-1.633-5.413-3.897-7.14-6.79-1.68-2.94-2.52-6.253-2.52-9.94 0-3.687.84-6.977 2.52-9.87 1.727-2.893 4.107-5.157 7.14-6.79 3.034-1.633 6.44-2.45 10.22-2.45 3.827 0 7.257.817 10.29 2.45 3.034 1.633 5.39 3.897 7.07 6.79 1.727 2.893 2.59 6.183 2.59 9.87 0 3.687-.863 7-2.59 9.94-1.68 2.893-4.036 5.157-7.07 6.79-3.033 1.633-6.463 2.45-10.29 2.45zm0-7.49c3.22 0 5.88-1.073 7.98-3.22 2.1-2.147 3.15-4.97 3.15-8.47 0-3.5-1.05-6.323-3.15-8.47-2.1-2.147-4.76-3.22-7.98-3.22-3.22 0-5.88 1.073-7.98 3.22-2.053 2.147-3.08 4.97-3.08 8.47 0 3.5 1.027 6.323 3.08 8.47 2.1 2.147 4.76 3.22 7.98 3.22zM148.323.06V52h-8.4v-4.83a13.495 13.495 0 0 1-5.39 3.99c-2.1.887-4.434 1.33-7 1.33-3.594 0-6.837-.793-9.73-2.38-2.847-1.587-5.087-3.827-6.72-6.72-1.634-2.94-2.45-6.3-2.45-10.08 0-3.78.816-7.117 2.45-10.01 1.633-2.893 3.873-5.133 6.72-6.72 2.893-1.587 6.136-2.38 9.73-2.38 2.473 0 4.736.42 6.79 1.26 2.053.84 3.803 2.1 5.25 3.78V.06h8.75zM128.583 45c2.1 0 3.99-.467 5.67-1.4 1.68-.98 3.01-2.357 3.99-4.13.98-1.773 1.47-3.827 1.47-6.16s-.49-4.387-1.47-6.16c-.98-1.773-2.31-3.127-3.99-4.06-1.68-.98-3.57-1.47-5.67-1.47s-3.99.49-5.67 1.47c-1.68.933-3.01 2.287-3.99 4.06-.98 1.773-1.47 3.827-1.47 6.16s.49 4.387 1.47 6.16c.98 1.773 2.31 3.15 3.99 4.13 1.68.933 3.57 1.4 5.67 1.4zm66.326-11.48c0 .607-.046 1.47-.14 2.59h-29.33c.514 2.753 1.844 4.947 3.99 6.58 2.194 1.587 4.9 2.38 8.12 2.38 4.107 0 7.49-1.353 10.15-4.06l4.69 5.39c-1.68 2.007-3.803 3.523-6.37 4.55-2.566 1.027-5.46 1.54-8.68 1.54-4.106 0-7.723-.817-10.85-2.45-3.126-1.633-5.553-3.897-7.28-6.79-1.68-2.94-2.52-6.253-2.52-9.94 0-3.64.817-6.907 2.45-9.8 1.68-2.94 3.99-5.227 6.93-6.86 2.94-1.633 6.254-2.45 9.94-2.45 3.64 0 6.884.817 9.73 2.45 2.894 1.587 5.134 3.85 6.72 6.79 1.634 2.893 2.45 6.253 2.45 10.08zm-18.9-12.32c-2.8 0-5.18.84-7.14 2.52-1.913 1.633-3.08 3.827-3.5 6.58h21.21c-.373-2.707-1.516-4.9-3.43-6.58-1.913-1.68-4.293-2.52-7.14-2.52zM203.314.06h8.75V52h-8.75V.06zm55.61 52.64c-3.78 0-7.443-.537-10.99-1.61-3.5-1.073-6.276-2.497-8.33-4.27l3.15-7.07c2.007 1.587 4.457 2.893 7.35 3.92 2.94.98 5.88 1.47 8.82 1.47 3.64 0 6.347-.583 8.12-1.75 1.82-1.167 2.73-2.707 2.73-4.62 0-1.4-.513-2.543-1.54-3.43-.98-.933-2.24-1.657-3.78-2.17-1.54-.513-3.64-1.097-6.3-1.75-3.733-.887-6.766-1.773-9.1-2.66-2.286-.887-4.27-2.263-5.95-4.13-1.633-1.913-2.45-4.48-2.45-7.7 0-2.707.724-5.157 2.17-7.35 1.494-2.24 3.71-4.013 6.65-5.32 2.987-1.307 6.627-1.96 10.92-1.96 2.987 0 5.927.373 8.82 1.12 2.894.747 5.39 1.82 7.49 3.22l-2.87 7.07a28.289 28.289 0 0 0-6.72-2.87c-2.333-.653-4.596-.98-6.79-.98-3.593 0-6.276.607-8.05 1.82-1.726 1.213-2.59 2.823-2.59 4.83 0 1.4.49 2.543 1.47 3.43 1.027.887 2.31 1.587 3.85 2.1 1.54.513 3.64 1.097 6.3 1.75 3.64.84 6.627 1.727 8.96 2.66a14.74 14.74 0 0 1 5.95 4.13c1.68 1.867 2.52 4.387 2.52 7.56 0 2.707-.746 5.157-2.24 7.35-1.446 2.193-3.663 3.943-6.65 5.25-2.986 1.307-6.626 1.96-10.92 1.96z" fill="#E51937"/></svg>