<svg width="359" height="68" fill="none" xmlns="http://www.w3.org/2000/svg"><path d="M58.33 67l-.09-41.76-20.7 34.56h-5.22l-20.7-34.02V67H.46V4h9.63l25.02 41.76L59.68 4h9.63l.09 63H58.33zm48.607.63c-4.86 0-9.24-1.05-13.14-3.15-3.9-2.1-6.96-5.01-9.18-8.73-2.16-3.78-3.24-8.04-3.24-12.78s1.08-8.97 3.24-12.69c2.22-3.72 5.28-6.63 9.18-8.73 3.9-2.1 8.28-3.15 13.14-3.15 4.92 0 9.33 1.05 13.23 3.15 3.9 2.1 6.93 5.01 9.09 8.73 2.22 3.72 3.33 7.95 3.33 12.69 0 4.74-1.11 9-3.33 12.78-2.16 3.72-5.19 6.63-9.09 8.73-3.9 2.1-8.31 3.15-13.23 3.15zm0-9.63c4.14 0 7.56-1.38 10.26-4.14s4.05-6.39 4.05-10.89c0-4.5-1.35-8.13-4.05-10.89-2.7-2.76-6.12-4.14-10.26-4.14s-7.56 1.38-10.26 4.14c-2.64 2.76-3.96 6.39-3.96 10.89 0 4.5 1.32 8.13 3.96 10.89 2.7 2.76 6.12 4.14 10.26 4.14zM190.415.22V67h-10.8v-6.21c-1.86 2.28-4.17 3.99-6.93 5.13-2.7 1.14-5.7 1.71-9 1.71-4.62 0-8.79-1.02-12.51-3.06-3.66-2.04-6.54-4.92-8.64-8.64-2.1-3.78-3.15-8.1-3.15-12.96 0-4.86 1.05-9.15 3.15-12.87 2.1-3.72 4.98-6.6 8.64-8.64 3.72-2.04 7.89-3.06 12.51-3.06 3.18 0 6.09.54 8.73 1.62a17.56 17.56 0 0 1 6.75 4.86V.22h11.25zM165.035 58c2.7 0 5.13-.6 7.29-1.8 2.16-1.26 3.87-3.03 5.13-5.31 1.26-2.28 1.89-4.92 1.89-7.92s-.63-5.64-1.89-7.92c-1.26-2.28-2.97-4.02-5.13-5.22-2.16-1.26-4.59-1.89-7.29-1.89s-5.13.63-7.29 1.89c-2.16 1.2-3.87 2.94-5.13 5.22-1.26 2.28-1.89 4.92-1.89 7.92s.63 5.64 1.89 7.92c1.26 2.28 2.97 4.05 5.13 5.31 2.16 1.2 4.59 1.8 7.29 1.8zm85.277-14.76c0 .78-.06 1.89-.18 3.33h-37.71c.66 3.54 2.37 6.36 5.13 8.46 2.82 2.04 6.3 3.06 10.44 3.06 5.28 0 9.63-1.74 13.05-5.22l6.03 6.93c-2.16 2.58-4.89 4.53-8.19 5.85-3.3 1.32-7.02 1.98-11.16 1.98-5.28 0-9.93-1.05-13.95-3.15-4.02-2.1-7.14-5.01-9.36-8.73-2.16-3.78-3.24-8.04-3.24-12.78 0-4.68 1.05-8.88 3.15-12.6 2.16-3.78 5.13-6.72 8.91-8.82 3.78-2.1 8.04-3.15 12.78-3.15 4.68 0 8.85 1.05 12.51 3.15 3.72 2.04 6.6 4.95 8.64 8.73 2.1 3.72 3.15 8.04 3.15 12.96zm-24.3-15.84c-3.6 0-6.66 1.08-9.18 3.24-2.46 2.1-3.96 4.92-4.5 8.46h27.27c-.48-3.48-1.95-6.3-4.41-8.46-2.46-2.16-5.52-3.24-9.18-3.24zM261.118.22h11.25V67h-11.25V.22zm71.499 67.68c-4.86 0-9.57-.69-14.13-2.07-4.5-1.38-8.07-3.21-10.71-5.49l4.05-9.09c2.58 2.04 5.73 3.72 9.45 5.04 3.78 1.26 7.56 1.89 11.34 1.89 4.68 0 8.16-.75 10.44-2.25 2.34-1.5 3.51-3.48 3.51-5.94 0-1.8-.66-3.27-1.98-4.41-1.26-1.2-2.88-2.13-4.86-2.79-1.98-.66-4.68-1.41-8.1-2.25-4.8-1.14-8.7-2.28-11.7-3.42-2.94-1.14-5.49-2.91-7.65-5.31-2.1-2.46-3.15-5.76-3.15-9.9 0-3.48.93-6.63 2.79-9.45 1.92-2.88 4.77-5.16 8.55-6.84 3.84-1.68 8.52-2.52 14.04-2.52 3.84 0 7.62.48 11.34 1.44 3.72.96 6.93 2.34 9.63 4.14l-3.69 9.09a36.403 36.403 0 0 0-8.64-3.69c-3-.84-5.91-1.26-8.73-1.26-4.62 0-8.07.78-10.35 2.34-2.22 1.56-3.33 3.63-3.33 6.21 0 1.8.63 3.27 1.89 4.41 1.32 1.14 2.97 2.04 4.95 2.7 1.98.66 4.68 1.41 8.1 2.25 4.68 1.08 8.52 2.22 11.52 3.42 3 1.14 5.55 2.91 7.65 5.31 2.16 2.4 3.24 5.64 3.24 9.72 0 3.48-.96 6.63-2.88 9.45-1.86 2.82-4.71 5.07-8.55 6.75-3.84 1.68-8.52 2.52-14.04 2.52z" fill="#000"/></svg>