<svg width="193" height="285" fill="none" xmlns="http://www.w3.org/2000/svg"><path d="M27.922 9.795c.714.227 1.27.595 1.666 1.105.408.499.612 1.088.612 1.768 0 .714-.232 1.337-.697 1.87-.465.521-1.088.924-1.87 1.207-.77.283-1.615.425-2.533.425a9.243 9.243 0 0 1-2.397-.323 8.13 8.13 0 0 1-2.21-1.003l.714-1.615c.521.351 1.1.623 1.734.816a6.845 6.845 0 0 0 1.887.272c.895 0 1.638-.176 2.227-.527.6-.351.901-.833.901-1.445 0-.521-.215-.918-.646-1.19-.43-.272-1.026-.408-1.785-.408h-2.771V9.013h2.601c.657 0 1.173-.136 1.547-.408.374-.272.561-.64.561-1.105 0-.555-.255-.986-.765-1.292-.499-.306-1.139-.459-1.921-.459-.533 0-1.082.08-1.649.238-.567.147-1.1.368-1.598.663l-.697-1.785a7.846 7.846 0 0 1 1.938-.731 8.59 8.59 0 0 1 2.057-.255c.884 0 1.694.136 2.431.408.748.272 1.343.663 1.785 1.173.442.499.663 1.088.663 1.768 0 .59-.159 1.105-.476 1.547-.317.442-.754.782-1.309 1.02zm7.929-2.975c1.337 0 2.357.323 3.06.969.714.635 1.071 1.598 1.071 2.89V16h-2.006v-1.105c-.26.397-.635.703-1.122.918-.476.204-1.054.306-1.734.306-.68 0-1.275-.113-1.785-.34-.51-.238-.907-.561-1.19-.969a2.537 2.537 0 0 1-.408-1.411c0-.816.3-1.468.901-1.955.612-.499 1.57-.748 2.873-.748h2.346v-.136c0-.635-.193-1.122-.578-1.462-.374-.34-.935-.51-1.683-.51-.51 0-1.014.08-1.513.238-.487.159-.901.38-1.241.663l-.833-1.547c.476-.363 1.048-.64 1.717-.833a7.64 7.64 0 0 1 2.125-.289zm-.289 7.752c.533 0 1.003-.119 1.411-.357.42-.25.714-.6.884-1.054v-1.054h-2.193c-1.224 0-1.836.402-1.836 1.207 0 .385.153.691.459.918.306.227.731.34 1.275.34zm20.429-7.65V16H42.61V6.922h2.126v7.276h3.519V6.922h2.125v7.276h3.485V6.922h2.125zm1.309 7.276v3.672h-1.99V16h-1.512v-1.802H57.3zm1.548-7.276h2.125v5.984l5.015-5.984h1.938V16H65.8v-5.984L60.803 16h-1.955V6.922zm19.127 1.802h-3.179V16h-2.125V8.724h-3.196V6.922h8.5v1.802zM82.9 6.82c1.337 0 2.357.323 3.06.969.714.635 1.07 1.598 1.07 2.89V16h-2.005v-1.105c-.26.397-.635.703-1.122.918-.476.204-1.054.306-1.734.306-.68 0-1.275-.113-1.785-.34-.51-.238-.907-.561-1.19-.969a2.537 2.537 0 0 1-.408-1.411c0-.816.3-1.468.9-1.955.613-.499 1.57-.748 2.874-.748h2.346v-.136c0-.635-.193-1.122-.578-1.462-.374-.34-.935-.51-1.683-.51-.51 0-1.014.08-1.513.238-.488.159-.901.38-1.241.663l-.833-1.547c.476-.363 1.048-.64 1.717-.833A7.64 7.64 0 0 1 82.9 6.82zm-.29 7.752c.534 0 1.004-.119 1.412-.357.42-.25.714-.6.884-1.054v-1.054h-2.193c-1.224 0-1.836.402-1.836 1.207 0 .385.153.691.459.918.306.227.73.34 1.275.34zm15.795 1.547c-.918 0-1.746-.198-2.482-.595a4.416 4.416 0 0 1-1.734-1.649c-.408-.714-.612-1.519-.612-2.414 0-.895.204-1.694.612-2.397a4.416 4.416 0 0 1 1.734-1.649c.736-.397 1.564-.595 2.482-.595.929 0 1.762.198 2.499.595a4.301 4.301 0 0 1 1.717 1.649c.419.703.629 1.502.629 2.397 0 .895-.21 1.7-.629 2.414a4.301 4.301 0 0 1-1.717 1.649c-.737.397-1.57.595-2.5.595zm0-1.819c.782 0 1.428-.26 1.938-.782.51-.521.765-1.207.765-2.057 0-.85-.255-1.536-.765-2.057-.51-.521-1.156-.782-1.938-.782s-1.428.26-1.938.782c-.499.521-.748 1.207-.748 2.057 0 .85.249 1.536.748 2.057.51.521 1.156.782 1.938.782zm13.803-5.576h-3.179V16h-2.125V8.724h-3.196V6.922h8.5v1.802zm14.808-1.802l-4.25 9.809c-.397.986-.879 1.677-1.445 2.074-.567.408-1.253.612-2.057.612a4.22 4.22 0 0 1-1.343-.221c-.442-.147-.805-.351-1.088-.612l.85-1.564c.204.193.442.346.714.459.283.113.566.17.85.17.374 0 .68-.096.918-.289.249-.193.476-.516.68-.969l.153-.357-3.961-9.112h2.21l2.856 6.715 2.873-6.715h2.04zm10.601 7.276v3.825h-1.989V16h-7.004v2.023h-1.972v-3.825h.425c.578-.023.969-.391 1.173-1.105.215-.725.357-1.745.425-3.06l.119-3.111h7.48v7.276h1.343zm-7.004-4.012c-.045 1.043-.13 1.893-.255 2.55-.125.657-.351 1.145-.68 1.462h4.471V8.724h-3.485l-.051 1.462zm12.285-3.366c1.337 0 2.357.323 3.06.969.714.635 1.071 1.598 1.071 2.89V16h-2.006v-1.105c-.261.397-.635.703-1.122.918-.476.204-1.054.306-1.734.306-.68 0-1.275-.113-1.785-.34-.51-.238-.907-.561-1.19-.969a2.537 2.537 0 0 1-.408-1.411c0-.816.3-1.468.901-1.955.612-.499 1.57-.748 2.873-.748h2.346v-.136c0-.635-.193-1.122-.578-1.462-.374-.34-.935-.51-1.683-.51-.51 0-1.014.08-1.513.238a3.71 3.71 0 0 0-1.241.663l-.833-1.547c.476-.363 1.048-.64 1.717-.833a7.641 7.641 0 0 1 2.125-.289zm-.289 7.752c.533 0 1.003-.119 1.411-.357.419-.25.714-.6.884-1.054v-1.054h-2.193c-1.224 0-1.836.402-1.836 1.207 0 .385.153.691.459.918.306.227.731.34 1.275.34zM154.69 6.82c.884 0 1.672.193 2.363.578.703.385 1.253.93 1.649 1.632.397.703.595 1.513.595 2.431 0 .918-.198 1.734-.595 2.448a4.146 4.146 0 0 1-1.649 1.632c-.691.385-1.479.578-2.363.578-1.224 0-2.193-.408-2.907-1.224v4.403h-2.125V6.922h2.023v1.19c.352-.43.782-.754 1.292-.969a4.459 4.459 0 0 1 1.717-.323zm-.238 7.48c.782 0 1.423-.26 1.921-.782.51-.521.765-1.207.765-2.057 0-.85-.255-1.536-.765-2.057-.498-.521-1.139-.782-1.921-.782-.51 0-.969.119-1.377.357a2.46 2.46 0 0 0-.969.986c-.238.43-.357.93-.357 1.496 0 .567.119 1.065.357 1.496.238.43.561.765.969 1.003.408.227.867.34 1.377.34zm10.227-7.48c1.337 0 2.357.323 3.06.969.714.635 1.071 1.598 1.071 2.89V16h-2.006v-1.105c-.261.397-.635.703-1.122.918-.476.204-1.054.306-1.734.306-.68 0-1.275-.113-1.785-.34-.51-.238-.907-.561-1.19-.969a2.537 2.537 0 0 1-.408-1.411c0-.816.3-1.468.901-1.955.612-.499 1.57-.748 2.873-.748h2.346v-.136c0-.635-.193-1.122-.578-1.462-.374-.34-.935-.51-1.683-.51-.51 0-1.014.08-1.513.238a3.71 3.71 0 0 0-1.241.663l-.833-1.547c.476-.363 1.048-.64 1.717-.833a7.641 7.641 0 0 1 2.125-.289zm-.289 7.752c.533 0 1.003-.119 1.411-.357.419-.25.714-.6.884-1.054v-1.054h-2.193c-1.224 0-1.836.402-1.836 1.207 0 .385.153.691.459.918.306.227.731.34 1.275.34zM25.559 31.119c-.94 0-1.785-.198-2.533-.595a4.387 4.387 0 0 1-1.751-1.649c-.42-.714-.629-1.519-.629-2.414 0-.895.21-1.694.629-2.397a4.416 4.416 0 0 1 1.734-1.649c.748-.397 1.598-.595 2.55-.595.895 0 1.677.181 2.346.544a3.52 3.52 0 0 1 1.53 1.564l-1.632.952c-.26-.42-.59-.731-.986-.935a2.57 2.57 0 0 0-1.275-.323c-.793 0-1.45.26-1.972.782-.521.51-.782 1.196-.782 2.057s.255 1.553.765 2.074c.521.51 1.184.765 1.989.765.465 0 .89-.102 1.275-.306a2.64 2.64 0 0 0 .986-.952l1.632.952a3.717 3.717 0 0 1-1.547 1.581c-.669.363-1.445.544-2.329.544zm14.45-9.197V31h-2.107v-7.276H33.43V31h-2.125v-9.078h8.704zm11.368 4.59c0 .147-.011.357-.034.629H44.22c.125.669.448 1.201.97 1.598.532.385 1.19.578 1.971.578.998 0 1.82-.329 2.465-.986l1.14 1.309a3.837 3.837 0 0 1-1.548 1.105c-.623.25-1.326.374-2.108.374-.997 0-1.875-.198-2.635-.595a4.361 4.361 0 0 1-1.768-1.649c-.408-.714-.612-1.519-.612-2.414 0-.884.199-1.677.595-2.38a4.324 4.324 0 0 1 1.683-1.666c.714-.397 1.519-.595 2.414-.595.884 0 1.672.198 2.363.595a4.013 4.013 0 0 1 1.632 1.649c.397.703.595 1.519.595 2.448zm-4.59-2.992c-.68 0-1.258.204-1.734.612-.464.397-.748.93-.85 1.598h5.151c-.09-.657-.368-1.19-.833-1.598-.464-.408-1.042-.612-1.734-.612zm11.946-1.7c.884 0 1.672.193 2.363.578.703.385 1.253.93 1.65 1.632.396.703.594 1.513.594 2.431 0 .918-.198 1.734-.595 2.448a4.152 4.152 0 0 1-1.649 1.632c-.69.385-1.479.578-2.363.578-1.224 0-2.193-.408-2.907-1.224v4.403h-2.125V21.922h2.023v1.19a3.3 3.3 0 0 1 1.292-.969 4.456 4.456 0 0 1 1.717-.323zm-.238 7.48c.782 0 1.423-.26 1.921-.782.51-.521.765-1.207.765-2.057 0-.85-.255-1.536-.765-2.057-.498-.521-1.139-.782-1.92-.782-.51 0-.97.119-1.378.357a2.46 2.46 0 0 0-.969.986c-.238.43-.357.93-.357 1.496 0 .567.12 1.065.357 1.496.238.43.561.765.97 1.003.407.227.866.34 1.376.34zm15.46-2.788c0 .147-.011.357-.034.629h-7.123c.125.669.448 1.201.97 1.598.532.385 1.19.578 1.971.578.998 0 1.82-.329 2.465-.986l1.14 1.309a3.837 3.837 0 0 1-1.548 1.105c-.623.25-1.326.374-2.108.374-.997 0-1.875-.198-2.635-.595a4.361 4.361 0 0 1-1.768-1.649c-.408-.714-.612-1.519-.612-2.414 0-.884.199-1.677.595-2.38a4.324 4.324 0 0 1 1.683-1.666c.714-.397 1.519-.595 2.414-.595.884 0 1.672.198 2.363.595a4.013 4.013 0 0 1 1.632 1.649c.397.703.595 1.519.595 2.448zm-4.59-2.992c-.68 0-1.258.204-1.734.612-.464.397-.748.93-.85 1.598h5.151c-.09-.657-.368-1.19-.833-1.598-.464-.408-1.042-.612-1.734-.612zm16.488 5.678v3.825h-1.989V31H76.86v2.023h-1.972v-3.825h.425c.578-.023.97-.391 1.173-1.105.216-.725.357-1.745.425-3.06l.12-3.111h7.48v7.276h1.342zm-7.004-4.012c-.045 1.043-.13 1.893-.255 2.55-.124.657-.351 1.145-.68 1.462h4.471v-5.474H78.9l-.05 1.462zm8.902-3.264h2.125v5.984l5.015-5.984h1.938V31h-2.125v-5.984L89.706 31h-1.955v-9.078z" fill="#000"/><path fill="#E51937" d="M5 4h4v271H5z"/><circle cx="7" cy="278" r="5.5" fill="#fff" stroke="#E51937" stroke-width="3"/></svg>