<svg width="138" height="204" viewBox="0 0 138 204" fill="none" xmlns="http://www.w3.org/2000/svg">
<path d="M20.6743 9.69443C21.6493 9.28943 22.2493 8.47943 22.2493 7.42943C22.2493 5.56943 20.2543 4.47443 17.9443 4.47443C16.7743 4.47443 15.5293 4.74443 14.4193 5.34443L15.0343 6.91943C15.9493 6.37943 16.9993 6.12443 17.8993 6.12443C19.2193 6.12443 20.2693 6.66443 20.2693 7.66943C20.2693 8.49443 19.5793 9.00443 18.4093 9.00443H16.1143V10.5344H18.5593C19.8793 10.5344 20.7043 10.9994 20.7043 11.9444C20.7043 13.0694 19.4443 13.6844 17.9443 13.6844C16.8793 13.6844 15.6943 13.3694 14.7493 12.7244L14.1193 14.1494C15.3493 14.9444 16.8193 15.3194 18.1843 15.3194C20.5843 15.3194 22.6843 14.1794 22.6843 12.2294C22.6843 11.0144 21.9193 10.0844 20.6743 9.69443ZM27.6705 7.06943C26.3805 7.06943 25.1355 7.39943 24.2805 8.05943L25.0155 9.42443C25.6155 8.92943 26.5455 8.62943 27.4455 8.62943C28.7805 8.62943 29.4405 9.27443 29.4405 10.3694V10.4894H27.3705C24.9405 10.4894 24.0405 11.5394 24.0405 12.8744C24.0405 14.2694 25.1955 15.2744 27.0255 15.2744C28.2255 15.2744 29.0955 14.8844 29.5455 14.1944V15.1694H31.3155V10.4744C31.3155 8.16443 29.9805 7.06943 27.6705 7.06943ZM27.4155 13.9094C26.4555 13.9094 25.8855 13.4744 25.8855 12.7994C25.8855 12.2144 26.2305 11.7344 27.5055 11.7344H29.4405V12.6644C29.1255 13.4894 28.3305 13.9094 27.4155 13.9094ZM45.4407 13.5794V7.15943H43.5657V13.5794H40.4907V7.15943H38.6157V13.5794H35.5107V7.15943H33.6357V15.1694H44.8407V16.8194H46.5957V13.5794H45.4407ZM47.9619 15.1694H49.6869L54.0969 9.88943V15.1694H55.9719V7.15943H54.2619L49.8369 12.4394V7.15943H47.9619V15.1694ZM64.8391 7.15943H57.3391V8.74943H60.1591V15.1694H62.0341V8.74943H64.8391V7.15943ZM69.1842 7.06943C67.8942 7.06943 66.6492 7.39943 65.7942 8.05943L66.5292 9.42443C67.1292 8.92943 68.0592 8.62943 68.9592 8.62943C70.2942 8.62943 70.9542 9.27443 70.9542 10.3694V10.4894H68.8842C66.4542 10.4894 65.5542 11.5394 65.5542 12.8744C65.5542 14.2694 66.7092 15.2744 68.5392 15.2744C69.7392 15.2744 70.6092 14.8844 71.0592 14.1944V15.1694H72.8292V10.4744C72.8292 8.16443 71.4942 7.06943 69.1842 7.06943ZM68.9292 13.9094C67.9692 13.9094 67.3992 13.4744 67.3992 12.7994C67.3992 12.2144 67.7442 11.7344 69.0192 11.7344H70.9542V12.6644C70.6392 13.4894 69.8442 13.9094 68.9292 13.9094ZM82.8649 15.2744C85.3549 15.2744 87.1399 13.5644 87.1399 11.1644C87.1399 8.76443 85.3549 7.06943 82.8649 7.06943C80.4049 7.06943 78.6049 8.76443 78.6049 11.1644C78.6049 13.5644 80.4049 15.2744 82.8649 15.2744ZM82.8649 13.6694C81.5149 13.6694 80.4949 12.6944 80.4949 11.1644C80.4949 9.63443 81.5149 8.65943 82.8649 8.65943C84.2299 8.65943 85.2499 9.63443 85.2499 11.1644C85.2499 12.6944 84.2299 13.6694 82.8649 13.6694ZM95.0442 7.15943H87.5442V8.74943H90.3642V15.1694H92.2392V8.74943H95.0442V7.15943ZM20.7043 20.1594L18.1693 26.0844L15.6493 20.1594H13.6993L17.1943 28.1994L17.0593 28.5144C16.6993 29.3094 16.3093 29.6244 15.6493 29.6244C15.1393 29.6244 14.6293 29.4144 14.2693 29.0694L13.5193 30.4494C14.0293 30.9144 14.8693 31.1844 15.6643 31.1844C16.9993 31.1844 18.0193 30.6294 18.7543 28.8144L22.5043 20.1594H20.7043ZM30.6736 26.5794V20.1594H24.0736L23.9686 22.9044C23.8786 24.7794 23.6836 26.5344 22.5586 26.5794H22.1836V29.9544H23.9236V28.1694H30.1036V29.9544H31.8586V26.5794H30.6736ZM25.6786 23.0394L25.7236 21.7494H28.7986V26.5794H24.8536C25.4986 25.9644 25.6186 24.5394 25.6786 23.0394ZM36.5182 20.0694C35.2282 20.0694 33.9832 20.3994 33.1282 21.0594L33.8632 22.4244C34.4632 21.9294 35.3932 21.6294 36.2932 21.6294C37.6282 21.6294 38.2882 22.2744 38.2882 23.3694V23.4894H36.2182C33.7882 23.4894 32.8882 24.5394 32.8882 25.8744C32.8882 27.2694 34.0432 28.2744 35.8732 28.2744C37.0732 28.2744 37.9432 27.8844 38.3932 27.1944V28.1694H40.1632V23.4744C40.1632 21.1644 38.8282 20.0694 36.5182 20.0694ZM36.2632 26.9094C35.3032 26.9094 34.7332 26.4744 34.7332 25.7994C34.7332 25.2144 35.0782 24.7344 36.3532 24.7344H38.2882V25.6644C37.9732 26.4894 37.1782 26.9094 36.2632 26.9094ZM46.9234 20.0694C45.8284 20.0694 44.8984 20.4444 44.2684 21.2094V20.1594H42.4834V31.0794H44.3584V27.1944C45.0034 27.9294 45.9034 28.2744 46.9234 28.2744C49.2634 28.2744 50.9884 26.6544 50.9884 24.1644C50.9884 21.6894 49.2634 20.0694 46.9234 20.0694ZM46.7134 26.6694C45.3634 26.6694 44.3284 25.6944 44.3284 24.1644C44.3284 22.6344 45.3634 21.6594 46.7134 21.6594C48.0634 21.6594 49.0834 22.6344 49.0834 24.1644C49.0834 25.6944 48.0634 26.6694 46.7134 26.6694ZM55.7369 20.0694C54.4469 20.0694 53.2019 20.3994 52.3469 21.0594L53.0819 22.4244C53.6819 21.9294 54.6119 21.6294 55.5119 21.6294C56.8469 21.6294 57.5069 22.2744 57.5069 23.3694V23.4894H55.4369C53.0069 23.4894 52.1069 24.5394 52.1069 25.8744C52.1069 27.2694 53.2619 28.2744 55.0919 28.2744C56.2919 28.2744 57.1619 27.8844 57.6119 27.1944V28.1694H59.3819V23.4744C59.3819 21.1644 58.0469 20.0694 55.7369 20.0694ZM55.4819 26.9094C54.5219 26.9094 53.9519 26.4744 53.9519 25.7994C53.9519 25.2144 54.2969 24.7344 55.5719 24.7344H57.5069V25.6644C57.1919 26.4894 56.3969 26.9094 55.4819 26.9094ZM69.4926 28.2744C71.0526 28.2744 72.2976 27.5994 72.9126 26.3994L71.4726 25.5594C70.9926 26.3244 70.2726 26.6694 69.4776 26.6694C68.0976 26.6694 67.0476 25.7244 67.0476 24.1644C67.0476 22.6194 68.0976 21.6594 69.4776 21.6594C70.2726 21.6594 70.9926 22.0044 71.4726 22.7694L72.9126 21.9294C72.2976 20.7144 71.0526 20.0694 69.4926 20.0694C66.9576 20.0694 65.1576 21.7644 65.1576 24.1644C65.1576 26.5644 66.9576 28.2744 69.4926 28.2744ZM74.5635 20.1594V28.1694H76.4385V21.7494H80.3835V28.1694H82.2435V20.1594H74.5635ZM92.2734 24.2094C92.2734 21.7044 90.5634 20.0694 88.2234 20.0694C85.8384 20.0694 84.0834 21.7794 84.0834 24.1644C84.0834 26.5494 85.8234 28.2744 88.5084 28.2744C89.8884 28.2744 91.0134 27.8244 91.7334 26.9694L90.7284 25.8144C90.1584 26.3994 89.4534 26.6844 88.5534 26.6844C87.1584 26.6844 86.1834 25.9344 85.9584 24.7644H92.2434C92.2584 24.5844 92.2734 24.3594 92.2734 24.2094ZM88.2234 21.5694C89.4534 21.5694 90.3384 22.3644 90.4884 23.5194H85.9434C86.1234 22.3494 87.0084 21.5694 88.2234 21.5694ZM98.7642 20.0694C97.6692 20.0694 96.7392 20.4444 96.1092 21.2094V20.1594H94.3242V31.0794H96.1992V27.1944C96.8442 27.9294 97.7442 28.2744 98.7642 28.2744C101.104 28.2744 102.829 26.6544 102.829 24.1644C102.829 21.6894 101.104 20.0694 98.7642 20.0694ZM98.5542 26.6694C97.2042 26.6694 96.1692 25.6944 96.1692 24.1644C96.1692 22.6344 97.2042 21.6594 98.5542 21.6594C99.9042 21.6594 100.924 22.6344 100.924 24.1644C100.924 25.6944 99.9042 26.6694 98.5542 26.6694ZM112.195 24.2094C112.195 21.7044 110.485 20.0694 108.145 20.0694C105.76 20.0694 104.005 21.7794 104.005 24.1644C104.005 26.5494 105.745 28.2744 108.43 28.2744C109.81 28.2744 110.935 27.8244 111.655 26.9694L110.65 25.8144C110.08 26.3994 109.375 26.6844 108.475 26.6844C107.08 26.6844 106.105 25.9344 105.88 24.7644H112.165C112.18 24.5844 112.195 24.3594 112.195 24.2094ZM108.145 21.5694C109.375 21.5694 110.26 22.3644 110.41 23.5194H105.865C106.045 22.3494 106.93 21.5694 108.145 21.5694ZM121.509 26.5794V20.1594H114.909L114.804 22.9044C114.714 24.7794 114.519 26.5344 113.394 26.5794H113.019V29.9544H114.759V28.1694H120.939V29.9544H122.694V26.5794H121.509ZM116.514 23.0394L116.559 21.7494H119.634V26.5794H115.689C116.334 25.9644 116.454 24.5394 116.514 23.0394ZM124.368 28.1694H126.093L130.503 22.8894V28.1694H132.378V20.1594H130.668L126.243 25.4394V20.1594H124.368V28.1694Z" fill="black"/>
<rect x="4.50281" y="3.02991" width="2.86043" height="193.794" fill="#E51937"/>
<circle cx="5.933" cy="198.97" r="3.50575" fill="white" stroke="#E51937" stroke-width="3"/>
</svg>
