<svg width="136" height="99" viewBox="0 0 136 99" fill="none" xmlns="http://www.w3.org/2000/svg">
<path d="M18.99 10.3694C19.965 9.96436 20.565 9.15436 20.565 8.10436C20.565 6.24436 18.57 5.14936 16.26 5.14936C15.09 5.14936 13.845 5.41936 12.735 6.01936L13.35 7.59436C14.265 7.05436 15.315 6.79936 16.215 6.79936C17.535 6.79936 18.585 7.33936 18.585 8.34436C18.585 9.16936 17.895 9.67936 16.725 9.67936H14.43V11.2094H16.875C18.195 11.2094 19.02 11.6744 19.02 12.6194C19.02 13.7444 17.76 14.3594 16.26 14.3594C15.195 14.3594 14.01 14.0444 13.065 13.3994L12.435 14.8244C13.665 15.6194 15.135 15.9944 16.5 15.9944C18.9 15.9944 21 14.8544 21 12.9044C21 11.6894 20.235 10.7594 18.99 10.3694ZM25.9862 7.74436C24.6962 7.74436 23.4512 8.07436 22.5962 8.73436L23.3312 10.0994C23.9312 9.60436 24.8612 9.30436 25.7612 9.30436C27.0962 9.30436 27.7562 9.94936 27.7562 11.0444V11.1644H25.6862C23.2562 11.1644 22.3562 12.2144 22.3562 13.5494C22.3562 14.9444 23.5112 15.9494 25.3412 15.9494C26.5412 15.9494 27.4112 15.5594 27.8612 14.8694V15.8444H29.6312V11.1494C29.6312 8.83936 28.2962 7.74436 25.9862 7.74436ZM25.7312 14.5844C24.7712 14.5844 24.2012 14.1494 24.2012 13.4744C24.2012 12.8894 24.5462 12.4094 25.8212 12.4094H27.7562V13.3394C27.4412 14.1644 26.6462 14.5844 25.7312 14.5844ZM43.7564 14.2544V7.83436H41.8814V14.2544H38.8064V7.83436H36.9314V14.2544H33.8264V7.83436H31.9514V15.8444H43.1564V17.4944H44.9114V14.2544H43.7564ZM46.2776 15.8444H48.0026L52.4126 10.5644V15.8444H54.2876V7.83436H52.5776L48.1526 13.1144V7.83436H46.2776V15.8444ZM63.1548 7.83436H55.6548V9.42436H58.4748V15.8444H60.3498V9.42436H63.1548V7.83436ZM67.4999 7.74436C66.2099 7.74436 64.9649 8.07436 64.1099 8.73436L64.8449 10.0994C65.4449 9.60436 66.3749 9.30436 67.2749 9.30436C68.6099 9.30436 69.2699 9.94936 69.2699 11.0444V11.1644H67.1999C64.7699 11.1644 63.8699 12.2144 63.8699 13.5494C63.8699 14.9444 65.0249 15.9494 66.8549 15.9494C68.0549 15.9494 68.9249 15.5594 69.3749 14.8694V15.8444H71.1449V11.1494C71.1449 8.83936 69.8099 7.74436 67.4999 7.74436ZM67.2449 14.5844C66.2849 14.5844 65.7149 14.1494 65.7149 13.4744C65.7149 12.8894 66.0599 12.4094 67.3349 12.4094H69.2699V13.3394C68.9549 14.1644 68.1599 14.5844 67.2449 14.5844ZM81.1806 15.9494C83.6706 15.9494 85.4556 14.2394 85.4556 11.8394C85.4556 9.43936 83.6706 7.74436 81.1806 7.74436C78.7206 7.74436 76.9206 9.43936 76.9206 11.8394C76.9206 14.2394 78.7206 15.9494 81.1806 15.9494ZM81.1806 14.3444C79.8306 14.3444 78.8106 13.3694 78.8106 11.8394C78.8106 10.3094 79.8306 9.33436 81.1806 9.33436C82.5456 9.33436 83.5656 10.3094 83.5656 11.8394C83.5656 13.3694 82.5456 14.3444 81.1806 14.3444ZM93.3599 7.83436H85.8599V9.42436H88.6799V15.8444H90.5549V9.42436H93.3599V7.83436ZM19.02 20.8344L16.485 26.7594L13.965 20.8344H12.015L15.51 28.8744L15.375 29.1894C15.015 29.9844 14.625 30.2994 13.965 30.2994C13.455 30.2994 12.945 30.0894 12.585 29.7444L11.835 31.1244C12.345 31.5894 13.185 31.8594 13.98 31.8594C15.315 31.8594 16.335 31.3044 17.07 29.4894L20.82 20.8344H19.02ZM28.9893 27.2544V20.8344H22.3893L22.2843 23.5794C22.1943 25.4544 21.9993 27.2094 20.8743 27.2544H20.4993V30.6294H22.2393V28.8444H28.4193V30.6294H30.1743V27.2544H28.9893ZM23.9943 23.7144L24.0393 22.4244H27.1143V27.2544H23.1693C23.8143 26.6394 23.9343 25.2144 23.9943 23.7144ZM34.8339 20.7444C33.5439 20.7444 32.2989 21.0744 31.4439 21.7344L32.1789 23.0994C32.7789 22.6044 33.7089 22.3044 34.6089 22.3044C35.9439 22.3044 36.6039 22.9494 36.6039 24.0444V24.1644H34.5339C32.1039 24.1644 31.2039 25.2144 31.2039 26.5494C31.2039 27.9444 32.3589 28.9494 34.1889 28.9494C35.3889 28.9494 36.2589 28.5594 36.7089 27.8694V28.8444H38.4789V24.1494C38.4789 21.8394 37.1439 20.7444 34.8339 20.7444ZM34.5789 27.5844C33.6189 27.5844 33.0489 27.1494 33.0489 26.4744C33.0489 25.8894 33.3939 25.4094 34.6689 25.4094H36.6039V26.3394C36.2889 27.1644 35.4939 27.5844 34.5789 27.5844ZM45.2391 20.7444C44.1441 20.7444 43.2141 21.1194 42.5841 21.8844V20.8344H40.7991V31.7544H42.6741V27.8694C43.3191 28.6044 44.2191 28.9494 45.2391 28.9494C47.5791 28.9494 49.3041 27.3294 49.3041 24.8394C49.3041 22.3644 47.5791 20.7444 45.2391 20.7444ZM45.0291 27.3444C43.6791 27.3444 42.6441 26.3694 42.6441 24.8394C42.6441 23.3094 43.6791 22.3344 45.0291 22.3344C46.3791 22.3344 47.3991 23.3094 47.3991 24.8394C47.3991 26.3694 46.3791 27.3444 45.0291 27.3444ZM54.0526 20.7444C52.7626 20.7444 51.5176 21.0744 50.6626 21.7344L51.3976 23.0994C51.9976 22.6044 52.9276 22.3044 53.8276 22.3044C55.1626 22.3044 55.8226 22.9494 55.8226 24.0444V24.1644H53.7526C51.3226 24.1644 50.4226 25.2144 50.4226 26.5494C50.4226 27.9444 51.5776 28.9494 53.4076 28.9494C54.6076 28.9494 55.4776 28.5594 55.9276 27.8694V28.8444H57.6976V24.1494C57.6976 21.8394 56.3626 20.7444 54.0526 20.7444ZM53.7976 27.5844C52.8376 27.5844 52.2676 27.1494 52.2676 26.4744C52.2676 25.8894 52.6126 25.4094 53.8876 25.4094H55.8226V26.3394C55.5076 27.1644 54.7126 27.5844 53.7976 27.5844ZM67.8083 28.9494C69.3683 28.9494 70.6133 28.2744 71.2283 27.0744L69.7883 26.2344C69.3083 26.9994 68.5883 27.3444 67.7933 27.3444C66.4133 27.3444 65.3633 26.3994 65.3633 24.8394C65.3633 23.2944 66.4133 22.3344 67.7933 22.3344C68.5883 22.3344 69.3083 22.6794 69.7883 23.4444L71.2283 22.6044C70.6133 21.3894 69.3683 20.7444 67.8083 20.7444C65.2733 20.7444 63.4733 22.4394 63.4733 24.8394C63.4733 27.2394 65.2733 28.9494 67.8083 28.9494ZM77.1409 21.2244C75.9109 21.2244 74.8609 21.7194 74.1559 22.5744C74.3209 20.8344 75.2359 19.9344 77.1709 19.5294L80.5459 18.8394L80.2759 17.1594L76.5559 17.9544C73.7059 18.5544 72.3559 20.4294 72.3559 23.6394C72.3559 27.1344 73.9759 28.9944 76.7209 28.9944C79.2409 28.9944 80.9959 27.4194 80.9959 25.0644C80.9959 22.7994 79.4359 21.2244 77.1409 21.2244ZM76.7659 27.4794C75.3859 27.4794 74.4259 26.5044 74.4259 25.1094C74.4259 23.7144 75.3709 22.8144 76.7659 22.8144C78.1459 22.8144 79.0759 23.7144 79.0759 25.1094C79.0759 26.4894 78.1459 27.4794 76.7659 27.4794ZM86.3808 28.9494C88.8708 28.9494 90.6558 27.2394 90.6558 24.8394C90.6558 22.4394 88.8708 20.7444 86.3808 20.7444C83.9208 20.7444 82.1208 22.4394 82.1208 24.8394C82.1208 27.2394 83.9208 28.9494 86.3808 28.9494ZM86.3808 27.3444C85.0308 27.3444 84.0108 26.3694 84.0108 24.8394C84.0108 23.3094 85.0308 22.3344 86.3808 22.3344C87.7458 22.3344 88.7658 23.3094 88.7658 24.8394C88.7658 26.3694 87.7458 27.3444 86.3808 27.3444ZM98.253 28.8444H100.458L97.353 24.6894L100.263 20.8344H98.253L95.883 24.0744H94.383V20.8344H92.508V28.8444H94.383V25.6344H95.838L98.253 28.8444ZM107.086 20.8344L104.551 26.7594L102.031 20.8344H100.081L103.576 28.8744L103.441 29.1894C103.081 29.9844 102.691 30.2994 102.031 30.2994C101.521 30.2994 101.011 30.0894 100.651 29.7444L99.9014 31.1244C100.411 31.5894 101.251 31.8594 102.046 31.8594C103.381 31.8594 104.401 31.3044 105.136 29.4894L108.886 20.8344H107.086Z" fill="black"/>
<rect x="3.73096" y="4.41992" width="2.86043" height="87.2431" fill="#E51937"/>
<circle cx="5.16103" cy="93.8084" r="3.50575" fill="white" stroke="#E51937" stroke-width="3"/>
</svg>
