<svg width="66" height="48" viewBox="0 0 66 48" fill="none" xmlns="http://www.w3.org/2000/svg">
<path d="M8.95194 4.96856C9.24594 5.06189 9.47461 5.21356 9.63794 5.42356C9.80594 5.62889 9.88994 5.87156 9.88994 6.15156C9.88994 6.44556 9.79427 6.70223 9.60294 6.92156C9.41161 7.13623 9.15494 7.30189 8.83294 7.41856C8.51561 7.53523 8.16794 7.59356 7.78994 7.59356C7.46327 7.59356 7.13427 7.54923 6.80294 7.46056C6.47627 7.36723 6.17294 7.22956 5.89294 7.04756L6.18694 6.38256C6.40161 6.52723 6.63961 6.63923 6.90094 6.71856C7.16227 6.79323 7.42127 6.83056 7.67794 6.83056C8.04661 6.83056 8.35227 6.75823 8.59494 6.61356C8.84227 6.46889 8.96594 6.27056 8.96594 6.01856C8.96594 5.80389 8.87727 5.64056 8.69994 5.52856C8.52261 5.41656 8.27761 5.36056 7.96494 5.36056H6.82394V4.64656H7.89494C8.16561 4.64656 8.37794 4.59056 8.53194 4.47856C8.68594 4.36656 8.76294 4.21489 8.76294 4.02356C8.76294 3.79489 8.65794 3.61756 8.44794 3.49156C8.24261 3.36556 7.97894 3.30256 7.65694 3.30256C7.43761 3.30256 7.21127 3.33523 6.97794 3.40056C6.74461 3.46123 6.52527 3.55223 6.31994 3.67356L6.03294 2.93856C6.28494 2.80323 6.55094 2.70289 6.83094 2.63756C7.11561 2.56756 7.39794 2.53256 7.67794 2.53256C8.04194 2.53256 8.37561 2.58856 8.67894 2.70056C8.98694 2.81256 9.23194 2.97356 9.41394 3.18356C9.59594 3.38889 9.68694 3.63156 9.68694 3.91156C9.68694 4.15423 9.62161 4.36656 9.49094 4.54856C9.36028 4.73056 9.18061 4.87056 8.95194 4.96856ZM12.2168 3.74356C12.7675 3.74356 13.1875 3.87656 13.4768 4.14256C13.7708 4.40389 13.9178 4.80056 13.9178 5.33256V7.52356H13.0918V7.06856C12.9845 7.23189 12.8305 7.35789 12.6298 7.44656C12.4338 7.53056 12.1958 7.57256 11.9158 7.57256C11.6358 7.57256 11.3908 7.52589 11.1808 7.43256C10.9708 7.33456 10.8075 7.20156 10.6908 7.03356C10.5788 6.86089 10.5228 6.66723 10.5228 6.45256C10.5228 6.11656 10.6465 5.84823 10.8938 5.64756C11.1458 5.44223 11.5402 5.33956 12.0768 5.33956H13.0428V5.28356C13.0428 5.02223 12.9635 4.82156 12.8048 4.68156C12.6508 4.54156 12.4198 4.47156 12.1118 4.47156C11.9018 4.47156 11.6942 4.50423 11.4888 4.56956C11.2882 4.63489 11.1178 4.72589 10.9778 4.84256L10.6348 4.20556C10.8308 4.05623 11.0665 3.94189 11.3418 3.86256C11.6172 3.78323 11.9088 3.74356 12.2168 3.74356ZM12.0978 6.93556C12.3172 6.93556 12.5108 6.88656 12.6788 6.78856C12.8515 6.68589 12.9728 6.54123 13.0428 6.35456V5.92056H12.1398C11.6358 5.92056 11.3838 6.08623 11.3838 6.41756C11.3838 6.57623 11.4468 6.70223 11.5728 6.79556C11.6988 6.88889 11.8738 6.93556 12.0978 6.93556ZM20.5096 3.78556V7.52356H15.0006V3.78556H15.8756V6.78156H17.3246V3.78556H18.1996V6.78156H19.6346V3.78556H20.5096ZM21.0486 6.78156V8.29356H20.2296V7.52356H19.6066V6.78156H21.0486ZM21.6861 3.78556H22.5611V6.24956L24.6261 3.78556H25.4241V7.52356H24.5491V5.05956L22.4911 7.52356H21.6861V3.78556ZM29.5622 4.52756H28.2532V7.52356H27.3782V4.52756H26.0622V3.78556H29.5622V4.52756ZM31.5899 3.74356C32.1406 3.74356 32.5606 3.87656 32.8499 4.14256C33.1439 4.40389 33.2909 4.80056 33.2909 5.33256V7.52356H32.4649V7.06856C32.3576 7.23189 32.2036 7.35789 32.0029 7.44656C31.8069 7.53056 31.5689 7.57256 31.2889 7.57256C31.0089 7.57256 30.7639 7.52589 30.5539 7.43256C30.3439 7.33456 30.1806 7.20156 30.0639 7.03356C29.9519 6.86089 29.8959 6.66723 29.8959 6.45256C29.8959 6.11656 30.0196 5.84823 30.2669 5.64756C30.5189 5.44223 30.9132 5.33956 31.4499 5.33956H32.4159V5.28356C32.4159 5.02223 32.3366 4.82156 32.1779 4.68156C32.0239 4.54156 31.7929 4.47156 31.4849 4.47156C31.2749 4.47156 31.0672 4.50423 30.8619 4.56956C30.6612 4.63489 30.4909 4.72589 30.3509 4.84256L30.0079 4.20556C30.2039 4.05623 30.4396 3.94189 30.7149 3.86256C30.9902 3.78323 31.2819 3.74356 31.5899 3.74356ZM31.4709 6.93556C31.6902 6.93556 31.8839 6.88656 32.0519 6.78856C32.2246 6.68589 32.3459 6.54123 32.4159 6.35456V5.92056H31.5129C31.0089 5.92056 30.7569 6.08623 30.7569 6.41756C30.7569 6.57623 30.8199 6.70223 30.9459 6.79556C31.0719 6.88889 31.2469 6.93556 31.4709 6.93556ZM37.9742 7.57256C37.5962 7.57256 37.2555 7.49089 36.9522 7.32756C36.6489 7.16423 36.4109 6.93789 36.2382 6.64856C36.0702 6.35456 35.9862 6.02323 35.9862 5.65456C35.9862 5.28589 36.0702 4.95689 36.2382 4.66756C36.4109 4.37823 36.6489 4.15189 36.9522 3.98856C37.2555 3.82523 37.5962 3.74356 37.9742 3.74356C38.3569 3.74356 38.6999 3.82523 39.0032 3.98856C39.3065 4.15189 39.5422 4.37823 39.7102 4.66756C39.8829 4.95689 39.9692 5.28589 39.9692 5.65456C39.9692 6.02323 39.8829 6.35456 39.7102 6.64856C39.5422 6.93789 39.3065 7.16423 39.0032 7.32756C38.6999 7.49089 38.3569 7.57256 37.9742 7.57256ZM37.9742 6.82356C38.2962 6.82356 38.5622 6.71623 38.7722 6.50156C38.9822 6.28689 39.0872 6.00456 39.0872 5.65456C39.0872 5.30456 38.9822 5.02223 38.7722 4.80756C38.5622 4.59289 38.2962 4.48556 37.9742 4.48556C37.6522 4.48556 37.3862 4.59289 37.1762 4.80756C36.9709 5.02223 36.8682 5.30456 36.8682 5.65456C36.8682 6.00456 36.9709 6.28689 37.1762 6.50156C37.3862 6.71623 37.6522 6.82356 37.9742 6.82356ZM43.6579 4.52756H42.3489V7.52356H41.4739V4.52756H40.1579V3.78556H43.6579V4.52756ZM9.80594 9.78556L8.05594 13.8246C7.89261 14.2306 7.69427 14.5152 7.46094 14.6786C7.22761 14.8466 6.94527 14.9306 6.61394 14.9306C6.42727 14.9306 6.24294 14.9002 6.06094 14.8396C5.87894 14.7789 5.72961 14.6949 5.61294 14.5876L5.96294 13.9436C6.04694 14.0229 6.14494 14.0859 6.25694 14.1326C6.37361 14.1792 6.49027 14.2026 6.60694 14.2026C6.76094 14.2026 6.88694 14.1629 6.98494 14.0836C7.08761 14.0042 7.18094 13.8712 7.26494 13.6846L7.32794 13.5376L5.69694 9.78556H6.60694L7.78294 12.5506L8.96594 9.78556H9.80594ZM14.1713 12.7816V14.3566H13.3523V13.5236H10.4683V14.3566H9.65626V12.7816H9.83126C10.0693 12.7722 10.2303 12.6206 10.3143 12.3266C10.4029 12.0279 10.4613 11.6079 10.4893 11.0666L10.5383 9.78556H13.6183V12.7816H14.1713ZM11.2873 11.1296C11.2686 11.5589 11.2336 11.9089 11.1823 12.1796C11.1309 12.4502 11.0376 12.6509 10.9023 12.7816H12.7433V10.5276H11.3083L11.2873 11.1296ZM16.3457 9.74356C16.8964 9.74356 17.3164 9.87656 17.6057 10.1426C17.8997 10.4039 18.0467 10.8006 18.0467 11.3326V13.5236H17.2207V13.0686C17.1134 13.2319 16.9594 13.3579 16.7587 13.4466C16.5627 13.5306 16.3247 13.5726 16.0447 13.5726C15.7647 13.5726 15.5197 13.5259 15.3097 13.4326C15.0997 13.3346 14.9364 13.2016 14.8197 13.0336C14.7077 12.8609 14.6517 12.6672 14.6517 12.4526C14.6517 12.1166 14.7754 11.8482 15.0227 11.6476C15.2747 11.4422 15.6691 11.3396 16.2057 11.3396H17.1717V11.2836C17.1717 11.0222 17.0924 10.8216 16.9337 10.6816C16.7797 10.5416 16.5487 10.4716 16.2407 10.4716C16.0307 10.4716 15.8231 10.5042 15.6177 10.5696C15.4171 10.6349 15.2467 10.7259 15.1067 10.8426L14.7637 10.2056C14.9597 10.0562 15.1954 9.94189 15.4707 9.86256C15.7461 9.78323 16.0377 9.74356 16.3457 9.74356ZM16.2267 12.9356C16.4461 12.9356 16.6397 12.8866 16.8077 12.7886C16.9804 12.6859 17.1017 12.5412 17.1717 12.3546V11.9206H16.2687C15.7647 11.9206 15.5127 12.0862 15.5127 12.4176C15.5127 12.5762 15.5757 12.7022 15.7017 12.7956C15.8277 12.8889 16.0027 12.9356 16.2267 12.9356ZM21.2015 9.74356C21.5655 9.74356 21.8898 9.82289 22.1745 9.98156C22.4638 10.1402 22.6902 10.3642 22.8535 10.6536C23.0168 10.9429 23.0985 11.2766 23.0985 11.6546C23.0985 12.0326 23.0168 12.3686 22.8535 12.6626C22.6902 12.9519 22.4638 13.1759 22.1745 13.3346C21.8898 13.4932 21.5655 13.5726 21.2015 13.5726C20.6975 13.5726 20.2985 13.4046 20.0045 13.0686V14.8816H19.1295V9.78556H19.9625V10.2756C20.1072 10.0982 20.2845 9.96523 20.4945 9.87656C20.7092 9.78789 20.9448 9.74356 21.2015 9.74356ZM21.1035 12.8236C21.4255 12.8236 21.6892 12.7162 21.8945 12.5016C22.1045 12.2869 22.2095 12.0046 22.2095 11.6546C22.2095 11.3046 22.1045 11.0222 21.8945 10.8076C21.6892 10.5929 21.4255 10.4856 21.1035 10.4856C20.8935 10.4856 20.7045 10.5346 20.5365 10.6326C20.3685 10.7259 20.2355 10.8612 20.1375 11.0386C20.0395 11.2159 19.9905 11.4212 19.9905 11.6546C19.9905 11.8879 20.0395 12.0932 20.1375 12.2706C20.2355 12.4479 20.3685 12.5856 20.5365 12.6836C20.7045 12.7769 20.8935 12.8236 21.1035 12.8236ZM25.3145 9.74356C25.8652 9.74356 26.2852 9.87656 26.5745 10.1426C26.8685 10.4039 27.0155 10.8006 27.0155 11.3326V13.5236H26.1895V13.0686C26.0822 13.2319 25.9282 13.3579 25.7275 13.4466C25.5315 13.5306 25.2935 13.5726 25.0135 13.5726C24.7335 13.5726 24.4885 13.5259 24.2785 13.4326C24.0685 13.3346 23.9052 13.2016 23.7885 13.0336C23.6765 12.8609 23.6205 12.6672 23.6205 12.4526C23.6205 12.1166 23.7442 11.8482 23.9915 11.6476C24.2435 11.4422 24.6378 11.3396 25.1745 11.3396H26.1405V11.2836C26.1405 11.0222 26.0612 10.8216 25.9025 10.6816C25.7485 10.5416 25.5175 10.4716 25.2095 10.4716C24.9995 10.4716 24.7918 10.5042 24.5865 10.5696C24.3858 10.6349 24.2155 10.7259 24.0755 10.8426L23.7325 10.2056C23.9285 10.0562 24.1642 9.94189 24.4395 9.86256C24.7148 9.78323 25.0065 9.74356 25.3145 9.74356ZM25.1955 12.9356C25.4148 12.9356 25.6085 12.8866 25.7765 12.7886C25.9492 12.6859 26.0705 12.5412 26.1405 12.3546V11.9206H25.2375C24.7335 11.9206 24.4815 12.0862 24.4815 12.4176C24.4815 12.5762 24.5445 12.7022 24.6705 12.7956C24.7965 12.8889 24.9715 12.9356 25.1955 12.9356ZM31.7338 13.5726C31.3465 13.5726 30.9988 13.4909 30.6908 13.3276C30.3828 13.1642 30.1425 12.9379 29.9698 12.6486C29.7972 12.3546 29.7108 12.0232 29.7108 11.6546C29.7108 11.2859 29.7972 10.9569 29.9698 10.6676C30.1425 10.3782 30.3805 10.1519 30.6838 9.98856C30.9918 9.82523 31.3418 9.74356 31.7338 9.74356C32.1025 9.74356 32.4245 9.81823 32.6998 9.96756C32.9798 10.1169 33.1898 10.3316 33.3298 10.6116L32.6578 11.0036C32.5505 10.8309 32.4152 10.7026 32.2518 10.6186C32.0932 10.5299 31.9182 10.4856 31.7268 10.4856C31.4002 10.4856 31.1295 10.5929 30.9148 10.8076C30.7002 11.0176 30.5928 11.2999 30.5928 11.6546C30.5928 12.0092 30.6978 12.2939 30.9078 12.5086C31.1225 12.7186 31.3955 12.8236 31.7268 12.8236C31.9182 12.8236 32.0932 12.7816 32.2518 12.6976C32.4152 12.6089 32.5505 12.4782 32.6578 12.3056L33.3298 12.6976C33.1852 12.9776 32.9728 13.1946 32.6928 13.3486C32.4175 13.4979 32.0978 13.5726 31.7338 13.5726ZM36.089 9.96756C36.4437 9.96756 36.7564 10.0446 37.027 10.1986C37.2977 10.3479 37.5077 10.5579 37.657 10.8286C37.811 11.0992 37.888 11.4096 37.888 11.7596C37.888 12.1189 37.804 12.4386 37.636 12.7186C37.468 12.9939 37.2324 13.2086 36.929 13.3626C36.6257 13.5166 36.2804 13.5936 35.893 13.5936C35.2444 13.5936 34.7427 13.3789 34.388 12.9496C34.0334 12.5202 33.856 11.9019 33.856 11.0946C33.856 10.3432 34.017 9.74823 34.339 9.30956C34.661 8.87089 35.1534 8.58156 35.816 8.44156L37.552 8.07056L37.678 8.85456L36.103 9.17656C35.6504 9.26989 35.312 9.42856 35.088 9.65256C34.864 9.87656 34.7334 10.1916 34.696 10.5976C34.864 10.3969 35.067 10.2429 35.305 10.1356C35.543 10.0236 35.8044 9.96756 36.089 9.96756ZM35.914 12.8866C36.236 12.8866 36.495 12.7839 36.691 12.5786C36.8917 12.3686 36.992 12.1026 36.992 11.7806C36.992 11.4586 36.8917 11.1996 36.691 11.0036C36.495 10.8076 36.236 10.7096 35.914 10.7096C35.5874 10.7096 35.3237 10.8076 35.123 11.0036C34.9224 11.1996 34.822 11.4586 34.822 11.7806C34.822 12.1072 34.9224 12.3732 35.123 12.5786C35.3284 12.7839 35.592 12.8866 35.914 12.8866ZM40.401 13.5726C40.023 13.5726 39.6823 13.4909 39.379 13.3276C39.0756 13.1642 38.8376 12.9379 38.665 12.6486C38.497 12.3546 38.413 12.0232 38.413 11.6546C38.413 11.2859 38.497 10.9569 38.665 10.6676C38.8376 10.3782 39.0756 10.1519 39.379 9.98856C39.6823 9.82523 40.023 9.74356 40.401 9.74356C40.7836 9.74356 41.1266 9.82523 41.43 9.98856C41.7333 10.1519 41.969 10.3782 42.137 10.6676C42.3096 10.9569 42.396 11.2859 42.396 11.6546C42.396 12.0232 42.3096 12.3546 42.137 12.6486C41.969 12.9379 41.7333 13.1642 41.43 13.3276C41.1266 13.4909 40.7836 13.5726 40.401 13.5726ZM40.401 12.8236C40.723 12.8236 40.989 12.7162 41.199 12.5016C41.409 12.2869 41.514 12.0046 41.514 11.6546C41.514 11.3046 41.409 11.0222 41.199 10.8076C40.989 10.5929 40.723 10.4856 40.401 10.4856C40.079 10.4856 39.813 10.5929 39.603 10.8076C39.3976 11.0222 39.295 11.3046 39.295 11.6546C39.295 12.0046 39.3976 12.2869 39.603 12.5016C39.813 12.7162 40.079 12.8236 40.401 12.8236ZM44.8144 12.0256H44.1354V13.5236H43.2604V9.78556H44.1354V11.2976H44.8354L45.9414 9.78556H46.8794L45.5214 11.5846L46.9704 13.5236H45.9414L44.8144 12.0256ZM50.9036 9.78556L49.1536 13.8246C48.9903 14.2306 48.7919 14.5152 48.5586 14.6786C48.3253 14.8466 48.0429 14.9306 47.7116 14.9306C47.5249 14.9306 47.3406 14.9002 47.1586 14.8396C46.9766 14.7789 46.8273 14.6949 46.7106 14.5876L47.0606 13.9436C47.1446 14.0229 47.2426 14.0859 47.3546 14.1326C47.4713 14.1792 47.5879 14.2026 47.7046 14.2026C47.8586 14.2026 47.9846 14.1629 48.0826 14.0836C48.1853 14.0042 48.2786 13.8712 48.3626 13.6846L48.4256 13.5376L46.7946 9.78556H47.7046L48.8806 12.5506L50.0636 9.78556H50.9036Z" fill="black"/>
<rect x="1.89575" y="2.24817" width="1.37971" height="42.0794" fill="#E51937"/>
<path d="M4.49988 45.3621C4.49988 46.4194 3.64276 47.2765 2.58539 47.2765C1.52803 47.2765 0.670898 46.4194 0.670898 45.3621C0.670898 44.3049 1.52803 43.4478 2.58539 43.4478C3.64276 43.4478 4.49988 44.3049 4.49988 45.3621Z" fill="white" stroke="#E51937"/>
</svg>
