<svg width="379" height="66" fill="none" xmlns="http://www.w3.org/2000/svg"><path d="M83.285 31.15V35h-18.06v-3.045l9.73-9.24c1.097-1.05 1.832-1.96 2.205-2.73.397-.793.595-1.575.595-2.345 0-1.143-.385-2.018-1.155-2.625-.77-.607-1.902-.91-3.395-.91-2.497 0-4.41.852-5.74 2.555l-3.185-2.45c.957-1.283 2.24-2.275 3.85-2.975 1.633-.723 3.453-1.085 5.46-1.085 2.66 0 4.783.63 6.37 1.89 1.587 1.26 2.38 2.975 2.38 5.145 0 1.33-.28 2.578-.84 3.745-.56 1.167-1.633 2.497-3.22 3.99l-6.545 6.23h11.55zm5.733-1.715c.817 0 1.493.268 2.03.805.537.537.805 1.237.805 2.1 0 .373-.058.77-.175 1.19-.093.397-.303 1.003-.63 1.82l-1.785 4.935h-2.835l1.4-5.355a2.676 2.676 0 0 1-1.225-.98c-.28-.467-.42-1.003-.42-1.61 0-.863.268-1.563.805-2.1.537-.537 1.213-.805 2.03-.805zM112.765 10.5v3.045L103.245 35H98.38l9.205-20.65H97.96v4.165h-4.235V10.5h19.04zM127.54 35.14c-1.107 0-2.1-.233-2.98-.7a5.16 5.16 0 0 1-2.06-1.94c-.493-.84-.74-1.787-.74-2.84s.247-1.993.74-2.82a5.191 5.191 0 0 1 2.04-1.94c.88-.467 1.88-.7 3-.7 1.053 0 1.973.213 2.76.64.8.427 1.4 1.04 1.8 1.84l-1.92 1.12c-.307-.493-.693-.86-1.16-1.1a3.021 3.021 0 0 0-1.5-.38c-.933 0-1.707.307-2.32.92-.613.6-.92 1.407-.92 2.42s.3 1.827.9 2.44c.613.6 1.393.9 2.34.9.547 0 1.047-.12 1.5-.36a3.105 3.105 0 0 0 1.16-1.12l1.92 1.12c-.413.8-1.02 1.42-1.82 1.86-.787.427-1.7.64-2.74.64zm16.605-5.42c0 .173-.013.42-.04.74h-8.38c.147.787.527 1.413 1.14 1.88.627.453 1.4.68 2.32.68 1.173 0 2.14-.387 2.9-1.16l1.34 1.54a4.517 4.517 0 0 1-1.82 1.3c-.733.293-1.56.44-2.48.44-1.173 0-2.207-.233-3.1-.7-.893-.467-1.587-1.113-2.08-1.94-.48-.84-.72-1.787-.72-2.84 0-1.04.233-1.973.7-2.8a5.087 5.087 0 0 1 1.98-1.96c.84-.467 1.787-.7 2.84-.7 1.04 0 1.967.233 2.78.7a4.718 4.718 0 0 1 1.92 1.94c.467.827.7 1.787.7 2.88zm-5.4-3.52c-.8 0-1.48.24-2.04.72-.547.467-.88 1.093-1 1.88h6.06c-.107-.773-.433-1.4-.98-1.88-.547-.48-1.227-.72-2.04-.72zm12.574 4.52h-1.94V35h-2.5V24.32h2.5v4.32h2l3.16-4.32h2.68l-3.88 5.14 4.14 5.54h-2.94l-3.22-4.28zM67.972 54.072a3.048 3.048 0 0 1-1.74-.516c-.504-.344-.9-.836-1.188-1.476-.28-.648-.42-1.408-.42-2.28 0-.872.14-1.628.42-2.268.288-.648.684-1.144 1.188-1.488a3.048 3.048 0 0 1 1.74-.516c.648 0 1.224.172 1.728.516.512.344.912.84 1.2 1.488.288.64.432 1.396.432 2.268 0 .872-.144 1.632-.432 2.28-.288.64-.688 1.132-1.2 1.476a2.992 2.992 0 0 1-1.728.516zm0-.792c.488 0 .916-.136 1.284-.408.376-.272.668-.668.876-1.188.208-.52.312-1.148.312-1.884s-.104-1.364-.312-1.884c-.208-.52-.5-.916-.876-1.188a2.102 2.102 0 0 0-1.284-.408c-.488 0-.92.136-1.296.408-.368.272-.656.668-.864 1.188-.208.52-.312 1.148-.312 1.884s.104 1.364.312 1.884c.208.52.496.916.864 1.188.376.272.808.408 1.296.408zm4.787-2.904h3.144v.744H72.76v-.744zm6.615-4.776V54h-.864v-7.632h-1.98V45.6h2.844zm5.356 8.472a3.048 3.048 0 0 1-1.74-.516c-.504-.344-.9-.836-1.188-1.476-.28-.648-.42-1.408-.42-2.28 0-.872.14-1.628.42-2.268.288-.648.684-1.144 1.188-1.488a3.048 3.048 0 0 1 1.74-.516c.648 0 1.224.172 1.728.516.512.344.912.84 1.2 1.488.288.64.432 1.396.432 2.268 0 .872-.144 1.632-.432 2.28-.288.64-.688 1.132-1.2 1.476a2.992 2.992 0 0 1-1.728.516zm0-.792c.488 0 .916-.136 1.284-.408.376-.272.668-.668.876-1.188.208-.52.312-1.148.312-1.884s-.104-1.364-.312-1.884c-.208-.52-.5-.916-.876-1.188a2.102 2.102 0 0 0-1.284-.408c-.488 0-.92.136-1.296.408-.368.272-.656.668-.864 1.188-.208.52-.312 1.148-.312 1.884s.104 1.364.312 1.884c.208.52.496.916.864 1.188.376.272.808.408 1.296.408zm7.945.792a3.048 3.048 0 0 1-1.74-.516c-.504-.344-.9-.836-1.188-1.476-.28-.648-.42-1.408-.42-2.28 0-.872.14-1.628.42-2.268.288-.648.684-1.144 1.188-1.488a3.048 3.048 0 0 1 1.74-.516c.648 0 1.224.172 1.728.516.512.344.912.84 1.2 1.488.288.64.432 1.396.432 2.268 0 .872-.144 1.632-.432 2.28-.288.64-.688 1.132-1.2 1.476a2.992 2.992 0 0 1-1.728.516zm0-.792c.488 0 .916-.136 1.284-.408.376-.272.668-.668.876-1.188.208-.52.312-1.148.312-1.884s-.104-1.364-.312-1.884c-.208-.52-.5-.916-.876-1.188a2.102 2.102 0 0 0-1.284-.408c-.488 0-.92.136-1.296.408-.368.272-.656.668-.864 1.188-.208.52-.312 1.148-.312 1.884s.104 1.364.312 1.884c.208.52.496.916.864 1.188.376.272.808.408 1.296.408zm10.618-2.088h-1.44V54h-.852v-6.312h.852v2.772h1.452l2.22-2.772h.924l-2.484 3.06L106.629 54h-1.008l-2.328-2.808zm11.737-3.504V54h-.78v-4.992l-2.556 4.224h-.384l-2.556-4.236V54h-.78v-6.312h.864l2.676 4.548 2.724-4.548h.792zm4.872-3.792h.78l-3.96 11.304h-.78l3.96-11.304zm5.515 3.792V54h-.852v-2.628c-.728.32-1.444.48-2.148.48-.76 0-1.352-.172-1.776-.516-.424-.352-.636-.876-.636-1.572v-2.076h.852v2.028c0 .472.152.832.456 1.08.304.24.724.36 1.26.36.592 0 1.256-.156 1.992-.468v-3h.852zm4.592-.048c.824 0 1.456.208 1.896.624.44.408.66 1.016.66 1.824V54h-.816v-.984a1.947 1.947 0 0 1-.852.768c-.368.184-.808.276-1.32.276-.704 0-1.264-.168-1.68-.504-.416-.336-.624-.78-.624-1.332 0-.536.192-.968.576-1.296.392-.328 1.012-.492 1.86-.492h2.004v-.384c0-.544-.152-.956-.456-1.236-.304-.288-.748-.432-1.332-.432-.4 0-.784.068-1.152.204a2.822 2.822 0 0 0-.948.54l-.384-.636c.32-.272.704-.48 1.152-.624.448-.152.92-.228 1.416-.228zm-.3 5.748c.48 0 .892-.108 1.236-.324.344-.224.6-.544.768-.96v-1.032h-1.98c-1.08 0-1.62.376-1.62 1.128 0 .368.14.66.42.876.28.208.672.312 1.176.312zm7.764.672a3.436 3.436 0 0 1-1.68-.408 2.976 2.976 0 0 1-1.152-1.14 3.333 3.333 0 0 1-.42-1.668c0-.616.14-1.168.42-1.656.28-.488.664-.868 1.152-1.14a3.436 3.436 0 0 1 1.68-.408c.544 0 1.028.108 1.452.324.432.208.772.516 1.02.924l-.636.432a1.945 1.945 0 0 0-.792-.696c-.32-.16-.668-.24-1.044-.24-.456 0-.868.104-1.236.312-.36.2-.644.488-.852.864-.2.376-.3.804-.3 1.284 0 .488.1.92.3 1.296.208.368.492.656.852.864.368.2.78.3 1.236.3.376 0 .724-.076 1.044-.228.32-.152.584-.384.792-.696l.636.432c-.248.408-.588.72-1.02.936a3.304 3.304 0 0 1-1.452.312z" fill="#000"/><path d="M37.525 34.105c0 5.783-4.712 10.47-10.525 10.47-5.813 0-10.525-4.687-10.525-10.47S21.187 23.635 27 23.635c5.813 0 10.525 4.687 10.525 10.47z" fill="#C4C4C4"/><path d="M24.674 35.465c-.652-1.405-.047-3.068 1.346-3.708 1.389-.64 3.047-.016 3.7 1.388l13.76 7.672-15.257-3.894c-1.358.523-2.92-.105-3.549-1.458z" fill="#030104"/><path d="M10.736 19.731A22.859 22.859 0 0 1 27 13c6.144 0 11.92 2.39 16.264 6.731A22.824 22.824 0 0 1 50 35.983c0 3.963-1 7.773-2.876 11.144h-4.299l-3.144-1.814 1.389-2.404 4.043 2.333a20.197 20.197 0 0 0 2.159-11.01l-4.82.85-.483-2.734 4.877-.86a20.32 20.32 0 0 0-5.55-9.96l-3.304 3.936-2.128-1.784 3.33-3.965A20.244 20.244 0 0 0 28.388 15.7v5.263h-2.777v-5.263a20.247 20.247 0 0 0-10.805 4.016l3.33 3.965-2.127 1.784-3.305-3.935a20.322 20.322 0 0 0-5.55 9.96l4.877.86-.482 2.732-4.82-.85a20.194 20.194 0 0 0 2.159 11.01l4.042-2.332 1.389 2.404-3.144 1.813h-4.3A22.836 22.836 0 0 1 4 35.982c0-6.138 2.393-11.91 6.736-16.25z" fill="#030104" filter="url(#filter0_d)"/><path d="M293.17 18.88c1.61 0 3.057.315 4.34.945 1.283.607 2.287 1.482 3.01 2.625.723 1.143 1.085 2.462 1.085 3.955 0 1.587-.397 2.987-1.19 4.2-.793 1.19-1.867 2.112-3.22 2.765-1.353.653-2.87.98-4.55.98-3.36 0-5.973-1.05-7.84-3.15-1.843-2.1-2.765-5.11-2.765-9.03 0-2.753.502-5.098 1.505-7.035 1.003-1.96 2.403-3.442 4.2-4.445 1.82-1.027 3.92-1.54 6.3-1.54 1.26 0 2.438.14 3.535.42 1.12.257 2.088.642 2.905 1.155l-1.68 3.43c-1.213-.793-2.765-1.19-4.655-1.19-2.357 0-4.2.723-5.53 2.17s-1.995 3.535-1.995 6.265v.035c.723-.84 1.645-1.47 2.765-1.89 1.12-.443 2.38-.665 3.78-.665zm-.77 11.9c1.423 0 2.578-.373 3.465-1.12.887-.77 1.33-1.785 1.33-3.045 0-1.283-.443-2.298-1.33-3.045-.887-.747-2.077-1.12-3.57-1.12-1.47 0-2.672.397-3.605 1.19-.91.793-1.365 1.797-1.365 3.01 0 1.19.443 2.182 1.33 2.975.91.77 2.158 1.155 3.745 1.155zm22.013-11.165c2.264.28 3.99 1.05 5.18 2.31 1.19 1.26 1.785 2.835 1.785 4.725 0 1.423-.361 2.718-1.085 3.885-.723 1.167-1.82 2.1-3.29 2.8-1.446.677-3.22 1.015-5.32 1.015a17.57 17.57 0 0 1-5.075-.735c-1.61-.513-2.986-1.213-4.13-2.1l1.96-3.535c.887.747 1.96 1.342 3.22 1.785 1.284.42 2.602.63 3.955.63 1.61 0 2.87-.327 3.78-.98.934-.677 1.4-1.587 1.4-2.73s-.443-2.03-1.33-2.66c-.863-.653-2.193-.98-3.99-.98h-2.24V19.93l5.565-6.615h-11.13V9.5h16.695v3.045l-5.95 7.07zm27.516 10.535V34h-18.06v-3.045l9.73-9.24c1.096-1.05 1.831-1.96 2.205-2.73.396-.793.595-1.575.595-2.345 0-1.143-.385-2.018-1.155-2.625-.77-.607-1.902-.91-3.395-.91-2.497 0-4.41.852-5.74 2.555l-3.185-2.45c.956-1.283 2.24-2.275 3.85-2.975 1.633-.723 3.453-1.085 5.46-1.085 2.66 0 4.783.63 6.37 1.89 1.586 1.26 2.38 2.975 2.38 5.145 0 1.33-.28 2.578-.84 3.745-.56 1.167-1.634 2.497-3.22 3.99l-6.545 6.23h11.55zM356.12 29.72h-1.94V34h-2.5V23.32h2.5v4.32h2l3.16-4.32h2.68l-3.88 5.14 4.14 5.54h-2.94l-3.22-4.28zM374.543 34v-7.08l-3.6 5.96h-1.08l-3.54-5.98V34h-2.28V23.32h2.62l3.8 6.68 3.98-6.68h2.34l.02 10.68h-2.26zM284.784 49.712c.448.104.792.284 1.032.54.248.256.372.568.372.936 0 .368-.128.696-.384.984-.248.288-.588.512-1.02.672a4.277 4.277 0 0 1-1.428.228c-.456 0-.904-.064-1.344-.192a3.56 3.56 0 0 1-1.152-.588l.288-.636c.288.216.624.384 1.008.504s.772.18 1.164.18c.584 0 1.06-.108 1.428-.324.376-.224.564-.524.564-.9 0-.336-.152-.596-.456-.78-.304-.192-.72-.288-1.248-.288h-1.08v-.624h1.032c.472 0 .852-.088 1.14-.264.288-.184.432-.428.432-.732 0-.336-.164-.6-.492-.792-.32-.192-.74-.288-1.26-.288-.68 0-1.352.172-2.016.516l-.24-.66a5 5 0 0 1 2.34-.588c.48 0 .912.072 1.296.216.392.136.696.332.912.588.224.256.336.552.336.888 0 .32-.112.604-.336.852-.216.248-.512.432-.888.552zm5.51-3.072c.824 0 1.456.208 1.896.624.44.408.66 1.016.66 1.824V53h-.816v-.984a1.947 1.947 0 0 1-.852.768c-.368.184-.808.276-1.32.276-.704 0-1.264-.168-1.68-.504-.416-.336-.624-.78-.624-1.332 0-.536.192-.968.576-1.296.392-.328 1.012-.492 1.86-.492h2.004v-.384c0-.544-.152-.956-.456-1.236-.304-.288-.748-.432-1.332-.432-.4 0-.784.068-1.152.204a2.822 2.822 0 0 0-.948.54l-.384-.636c.32-.272.704-.48 1.152-.624.448-.152.92-.228 1.416-.228zm-.3 5.748c.48 0 .892-.108 1.236-.324.344-.224.6-.544.768-.96v-1.032h-1.98c-1.08 0-1.62.376-1.62 1.128 0 .368.14.66.42.876.28.208.672.312 1.176.312zm10.788-5.7V53h-.852v-5.556h-3.96V53h-.852v-6.312h5.664zm4.594-.048c.824 0 1.456.208 1.896.624.44.408.66 1.016.66 1.824V53h-.816v-.984a1.947 1.947 0 0 1-.852.768c-.368.184-.808.276-1.32.276-.704 0-1.264-.168-1.68-.504-.416-.336-.624-.78-.624-1.332 0-.536.192-.968.576-1.296.392-.328 1.012-.492 1.86-.492h2.004v-.384c0-.544-.152-.956-.456-1.236-.304-.288-.748-.432-1.332-.432-.4 0-.784.068-1.152.204a2.822 2.822 0 0 0-.948.54l-.384-.636c.32-.272.704-.48 1.152-.624.448-.152.92-.228 1.416-.228zm-.3 5.748c.48 0 .892-.108 1.236-.324.344-.224.6-.544.768-.96v-1.032h-1.98c-1.08 0-1.62.376-1.62 1.128 0 .368.14.66.42.876.28.208.672.312 1.176.312zm7.764.672a3.436 3.436 0 0 1-1.68-.408 2.976 2.976 0 0 1-1.152-1.14 3.333 3.333 0 0 1-.42-1.668c0-.616.14-1.168.42-1.656.28-.488.664-.868 1.152-1.14a3.436 3.436 0 0 1 1.68-.408c.544 0 1.028.108 1.452.324.432.208.772.516 1.02.924l-.636.432a1.945 1.945 0 0 0-.792-.696c-.32-.16-.668-.24-1.044-.24-.456 0-.868.104-1.236.312-.36.2-.644.488-.852.864-.2.376-.3.804-.3 1.284 0 .488.1.92.3 1.296.208.368.492.656.852.864.368.2.78.3 1.236.3.376 0 .724-.076 1.044-.228.32-.152.584-.384.792-.696l.636.432c-.248.408-.588.72-1.02.936a3.304 3.304 0 0 1-1.452.312zm11.211-.06l-2.004-2.64-2.016 2.64h-.96l2.496-3.24-2.376-3.072h.96l1.896 2.472 1.896-2.472h.936l-2.376 3.072 2.52 3.24h-.972zm4.749.06a3.319 3.319 0 0 1-1.644-.408 3.063 3.063 0 0 1-1.152-1.152 3.267 3.267 0 0 1-.42-1.656c0-.616.14-1.168.42-1.656.28-.488.664-.868 1.152-1.14a3.319 3.319 0 0 1 1.644-.408c.608 0 1.156.136 1.644.408.488.272.868.652 1.14 1.14.28.488.42 1.04.42 1.656 0 .616-.14 1.168-.42 1.656a2.976 2.976 0 0 1-1.14 1.152 3.319 3.319 0 0 1-1.644.408zm0-.756c.448 0 .848-.1 1.2-.3.36-.208.64-.5.84-.876.2-.376.3-.804.3-1.284s-.1-.908-.3-1.284c-.2-.376-.48-.664-.84-.864a2.314 2.314 0 0 0-1.2-.312c-.448 0-.852.104-1.212.312-.352.2-.632.488-.84.864-.2.376-.3.804-.3 1.284s.1.908.3 1.284c.208.376.488.668.84.876.36.2.764.3 1.212.3zm11.146-.048v2.268h-.804V53h-5.652v1.524h-.804v-2.268h.36c.424-.024.712-.336.864-.936.152-.6.256-1.44.312-2.52l.084-2.112h4.656v5.568h.984zm-4.944-3.408c-.04.896-.116 1.636-.228 2.22-.112.576-.312.972-.6 1.188h3.936v-4.812h-3.036l-.072 1.404zm8.777-2.208c.824 0 1.456.208 1.896.624.44.408.66 1.016.66 1.824V53h-.816v-.984a1.947 1.947 0 0 1-.852.768c-.368.184-.808.276-1.32.276-.704 0-1.264-.168-1.68-.504-.416-.336-.624-.78-.624-1.332 0-.536.192-.968.576-1.296.392-.328 1.012-.492 1.86-.492h2.004v-.384c0-.544-.152-.956-.456-1.236-.304-.288-.748-.432-1.332-.432-.4 0-.784.068-1.152.204a2.822 2.822 0 0 0-.948.54l-.384-.636c.32-.272.704-.48 1.152-.624.448-.152.92-.228 1.416-.228zm-.3 5.748c.48 0 .892-.108 1.236-.324.344-.224.6-.544.768-.96v-1.032h-1.98c-1.08 0-1.62.376-1.62 1.128 0 .368.14.66.42.876.28.208.672.312 1.176.312z" fill="#000"/><g filter="url(#filter1_d)" stroke="#000"><path fill-rule="evenodd" clip-rule="evenodd" d="M254.311 23.508c.694.931 1.932 1.614 3.984 1.339 3.602-.483 6.391.599 8.063 2.67 1.632 2.02 2.006 4.747 1.304 7.193-.71 2.472-2.536 4.737-5.404 5.873-2.864 1.134-6.591 1.077-11.042-.711-3.867-1.554-6.09-1.302-7.287-.602-1.167.683-1.851 2.091-1.923 4.083-.071 1.973.489 4.22 1.452 6.037.997 1.88 2.218 2.935 3.238 3.14l-.591 2.94c-2.34-.47-4.147-2.504-5.298-4.675-1.184-2.235-1.891-5-1.799-7.55.091-2.532 1.001-5.157 3.406-6.564 2.376-1.39 5.705-1.286 9.92.407 3.947 1.586 6.855 1.484 8.82.706 1.961-.777 3.159-2.29 3.624-3.912.474-1.648.176-3.329-.754-4.48-.888-1.1-2.551-1.954-5.331-1.582-2.987.4-5.361-.604-6.788-2.52-1.376-1.847-1.711-4.326-1.171-6.645.546-2.343 2.004-4.639 4.388-6.198 2.394-1.566 5.626-2.328 9.622-1.78l-.407 2.972c-3.394-.465-5.874.208-7.573 1.32-1.711 1.118-2.73 2.745-3.108 4.367-.383 1.645-.089 3.173.655 4.172z" fill="#000" stroke-width="3"/><path fill-rule="evenodd" clip-rule="evenodd" d="M264.513 12.361c-.46-.063-.906-.107-1.339-.133l.023-.399c.444.026.901.071 1.371.136l-.055.396zm-4.026-.053c-.948.121-1.811.34-2.591.637l-.142-.374a11.707 11.707 0 0 1 2.682-.66l.051.397zm-4.922 1.914a8.663 8.663 0 0 0-1.851 1.897l-.326-.232a9.044 9.044 0 0 1 1.937-1.984l.24.32zm-3.027 4.27a7.625 7.625 0 0 0-.341 2.618l-.4.02a8.04 8.04 0 0 1 .359-2.756l.382.118zm.324 5.147a4.668 4.668 0 0 0 1.773 1.872l-.202.345a5.07 5.07 0 0 1-1.925-2.03l.354-.187zm5.605 2.496c.548-.073 1.07-.106 1.564-.102l-.003.4a10.74 10.74 0 0 0-1.508.099 8.046 8.046 0 0 1-1.401.07l.016-.4c.417.017.861-.004 1.332-.067zm4.622.498a5.853 5.853 0 0 1 2.446 1.946l-.325.234A5.447 5.447 0 0 0 262.93 27l.159-.367zm3.562 4.867a7.277 7.277 0 0 1-.317 3.107l-.38-.124a6.883 6.883 0 0 0 .3-2.935l.397-.048zm-18.957 6.026c-1.051-.15-1.962-.135-2.745.012l-.074-.393c.833-.156 1.789-.17 2.875-.016l-.056.397zm17.08-.215a7.832 7.832 0 0 1-2.505 1.852l-.171-.362a7.419 7.419 0 0 0 2.378-1.757l.298.267zm-13.073 1.354a22.91 22.91 0 0 0-1.316-.483l.126-.38c.431.143.877.307 1.339.492.488.196.964.37 1.428.52l-.124.38c-.472-.153-.957-.33-1.453-.529zm-9.162.018c-.663.594-1.132 1.371-1.431 2.267l-.38-.127c.317-.949.821-1.79 1.544-2.438l.267.298zm16.73 1.296c-.949.101-1.986.084-3.108-.075l.056-.396c1.093.154 2.096.17 3.009.073l.043.398zM240.7 43.657c-.003.898.104 1.83.305 2.751l-.391.085a13.228 13.228 0 0 1-.314-2.837l.4.001zm1.154 5.392c.381.882.843 1.699 1.366 2.4l-.321.24a12.441 12.441 0 0 1-1.412-2.482l.367-.158zm3.345 4.265c.403.238.818.405 1.241.49l-.079.392a4.372 4.372 0 0 1-1.365-.537l.203-.345z" fill="#fff" stroke-width=".4" stroke-dasharray="3 3"/><path d="M250 54.5a3 3 0 1 1-6 0 3 3 0 0 1 6 0z" fill="#C4C4C4"/><path d="M248 54.5a1 1 0 1 1-2 0 1 1 0 0 1 2 0z" fill="#fff"/><path d="M269 11.5a3 3 0 1 1-6 0 3 3 0 0 1 6 0z" fill="#C4C4C4"/><path d="M267 11.5a1 1 0 1 1-2 0 1 1 0 0 1 2 0z" fill="#fff"/></g><defs><filter id="filter0_d" x="0" y="13" width="54" height="42.127" filterUnits="userSpaceOnUse" color-interpolation-filters="sRGB"><feFlood flood-opacity="0" result="BackgroundImageFix"/><feColorMatrix in="SourceAlpha" values="0 0 0 0 0 0 0 0 0 0 0 0 0 0 0 0 0 0 127 0"/><feOffset dy="4"/><feGaussianBlur stdDeviation="2"/><feColorMatrix values="0 0 0 0 0 0 0 0 0 0 0 0 0 0 0 0 0 0 0.25 0"/><feBlend in2="BackgroundImageFix" result="effect1_dropShadow"/><feBlend in="SourceGraphic" in2="effect1_dropShadow" result="shape"/></filter><filter id="filter1_d" x="233.5" y="8" width="40" height="58" filterUnits="userSpaceOnUse" color-interpolation-filters="sRGB"><feFlood flood-opacity="0" result="BackgroundImageFix"/><feColorMatrix in="SourceAlpha" values="0 0 0 0 0 0 0 0 0 0 0 0 0 0 0 0 0 0 127 0"/><feOffset dy="4"/><feGaussianBlur stdDeviation="2"/><feColorMatrix values="0 0 0 0 0 0 0 0 0 0 0 0 0 0 0 0 0 0 0.25 0"/><feBlend in2="BackgroundImageFix" result="effect1_dropShadow"/><feBlend in="SourceGraphic" in2="effect1_dropShadow" result="shape"/></filter></defs></svg>