<svg width="269" height="71" fill="none" xmlns="http://www.w3.org/2000/svg"><path d="M65.98 5h10.9v2.14h-8.34v3.44h4.14c1.68 0 2.953.353 3.82 1.06.88.693 1.32 1.7 1.32 3.02 0 1.387-.48 2.46-1.44 3.22-.96.747-2.327 1.12-4.1 1.12h-6.3V5zm6.16 12c1 0 1.76-.193 2.28-.58.52-.387.78-.947.78-1.68 0-1.44-1.02-2.16-3.06-2.16h-3.6V17h3.6zm18.247-3.28c0 .173-.013.42-.04.74h-8.38c.147.787.527 1.413 1.14 1.88.627.453 1.4.68 2.32.68 1.173 0 2.14-.387 2.9-1.16l1.34 1.54a4.514 4.514 0 0 1-1.82 1.3c-.733.293-1.56.44-2.48.44-1.173 0-2.207-.233-3.1-.7-.893-.467-1.587-1.113-2.08-1.94-.48-.84-.72-1.787-.72-2.84 0-1.04.233-1.973.7-2.8a5.086 5.086 0 0 1 1.98-1.96c.84-.467 1.787-.7 2.84-.7 1.04 0 1.967.233 2.78.7a4.722 4.722 0 0 1 1.92 1.94c.467.827.7 1.787.7 2.88zm-5.4-3.52c-.8 0-1.48.24-2.04.72-.547.467-.88 1.093-1 1.88h6.06c-.107-.773-.433-1.4-.98-1.88-.547-.48-1.227-.72-2.04-.72zm12.994 8.94c-1.106 0-2.1-.233-2.98-.7a5.161 5.161 0 0 1-2.06-1.94c-.493-.84-.74-1.787-.74-2.84s.247-1.993.74-2.82a5.195 5.195 0 0 1 2.04-1.94c.88-.467 1.88-.7 3-.7 1.054 0 1.974.213 2.76.64.8.427 1.4 1.04 1.8 1.84l-1.92 1.12c-.306-.493-.693-.86-1.16-1.1a3.023 3.023 0 0 0-1.5-.38c-.933 0-1.706.307-2.32.92-.613.6-.92 1.407-.92 2.42s.3 1.827.9 2.44c.614.6 1.394.9 2.34.9.547 0 1.047-.12 1.5-.36a3.1 3.1 0 0 0 1.16-1.12l1.92 1.12c-.413.8-1.02 1.42-1.82 1.86-.786.427-1.7.64-2.74.64zm17.002-10.82V19h-2.48v-8.56h-5.26V19h-2.5V8.32h10.24zm9.293-.12c1.04 0 1.966.227 2.78.68a4.892 4.892 0 0 1 1.94 1.92c.466.827.7 1.78.7 2.86 0 1.08-.234 2.04-.7 2.88a4.892 4.892 0 0 1-1.94 1.92c-.814.453-1.74.68-2.78.68-1.44 0-2.58-.48-3.42-1.44v5.18h-2.5V8.32h2.38v1.4a3.88 3.88 0 0 1 1.52-1.14 5.238 5.238 0 0 1 2.02-.38zm-.28 8.8c.92 0 1.673-.307 2.26-.92.6-.613.9-1.42.9-2.42s-.3-1.807-.9-2.42c-.587-.613-1.34-.92-2.26-.92-.6 0-1.14.14-1.62.42-.48.267-.86.653-1.14 1.16-.28.507-.42 1.093-.42 1.76s.14 1.253.42 1.76c.28.507.66.9 1.14 1.18.48.267 1.02.4 1.62.4zm12.948 2.14c-1.08 0-2.053-.233-2.92-.7a5.191 5.191 0 0 1-2.04-1.94c-.48-.84-.72-1.787-.72-2.84s.24-1.993.72-2.82a5.19 5.19 0 0 1 2.04-1.94c.867-.467 1.84-.7 2.92-.7 1.093 0 2.073.233 2.94.7a5.053 5.053 0 0 1 2.02 1.94c.493.827.74 1.767.74 2.82s-.247 2-.74 2.84a5.053 5.053 0 0 1-2.02 1.94c-.867.467-1.847.7-2.94.7zm0-2.14c.92 0 1.68-.307 2.28-.92.6-.613.9-1.42.9-2.42s-.3-1.807-.9-2.42c-.6-.613-1.36-.92-2.28-.92-.92 0-1.68.307-2.28.92-.587.613-.88 1.42-.88 2.42s.293 1.807.88 2.42c.6.613 1.36.92 2.28.92zm15.91-3.56c1.32.4 1.98 1.253 1.98 2.56 0 .96-.36 1.7-1.08 2.22-.72.52-1.787.78-3.2.78h-5.44V8.32h5.22c1.306 0 2.326.24 3.06.72.733.48 1.1 1.16 1.1 2.04 0 .547-.147 1.02-.44 1.42-.28.4-.68.713-1.2.94zm-5.36-.66h2.62c1.293 0 1.94-.447 1.94-1.34 0-.867-.647-1.3-1.94-1.3h-2.62v2.64zm2.86 4.4c1.373 0 2.06-.447 2.06-1.34 0-.467-.16-.813-.48-1.04-.32-.24-.82-.36-1.5-.36h-2.94v2.74h2.86zm11.902 1.96c-1.08 0-2.053-.233-2.92-.7a5.204 5.204 0 0 1-2.04-1.94c-.48-.84-.72-1.787-.72-2.84s.24-1.993.72-2.82a5.204 5.204 0 0 1 2.04-1.94c.867-.467 1.84-.7 2.92-.7 1.094 0 2.074.233 2.94.7a5.053 5.053 0 0 1 2.02 1.94c.494.827.74 1.767.74 2.82s-.246 2-.74 2.84a5.053 5.053 0 0 1-2.02 1.94c-.866.467-1.846.7-2.94.7zm0-2.14c.92 0 1.68-.307 2.28-.92.6-.613.9-1.42.9-2.42s-.3-1.807-.9-2.42c-.6-.613-1.36-.92-2.28-.92-.92 0-1.68.307-2.28.92-.586.613-.88 1.42-.88 2.42s.294 1.807.88 2.42c.6.613 1.36.92 2.28.92zm19.453-.12v4.5h-2.34V19h-8.24v2.38h-2.32v-4.5h.5c.68-.027 1.14-.46 1.38-1.3.253-.853.42-2.053.5-3.6l.14-3.66h8.8v8.56h1.58zm-8.24-4.72c-.053 1.227-.153 2.227-.3 3-.147.773-.413 1.347-.8 1.72h5.26v-6.44h-4.1l-.06 1.72zm10.473-3.84h2.5v4.34h5.38V8.32h2.5V19h-2.5v-4.22h-5.38V19h-2.5V8.32zm18.49 10.82c-1.08 0-2.053-.233-2.92-.7a5.204 5.204 0 0 1-2.04-1.94c-.48-.84-.72-1.787-.72-2.84s.24-1.993.72-2.82a5.204 5.204 0 0 1 2.04-1.94c.867-.467 1.84-.7 2.92-.7 1.094 0 2.074.233 2.94.7a5.053 5.053 0 0 1 2.02 1.94c.494.827.74 1.767.74 2.82s-.246 2-.74 2.84a5.053 5.053 0 0 1-2.02 1.94c-.866.467-1.846.7-2.94.7zm0-2.14c.92 0 1.68-.307 2.28-.92.6-.613.9-1.42.9-2.42s-.3-1.807-.9-2.42c-.6-.613-1.36-.92-2.28-.92-.92 0-1.68.307-2.28.92-.586.613-.88 1.42-.88 2.42s.294 1.807.88 2.42c.6.613 1.36.92 2.28.92zm18.17-3.28c0 .173-.013.42-.04.74h-8.38c.147.787.527 1.413 1.14 1.88.627.453 1.4.68 2.32.68 1.173 0 2.14-.387 2.9-1.16l1.34 1.54a4.517 4.517 0 0 1-1.82 1.3c-.733.293-1.56.44-2.48.44-1.173 0-2.207-.233-3.1-.7-.893-.467-1.587-1.113-2.08-1.94-.48-.84-.72-1.787-.72-2.84 0-1.04.233-1.973.7-2.8a5.086 5.086 0 0 1 1.98-1.96c.84-.467 1.787-.7 2.84-.7 1.04 0 1.967.233 2.78.7a4.718 4.718 0 0 1 1.92 1.94c.467.827.7 1.787.7 2.88zm-5.4-3.52c-.8 0-1.48.24-2.04.72-.547.467-.88 1.093-1 1.88h6.06c-.107-.773-.433-1.4-.98-1.88-.547-.48-1.227-.72-2.04-.72zM70.44 37.14c-1.08 0-2.053-.233-2.92-.7a5.195 5.195 0 0 1-2.04-1.94c-.48-.84-.72-1.787-.72-2.84s.24-1.993.72-2.82a5.195 5.195 0 0 1 2.04-1.94c.867-.467 1.84-.7 2.92-.7 1.093 0 2.073.233 2.94.7a5.055 5.055 0 0 1 2.02 1.94c.493.827.74 1.767.74 2.82s-.247 2-.74 2.84a5.055 5.055 0 0 1-2.02 1.94c-.867.467-1.847.7-2.94.7zm0-2.14c.92 0 1.68-.307 2.28-.92.6-.613.9-1.42.9-2.42s-.3-1.807-.9-2.42c-.6-.613-1.36-.92-2.28-.92-.92 0-1.68.307-2.28.92-.587.613-.88 1.42-.88 2.42s.293 1.807.88 2.42c.6.613 1.36.92 2.28.92zm13.95-8.16c1.013 0 1.906.22 2.68.66a4.499 4.499 0 0 1 1.8 1.8c.44.773.66 1.66.66 2.66 0 1.027-.24 1.94-.72 2.74-.48.787-1.154 1.4-2.02 1.84-.867.44-1.854.66-2.96.66-1.854 0-3.287-.613-4.3-1.84-1.014-1.227-1.52-2.993-1.52-5.3 0-2.147.46-3.847 1.38-5.1.92-1.253 2.326-2.08 4.22-2.48l4.96-1.06.36 2.24-4.5.92c-1.294.267-2.26.72-2.9 1.36-.64.64-1.014 1.54-1.12 2.7a4.833 4.833 0 0 1 1.74-1.32c.68-.32 1.426-.48 2.24-.48zm-.5 8.34c.92 0 1.66-.293 2.22-.88.573-.6.86-1.36.86-2.28 0-.92-.287-1.66-.86-2.22-.56-.56-1.3-.84-2.22-.84-.934 0-1.687.28-2.26.84-.574.56-.86 1.3-.86 2.22 0 .933.286 1.693.86 2.28.586.587 1.34.88 2.26.88zm8.06-8.86h2.5v4.34h5.38v-4.34h2.5V37h-2.5v-4.22h-5.38V37h-2.5V26.32zm18.49 10.82c-1.08 0-2.053-.233-2.92-.7a5.191 5.191 0 0 1-2.04-1.94c-.48-.84-.72-1.787-.72-2.84s.24-1.993.72-2.82a5.191 5.191 0 0 1 2.04-1.94c.867-.467 1.84-.7 2.92-.7 1.093 0 2.073.233 2.94.7a5.053 5.053 0 0 1 2.02 1.94c.493.827.74 1.767.74 2.82s-.247 2-.74 2.84a5.053 5.053 0 0 1-2.02 1.94c-.867.467-1.847.7-2.94.7zm0-2.14c.92 0 1.68-.307 2.28-.92.6-.613.9-1.42.9-2.42s-.3-1.807-.9-2.42c-.6-.613-1.36-.92-2.28-.92-.92 0-1.68.307-2.28.92-.587.613-.88 1.42-.88 2.42s.293 1.807.88 2.42c.6.613 1.36.92 2.28.92zm15.91-3.56c1.32.4 1.98 1.253 1.98 2.56 0 .96-.36 1.7-1.08 2.22-.72.52-1.787.78-3.2.78h-5.44V26.32h5.22c1.306 0 2.326.24 3.06.72.733.48 1.1 1.16 1.1 2.04 0 .547-.147 1.02-.44 1.42-.28.4-.68.713-1.2.94zm-5.36-.66h2.62c1.293 0 1.94-.447 1.94-1.34 0-.867-.647-1.3-1.94-1.3h-2.62v2.64zm2.86 4.4c1.373 0 2.06-.447 2.06-1.34 0-.467-.16-.813-.48-1.04-.32-.24-.82-.36-1.5-.36h-2.94v2.74h2.86zm16.823-8.86V37h-2.5v-8.56h-4l-.1 2.12c-.067 1.413-.2 2.6-.4 3.56-.187.947-.514 1.7-.98 2.26-.454.547-1.08.82-1.88.82-.374 0-.834-.073-1.38-.22l.12-2.1c.186.04.346.06.48.06.506 0 .886-.2 1.14-.6.253-.413.413-.9.48-1.46.08-.573.146-1.387.2-2.44l.18-4.12h8.64zm13.366 5.4c0 .173-.013.42-.04.74h-8.38c.147.787.527 1.413 1.14 1.88.627.453 1.4.68 2.32.68 1.174 0 2.14-.387 2.9-1.16l1.34 1.54a4.51 4.51 0 0 1-1.82 1.3c-.733.293-1.56.44-2.48.44-1.173 0-2.206-.233-3.1-.7-.893-.467-1.586-1.113-2.08-1.94-.48-.84-.72-1.787-.72-2.84 0-1.04.234-1.973.7-2.8a5.087 5.087 0 0 1 1.98-1.96c.84-.467 1.787-.7 2.84-.7 1.04 0 1.967.233 2.78.7a4.718 4.718 0 0 1 1.92 1.94c.467.827.7 1.787.7 2.88zm-5.4-3.52c-.8 0-1.48.24-2.04.72-.546.467-.88 1.093-1 1.88h6.06c-.106-.773-.433-1.4-.98-1.88-.546-.48-1.226-.72-2.04-.72zm8.135-1.88h2.5v4.34h5.38v-4.34h2.5V37h-2.5v-4.22h-5.38V37h-2.5V26.32zm13.73 0h2.5v7.04l5.9-7.04h2.28V37h-2.5v-7.04l-5.88 7.04h-2.3V26.32zm24.043 5.4c0 .173-.013.42-.04.74h-8.38c.147.787.527 1.413 1.14 1.88.627.453 1.4.68 2.32.68 1.174 0 2.14-.387 2.9-1.16l1.34 1.54a4.51 4.51 0 0 1-1.82 1.3c-.733.293-1.56.44-2.48.44-1.173 0-2.206-.233-3.1-.7-.893-.467-1.586-1.113-2.08-1.94-.48-.84-.72-1.787-.72-2.84 0-1.04.234-1.973.7-2.8a5.087 5.087 0 0 1 1.98-1.96c.84-.467 1.787-.7 2.84-.7 1.04 0 1.967.233 2.78.7a4.718 4.718 0 0 1 1.92 1.94c.467.827.7 1.787.7 2.88zm-5.4-3.52c-.8 0-1.48.24-2.04.72-.546.467-.88 1.093-1 1.88h6.06c-.106-.773-.433-1.4-.98-1.88-.546-.48-1.226-.72-2.04-.72zm26.342-5.2v14h-2.56V25.2h-7.26V37h-2.56V23h12.38zm10.428 14.2c-1.427 0-2.714-.307-3.86-.92a6.977 6.977 0 0 1-2.7-2.58c-.654-1.107-.98-2.34-.98-3.7 0-1.36.326-2.587.98-3.68a6.79 6.79 0 0 1 2.7-2.58c1.146-.627 2.433-.94 3.86-.94 1.426 0 2.713.313 3.86.94a6.847 6.847 0 0 1 2.7 2.56c.653 1.093.98 2.327.98 3.7 0 1.373-.327 2.607-.98 3.7a6.99 6.99 0 0 1-2.7 2.58c-1.147.613-2.434.92-3.86.92zm0-2.28c.933 0 1.773-.207 2.52-.62a4.655 4.655 0 0 0 1.76-1.76c.426-.76.64-1.607.64-2.54s-.214-1.773-.64-2.52a4.475 4.475 0 0 0-1.76-1.76c-.747-.427-1.587-.64-2.52-.64-.934 0-1.774.213-2.52.64-.747.413-1.334 1-1.76 1.76-.427.747-.64 1.587-.64 2.52s.213 1.78.64 2.54a4.641 4.641 0 0 0 1.76 1.76c.746.413 1.586.62 2.52.62zM72.484 44.6V53h-.876v-7.632h-5.316V53h-.876v-8.4h7.068zm5.234 8.46a3.319 3.319 0 0 1-1.644-.408 3.063 3.063 0 0 1-1.152-1.152 3.267 3.267 0 0 1-.42-1.656c0-.616.14-1.168.42-1.656.28-.488.664-.868 1.152-1.14a3.319 3.319 0 0 1 1.644-.408c.608 0 1.156.136 1.644.408.488.272.868.652 1.14 1.14.28.488.42 1.04.42 1.656 0 .616-.14 1.168-.42 1.656a2.976 2.976 0 0 1-1.14 1.152 3.319 3.319 0 0 1-1.644.408zm0-.756c.448 0 .848-.1 1.2-.3.36-.208.64-.5.84-.876.2-.376.3-.804.3-1.284s-.1-.908-.3-1.284c-.2-.376-.48-.664-.84-.864a2.314 2.314 0 0 0-1.2-.312c-.448 0-.852.104-1.212.312-.352.2-.632.488-.84.864-.2.376-.3.804-.3 1.284s.1.908.3 1.284c.208.376.488.668.84.876.36.2.764.3 1.212.3zm9.045-2.568c.856.2 1.284.716 1.284 1.548 0 .552-.204.976-.612 1.272-.408.296-1.016.444-1.824.444h-2.868v-6.312h2.784c.72 0 1.284.14 1.692.42.408.28.612.68.612 1.2 0 .344-.096.64-.288.888-.184.24-.444.42-.78.54zm-3.192-.24h1.896c.488 0 .86-.092 1.116-.276.264-.184.396-.452.396-.804 0-.352-.132-.616-.396-.792-.256-.176-.628-.264-1.116-.264h-1.896v2.136zm2.004 2.832c.544 0 .952-.088 1.224-.264.272-.176.408-.452.408-.828 0-.376-.124-.652-.372-.828-.248-.184-.64-.276-1.176-.276h-2.088v2.196h2.004zm7.121-3.408c.792.008 1.396.184 1.812.528.416.344.624.84.624 1.488 0 .672-.224 1.188-.672 1.548-.448.36-1.088.536-1.92.528L90.044 53v-6.312h.852v2.208l1.8.024zm3.492-2.232h.852V53h-.852v-6.312zm-3.696 5.676c.584.008 1.024-.108 1.32-.348.304-.248.456-.608.456-1.08 0-.464-.148-.808-.444-1.032-.296-.224-.74-.34-1.332-.348l-1.596-.024v2.808l1.596.024zm15.686-5.676V53h-8.712v-6.312h.852v5.568h3.096v-5.568h.852v5.568h3.06v-5.568h.852zm7.952 3.42h-5.28c.048.656.3 1.188.756 1.596.456.4 1.032.6 1.728.6.392 0 .752-.068 1.08-.204.328-.144.612-.352.852-.624l.48.552c-.28.336-.632.592-1.056.768a3.507 3.507 0 0 1-1.38.264c-.648 0-1.224-.136-1.728-.408a3.038 3.038 0 0 1-1.164-1.152 3.267 3.267 0 0 1-.42-1.656c0-.616.132-1.168.396-1.656.272-.488.64-.868 1.104-1.14.472-.272 1-.408 1.584-.408a3.05 3.05 0 0 1 1.572.408c.464.272.828.652 1.092 1.14.264.48.396 1.032.396 1.656l-.012.264zm-3.048-2.736c-.608 0-1.12.196-1.536.588-.408.384-.64.888-.696 1.512h4.476c-.056-.624-.292-1.128-.708-1.512-.408-.392-.92-.588-1.536-.588zm4.946-.684h.852v2.796h3.972v-2.796h.852V53h-.852v-2.784h-3.972V53h-.852v-6.312zm8.098 0h.852v2.796h3.972v-2.796h.852V53h-.852v-2.784h-3.972V53h-.852v-6.312zm10.27-.048c.824 0 1.456.208 1.896.624.44.408.66 1.016.66 1.824V53h-.816v-.984a1.947 1.947 0 0 1-.852.768c-.368.184-.808.276-1.32.276-.704 0-1.264-.168-1.68-.504-.416-.336-.624-.78-.624-1.332 0-.536.192-.968.576-1.296.392-.328 1.012-.492 1.86-.492h2.004v-.384c0-.544-.152-.956-.456-1.236-.304-.288-.748-.432-1.332-.432-.4 0-.784.068-1.152.204a2.822 2.822 0 0 0-.948.54l-.384-.636c.32-.272.704-.48 1.152-.624.448-.152.92-.228 1.416-.228zm-.3 5.748c.48 0 .892-.108 1.236-.324.344-.224.6-.544.768-.96v-1.032h-1.98c-1.08 0-1.62.376-1.62 1.128 0 .368.14.66.42.876.28.208.672.312 1.176.312zm9.972-5.7V53h-.78v-2.088H143.068L141.604 53h-.924l1.572-2.208c-.488-.136-.864-.368-1.128-.696-.264-.328-.396-.744-.396-1.248 0-.704.24-1.24.72-1.608.48-.368 1.136-.552 1.968-.552h2.652zm-4.476 2.184c0 .936.596 1.404 1.788 1.404h1.908v-2.832h-1.848c-1.232 0-1.848.476-1.848 1.428zm-68.76 14.96c0 .984-.324 1.756-.972 2.316-.648.56-1.564.864-2.748.912v2.268h-.828v-2.256c-1.176-.048-2.088-.352-2.736-.912-.64-.568-.96-1.344-.96-2.328 0-.976.32-1.74.96-2.292.648-.552 1.56-.852 2.736-.9v-2.544h.828v2.544c1.184.056 2.1.36 2.748.912.648.552.972 1.312.972 2.28zm-7.404 0c0 .752.24 1.34.72 1.764.488.424 1.2.664 2.136.72v-4.92c-.928.048-1.636.284-2.124.708-.488.416-.732.992-.732 1.728zm3.684 2.484c.936-.048 1.648-.284 2.136-.708.496-.424.744-1.016.744-1.776 0-.744-.248-1.324-.744-1.74-.488-.416-1.2-.648-2.136-.696v4.92zm10.71-5.628l-3.156 7.068c-.256.592-.552 1.012-.888 1.26-.336.248-.74.372-1.212.372-.304 0-.588-.048-.852-.144a1.846 1.846 0 0 1-.684-.432l.396-.636c.32.32.704.48 1.152.48.288 0 .532-.08.732-.24.208-.16.4-.432.576-.816l.276-.612-2.82-6.3h.888l2.376 5.364 2.376-5.364h.84zm1.328 0H82v2.796h3.972v-2.796h.853V67h-.852v-2.784H82V67h-.852v-6.312zm10.39 3.504H90.1V67h-.853v-6.312h.852v2.772h1.452l2.22-2.772h.924l-2.484 3.06L94.875 67h-1.008l-2.328-2.808zm11.256 2.064v2.328h-.804V67H96.22v-6.312h.852v5.568h3.852v-5.568h.852v5.568h1.02zm1.627-5.568h.852v5.016l4.212-5.016h.756V67h-.852v-5.016l-4.2 5.016h-.768v-6.312zm10.866 6.372a3.319 3.319 0 0 1-1.644-.408 3.063 3.063 0 0 1-1.152-1.152 3.267 3.267 0 0 1-.42-1.656c0-.616.14-1.168.42-1.656.28-.488.664-.868 1.152-1.14a3.319 3.319 0 0 1 1.644-.408c.608 0 1.156.136 1.644.408.488.272.868.652 1.14 1.14.28.488.42 1.04.42 1.656 0 .616-.14 1.168-.42 1.656a2.976 2.976 0 0 1-1.14 1.152 3.319 3.319 0 0 1-1.644.408zm0-.756c.448 0 .848-.1 1.2-.3.36-.208.64-.5.84-.876.2-.376.3-.804.3-1.284s-.1-.908-.3-1.284c-.2-.376-.48-.664-.84-.864a2.314 2.314 0 0 0-1.2-.312c-.448 0-.852.104-1.212.312-.352.2-.632.488-.84.864-.2.376-.3.804-.3 1.284s.1.908.3 1.284c.208.376.488.668.84.876.36.2.764.3 1.212.3zm5.025-5.616h.852v2.796h3.972v-2.796h.852V67h-.852v-2.784h-3.972V67h-.852v-6.312zm10.269-.048c.824 0 1.456.208 1.896.624.44.408.66 1.016.66 1.824V67h-.816v-.984a1.947 1.947 0 0 1-.852.768c-.368.184-.808.276-1.32.276-.704 0-1.264-.168-1.68-.504-.416-.336-.624-.78-.624-1.332 0-.536.192-.968.576-1.296.392-.328 1.012-.492 1.86-.492h2.004v-.384c0-.544-.152-.956-.456-1.236-.304-.288-.748-.432-1.332-.432-.4 0-.784.068-1.152.204a2.822 2.822 0 0 0-.948.54l-.384-.636c.32-.272.704-.48 1.152-.624.448-.152.92-.228 1.416-.228zm-.3 5.748c.48 0 .892-.108 1.236-.324.344-.224.6-.544.768-.96v-1.032h-1.98c-1.08 0-1.62.376-1.62 1.128 0 .368.14.66.42.876.28.208.672.312 1.176.312zm10.284-5.7V67h-.852v-5.556h-3.024l-.084 1.56c-.064 1.312-.216 2.32-.456 3.024-.24.704-.668 1.056-1.284 1.056-.168 0-.372-.032-.612-.096l.06-.732c.144.032.244.048.3.048.328 0 .576-.152.744-.456.168-.304.28-.68.336-1.128a26.6 26.6 0 0 0 .144-1.776l.108-2.256h4.62zm5.134 2.232c.792.008 1.392.184 1.8.528.416.344.624.84.624 1.488 0 .672-.224 1.188-.672 1.548-.44.36-1.08.536-1.92.528L142.989 67v-6.312h.852v2.208l1.86.024zm-.216 3.444c.584.008 1.024-.108 1.32-.348.304-.248.456-.608.456-1.08 0-.464-.148-.808-.444-1.032-.296-.224-.74-.34-1.332-.348l-1.644-.024v2.808l1.644.024zm4.266-5.676h.852v2.796h3.972v-2.796h.852V67h-.852v-2.784h-3.972V67h-.852v-6.312zm10.702 6.372a3.319 3.319 0 0 1-1.644-.408 3.063 3.063 0 0 1-1.152-1.152 3.267 3.267 0 0 1-.42-1.656c0-.616.14-1.168.42-1.656.28-.488.664-.868 1.152-1.14a3.319 3.319 0 0 1 1.644-.408c.608 0 1.156.136 1.644.408.488.272.868.652 1.14 1.14.28.488.42 1.04.42 1.656 0 .616-.14 1.168-.42 1.656a2.976 2.976 0 0 1-1.14 1.152 3.319 3.319 0 0 1-1.644.408zm0-.756c.448 0 .848-.1 1.2-.3.36-.208.64-.5.84-.876.2-.376.3-.804.3-1.284s-.1-.908-.3-1.284c-.2-.376-.48-.664-.84-.864a2.314 2.314 0 0 0-1.2-.312c-.448 0-.852.104-1.212.312-.352.2-.632.488-.84.864-.2.376-.3.804-.3 1.284s.1.908.3 1.284c.208.376.488.668.84.876.36.2.764.3 1.212.3zm7.665.756a3.436 3.436 0 0 1-1.68-.408 2.976 2.976 0 0 1-1.152-1.14 3.333 3.333 0 0 1-.42-1.668c0-.616.14-1.168.42-1.656.28-.488.664-.868 1.152-1.14a3.436 3.436 0 0 1 1.68-.408c.544 0 1.028.108 1.452.324.432.208.772.516 1.02.924l-.636.432a1.945 1.945 0 0 0-.792-.696c-.32-.16-.668-.24-1.044-.24-.456 0-.868.104-1.236.312-.36.2-.644.488-.852.864-.2.376-.3.804-.3 1.284 0 .488.1.92.3 1.296.208.368.492.656.852.864.368.2.78.3 1.236.3.376 0 .724-.076 1.044-.228.32-.152.584-.384.792-.696l.636.432c-.248.408-.588.72-1.02.936a3.304 3.304 0 0 1-1.452.312zm8.444-5.616h-2.388V67h-.852v-5.556h-2.388v-.756h5.628v.756zm3.944 1.476c.792.008 1.392.184 1.8.528.416.344.624.84.624 1.488 0 .672-.224 1.188-.672 1.548-.44.36-1.08.536-1.92.528L177.794 67v-6.312h.852v2.208l1.86.024zm-.216 3.444c.584.008 1.024-.108 1.32-.348.304-.248.456-.608.456-1.08 0-.464-.148-.808-.444-1.032-.296-.224-.74-.34-1.332-.348l-1.644-.024v2.808l1.644.024zM7.154 32.623a2.458 2.458 0 0 0 0 3.41 2.33 2.33 0 0 0 3.336 0 16.053 16.053 0 0 1 23.03 0 2.324 2.324 0 0 0 1.663.709c.602 0 1.205-.24 1.663-.708a2.457 2.457 0 0 0 0-3.41 20.687 20.687 0 0 0-29.692 0z" fill="#fff"/><path d="M13.52 39.132a2.458 2.458 0 0 0 0 3.41 2.33 2.33 0 0 0 3.336 0 7.161 7.161 0 0 1 10.288 0 2.324 2.324 0 0 0 1.663.708c.603 0 1.205-.239 1.664-.708a2.446 2.446 0 0 0 0-3.4 11.803 11.803 0 0 0-16.95-.01zM22 51c1.733 0 3.138-1.437 3.138-3.208 0-1.772-1.405-3.209-3.138-3.209-1.733 0-3.138 1.437-3.138 3.209C18.862 49.563 20.267 51 22 51zM43.312 26.005a29.723 29.723 0 0 0-42.624 0c-.917.937-.917 2.463 0 3.41a2.33 2.33 0 0 0 3.336 0 25.058 25.058 0 0 1 35.96 0 2.324 2.324 0 0 0 1.664.708c.603 0 1.205-.24 1.664-.708.917-.938.917-2.464 0-3.41z" fill="#fff"/></svg>