<svg width="269" height="71" viewBox="0 0 269 71" fill="none" xmlns="http://www.w3.org/2000/svg">
<path d="M65.98 5H76.88V7.14H68.54V10.58H72.68C74.36 10.58 75.6333 10.9333 76.5 11.64C77.38 12.3333 77.82 13.34 77.82 14.66C77.82 16.0467 77.34 17.12 76.38 17.88C75.42 18.6267 74.0533 19 72.28 19H65.98V5ZM72.14 17C73.14 17 73.9 16.8067 74.42 16.42C74.94 16.0333 75.2 15.4733 75.2 14.74C75.2 13.3 74.18 12.58 72.14 12.58H68.54V17H72.14ZM90.387 13.72C90.387 13.8933 90.3737 14.14 90.347 14.46H81.967C82.1137 15.2467 82.4937 15.8733 83.107 16.34C83.7337 16.7933 84.507 17.02 85.427 17.02C86.6004 17.02 87.567 16.6333 88.327 15.86L89.667 17.4C89.187 17.9733 88.5804 18.4067 87.847 18.7C87.1137 18.9933 86.287 19.14 85.367 19.14C84.1937 19.14 83.1604 18.9067 82.267 18.44C81.3737 17.9733 80.6804 17.3267 80.187 16.5C79.707 15.66 79.467 14.7133 79.467 13.66C79.467 12.62 79.7004 11.6867 80.167 10.86C80.647 10.02 81.307 9.36667 82.147 8.9C82.987 8.43333 83.9337 8.2 84.987 8.2C86.027 8.2 86.9537 8.43333 87.767 8.9C88.5937 9.35333 89.2337 10 89.687 10.84C90.1537 11.6667 90.387 12.6267 90.387 13.72ZM84.987 10.2C84.187 10.2 83.507 10.44 82.947 10.92C82.4004 11.3867 82.067 12.0133 81.947 12.8H88.007C87.9004 12.0267 87.5737 11.4 87.027 10.92C86.4804 10.44 85.8004 10.2 84.987 10.2ZM97.9814 19.14C96.8747 19.14 95.8814 18.9067 95.0014 18.44C94.1214 17.9733 93.4347 17.3267 92.9414 16.5C92.4481 15.66 92.2014 14.7133 92.2014 13.66C92.2014 12.6067 92.4481 11.6667 92.9414 10.84C93.4347 10.0133 94.1147 9.36667 94.9814 8.9C95.8614 8.43333 96.8614 8.2 97.9814 8.2C99.0347 8.2 99.9547 8.41333 100.741 8.84C101.541 9.26667 102.141 9.88 102.541 10.68L100.621 11.8C100.315 11.3067 99.9281 10.94 99.4614 10.7C99.0081 10.4467 98.5081 10.32 97.9614 10.32C97.0281 10.32 96.2547 10.6267 95.6414 11.24C95.0281 11.84 94.7214 12.6467 94.7214 13.66C94.7214 14.6733 95.0214 15.4867 95.6214 16.1C96.2347 16.7 97.0147 17 97.9614 17C98.5081 17 99.0081 16.88 99.4614 16.64C99.9281 16.3867 100.315 16.0133 100.621 15.52L102.541 16.64C102.128 17.44 101.521 18.06 100.721 18.5C99.9347 18.9267 99.0214 19.14 97.9814 19.14ZM114.983 8.32V19H112.503V10.44H107.243V19H104.743V8.32H114.983ZM124.276 8.2C125.316 8.2 126.242 8.42667 127.056 8.88C127.882 9.33333 128.529 9.97333 128.996 10.8C129.462 11.6267 129.696 12.58 129.696 13.66C129.696 14.74 129.462 15.7 128.996 16.54C128.529 17.3667 127.882 18.0067 127.056 18.46C126.242 18.9133 125.316 19.14 124.276 19.14C122.836 19.14 121.696 18.66 120.856 17.7V22.88H118.356V8.32H120.736V9.72C121.149 9.21333 121.656 8.83333 122.256 8.58C122.869 8.32667 123.542 8.2 124.276 8.2ZM123.996 17C124.916 17 125.669 16.6933 126.256 16.08C126.856 15.4667 127.156 14.66 127.156 13.66C127.156 12.66 126.856 11.8533 126.256 11.24C125.669 10.6267 124.916 10.32 123.996 10.32C123.396 10.32 122.856 10.46 122.376 10.74C121.896 11.0067 121.516 11.3933 121.236 11.9C120.956 12.4067 120.816 12.9933 120.816 13.66C120.816 14.3267 120.956 14.9133 121.236 15.42C121.516 15.9267 121.896 16.32 122.376 16.6C122.856 16.8667 123.396 17 123.996 17ZM136.944 19.14C135.864 19.14 134.891 18.9067 134.024 18.44C133.157 17.9733 132.477 17.3267 131.984 16.5C131.504 15.66 131.264 14.7133 131.264 13.66C131.264 12.6067 131.504 11.6667 131.984 10.84C132.477 10.0133 133.157 9.36667 134.024 8.9C134.891 8.43333 135.864 8.2 136.944 8.2C138.037 8.2 139.017 8.43333 139.884 8.9C140.751 9.36667 141.424 10.0133 141.904 10.84C142.397 11.6667 142.644 12.6067 142.644 13.66C142.644 14.7133 142.397 15.66 141.904 16.5C141.424 17.3267 140.751 17.9733 139.884 18.44C139.017 18.9067 138.037 19.14 136.944 19.14ZM136.944 17C137.864 17 138.624 16.6933 139.224 16.08C139.824 15.4667 140.124 14.66 140.124 13.66C140.124 12.66 139.824 11.8533 139.224 11.24C138.624 10.6267 137.864 10.32 136.944 10.32C136.024 10.32 135.264 10.6267 134.664 11.24C134.077 11.8533 133.784 12.66 133.784 13.66C133.784 14.66 134.077 15.4667 134.664 16.08C135.264 16.6933 136.024 17 136.944 17ZM152.854 13.44C154.174 13.84 154.834 14.6933 154.834 16C154.834 16.96 154.474 17.7 153.754 18.22C153.034 18.74 151.967 19 150.554 19H145.114V8.32H150.334C151.64 8.32 152.66 8.56 153.394 9.04C154.127 9.52 154.494 10.2 154.494 11.08C154.494 11.6267 154.347 12.1 154.054 12.5C153.774 12.9 153.374 13.2133 152.854 13.44ZM147.494 12.78H150.114C151.407 12.78 152.054 12.3333 152.054 11.44C152.054 10.5733 151.407 10.14 150.114 10.14H147.494V12.78ZM150.354 17.18C151.727 17.18 152.414 16.7333 152.414 15.84C152.414 15.3733 152.254 15.0267 151.934 14.8C151.614 14.56 151.114 14.44 150.434 14.44H147.494V17.18H150.354ZM162.256 19.14C161.176 19.14 160.203 18.9067 159.336 18.44C158.47 17.9733 157.79 17.3267 157.296 16.5C156.816 15.66 156.576 14.7133 156.576 13.66C156.576 12.6067 156.816 11.6667 157.296 10.84C157.79 10.0133 158.47 9.36667 159.336 8.9C160.203 8.43333 161.176 8.2 162.256 8.2C163.35 8.2 164.33 8.43333 165.196 8.9C166.063 9.36667 166.736 10.0133 167.216 10.84C167.71 11.6667 167.956 12.6067 167.956 13.66C167.956 14.7133 167.71 15.66 167.216 16.5C166.736 17.3267 166.063 17.9733 165.196 18.44C164.33 18.9067 163.35 19.14 162.256 19.14ZM162.256 17C163.176 17 163.936 16.6933 164.536 16.08C165.136 15.4667 165.436 14.66 165.436 13.66C165.436 12.66 165.136 11.8533 164.536 11.24C163.936 10.6267 163.176 10.32 162.256 10.32C161.336 10.32 160.576 10.6267 159.976 11.24C159.39 11.8533 159.096 12.66 159.096 13.66C159.096 14.66 159.39 15.4667 159.976 16.08C160.576 16.6933 161.336 17 162.256 17ZM181.709 16.88V21.38H179.369V19H171.129V21.38H168.809V16.88H169.309C169.989 16.8533 170.449 16.42 170.689 15.58C170.942 14.7267 171.109 13.5267 171.189 11.98L171.329 8.32H180.129V16.88H181.709ZM173.469 12.16C173.416 13.3867 173.316 14.3867 173.169 15.16C173.022 15.9333 172.756 16.5067 172.369 16.88H177.629V10.44H173.529L173.469 12.16ZM183.942 8.32H186.442V12.66H191.822V8.32H194.322V19H191.822V14.78H186.442V19H183.942V8.32ZM202.432 19.14C201.352 19.14 200.379 18.9067 199.512 18.44C198.646 17.9733 197.966 17.3267 197.472 16.5C196.992 15.66 196.752 14.7133 196.752 13.66C196.752 12.6067 196.992 11.6667 197.472 10.84C197.966 10.0133 198.646 9.36667 199.512 8.9C200.379 8.43333 201.352 8.2 202.432 8.2C203.526 8.2 204.506 8.43333 205.372 8.9C206.239 9.36667 206.912 10.0133 207.392 10.84C207.886 11.6667 208.132 12.6067 208.132 13.66C208.132 14.7133 207.886 15.66 207.392 16.5C206.912 17.3267 206.239 17.9733 205.372 18.44C204.506 18.9067 203.526 19.14 202.432 19.14ZM202.432 17C203.352 17 204.112 16.6933 204.712 16.08C205.312 15.4667 205.612 14.66 205.612 13.66C205.612 12.66 205.312 11.8533 204.712 11.24C204.112 10.6267 203.352 10.32 202.432 10.32C201.512 10.32 200.752 10.6267 200.152 11.24C199.566 11.8533 199.272 12.66 199.272 13.66C199.272 14.66 199.566 15.4667 200.152 16.08C200.752 16.6933 201.512 17 202.432 17ZM220.602 13.72C220.602 13.8933 220.589 14.14 220.562 14.46H212.182C212.329 15.2467 212.709 15.8733 213.322 16.34C213.949 16.7933 214.722 17.02 215.642 17.02C216.815 17.02 217.782 16.6333 218.542 15.86L219.882 17.4C219.402 17.9733 218.795 18.4067 218.062 18.7C217.329 18.9933 216.502 19.14 215.582 19.14C214.409 19.14 213.375 18.9067 212.482 18.44C211.589 17.9733 210.895 17.3267 210.402 16.5C209.922 15.66 209.682 14.7133 209.682 13.66C209.682 12.62 209.915 11.6867 210.382 10.86C210.862 10.02 211.522 9.36667 212.362 8.9C213.202 8.43333 214.149 8.2 215.202 8.2C216.242 8.2 217.169 8.43333 217.982 8.9C218.809 9.35333 219.449 10 219.902 10.84C220.369 11.6667 220.602 12.6267 220.602 13.72ZM215.202 10.2C214.402 10.2 213.722 10.44 213.162 10.92C212.615 11.3867 212.282 12.0133 212.162 12.8H218.222C218.115 12.0267 217.789 11.4 217.242 10.92C216.695 10.44 216.015 10.2 215.202 10.2ZM70.44 37.14C69.36 37.14 68.3867 36.9067 67.52 36.44C66.6533 35.9733 65.9733 35.3267 65.48 34.5C65 33.66 64.76 32.7133 64.76 31.66C64.76 30.6067 65 29.6667 65.48 28.84C65.9733 28.0133 66.6533 27.3667 67.52 26.9C68.3867 26.4333 69.36 26.2 70.44 26.2C71.5333 26.2 72.5133 26.4333 73.38 26.9C74.2467 27.3667 74.92 28.0133 75.4 28.84C75.8933 29.6667 76.14 30.6067 76.14 31.66C76.14 32.7133 75.8933 33.66 75.4 34.5C74.92 35.3267 74.2467 35.9733 73.38 36.44C72.5133 36.9067 71.5333 37.14 70.44 37.14ZM70.44 35C71.36 35 72.12 34.6933 72.72 34.08C73.32 33.4667 73.62 32.66 73.62 31.66C73.62 30.66 73.32 29.8533 72.72 29.24C72.12 28.6267 71.36 28.32 70.44 28.32C69.52 28.32 68.76 28.6267 68.16 29.24C67.5733 29.8533 67.28 30.66 67.28 31.66C67.28 32.66 67.5733 33.4667 68.16 34.08C68.76 34.6933 69.52 35 70.44 35ZM84.3897 26.84C85.403 26.84 86.2964 27.06 87.0697 27.5C87.843 27.9267 88.443 28.5267 88.8697 29.3C89.3097 30.0733 89.5297 30.96 89.5297 31.96C89.5297 32.9867 89.2897 33.9 88.8097 34.7C88.3297 35.4867 87.6564 36.1 86.7897 36.54C85.923 36.98 84.9364 37.2 83.8297 37.2C81.9764 37.2 80.543 36.5867 79.5297 35.36C78.5164 34.1333 78.0097 32.3667 78.0097 30.06C78.0097 27.9133 78.4697 26.2133 79.3897 24.96C80.3097 23.7067 81.7164 22.88 83.6097 22.48L88.5697 21.42L88.9297 23.66L84.4297 24.58C83.1364 24.8467 82.1697 25.3 81.5297 25.94C80.8897 26.58 80.5164 27.48 80.4097 28.64C80.8897 28.0667 81.4697 27.6267 82.1497 27.32C82.8297 27 83.5764 26.84 84.3897 26.84ZM83.8897 35.18C84.8097 35.18 85.5497 34.8867 86.1097 34.3C86.683 33.7 86.9697 32.94 86.9697 32.02C86.9697 31.1 86.683 30.36 86.1097 29.8C85.5497 29.24 84.8097 28.96 83.8897 28.96C82.9564 28.96 82.203 29.24 81.6297 29.8C81.0564 30.36 80.7697 31.1 80.7697 32.02C80.7697 32.9533 81.0564 33.7133 81.6297 34.3C82.2164 34.8867 82.9697 35.18 83.8897 35.18ZM91.9495 26.32H94.4495V30.66H99.8295V26.32H102.33V37H99.8295V32.78H94.4495V37H91.9495V26.32ZM110.44 37.14C109.36 37.14 108.387 36.9067 107.52 36.44C106.653 35.9733 105.973 35.3267 105.48 34.5C105 33.66 104.76 32.7133 104.76 31.66C104.76 30.6067 105 29.6667 105.48 28.84C105.973 28.0133 106.653 27.3667 107.52 26.9C108.387 26.4333 109.36 26.2 110.44 26.2C111.533 26.2 112.513 26.4333 113.38 26.9C114.247 27.3667 114.92 28.0133 115.4 28.84C115.893 29.6667 116.14 30.6067 116.14 31.66C116.14 32.7133 115.893 33.66 115.4 34.5C114.92 35.3267 114.247 35.9733 113.38 36.44C112.513 36.9067 111.533 37.14 110.44 37.14ZM110.44 35C111.36 35 112.12 34.6933 112.72 34.08C113.32 33.4667 113.62 32.66 113.62 31.66C113.62 30.66 113.32 29.8533 112.72 29.24C112.12 28.6267 111.36 28.32 110.44 28.32C109.52 28.32 108.76 28.6267 108.16 29.24C107.573 29.8533 107.28 30.66 107.28 31.66C107.28 32.66 107.573 33.4667 108.16 34.08C108.76 34.6933 109.52 35 110.44 35ZM126.35 31.44C127.67 31.84 128.33 32.6933 128.33 34C128.33 34.96 127.97 35.7 127.25 36.22C126.53 36.74 125.463 37 124.05 37H118.61V26.32H123.83C125.136 26.32 126.156 26.56 126.89 27.04C127.623 27.52 127.99 28.2 127.99 29.08C127.99 29.6267 127.843 30.1 127.55 30.5C127.27 30.9 126.87 31.2133 126.35 31.44ZM120.99 30.78H123.61C124.903 30.78 125.55 30.3333 125.55 29.44C125.55 28.5733 124.903 28.14 123.61 28.14H120.99V30.78ZM123.85 35.18C125.223 35.18 125.91 34.7333 125.91 33.84C125.91 33.3733 125.75 33.0267 125.43 32.8C125.11 32.56 124.61 32.44 123.93 32.44H120.99V35.18H123.85ZM140.673 26.32V37H138.173V28.44H134.173L134.073 30.56C134.006 31.9733 133.873 33.16 133.673 34.12C133.486 35.0667 133.159 35.82 132.693 36.38C132.239 36.9267 131.613 37.2 130.813 37.2C130.439 37.2 129.979 37.1267 129.433 36.98L129.553 34.88C129.739 34.92 129.899 34.94 130.033 34.94C130.539 34.94 130.919 34.74 131.173 34.34C131.426 33.9267 131.586 33.44 131.653 32.88C131.733 32.3067 131.799 31.4933 131.853 30.44L132.033 26.32H140.673ZM154.039 31.72C154.039 31.8933 154.026 32.14 153.999 32.46H145.619C145.766 33.2467 146.146 33.8733 146.759 34.34C147.386 34.7933 148.159 35.02 149.079 35.02C150.253 35.02 151.219 34.6333 151.979 33.86L153.319 35.4C152.839 35.9733 152.233 36.4067 151.499 36.7C150.766 36.9933 149.939 37.14 149.019 37.14C147.846 37.14 146.813 36.9067 145.919 36.44C145.026 35.9733 144.333 35.3267 143.839 34.5C143.359 33.66 143.119 32.7133 143.119 31.66C143.119 30.62 143.353 29.6867 143.819 28.86C144.299 28.02 144.959 27.3667 145.799 26.9C146.639 26.4333 147.586 26.2 148.639 26.2C149.679 26.2 150.606 26.4333 151.419 26.9C152.246 27.3533 152.886 28 153.339 28.84C153.806 29.6667 154.039 30.6267 154.039 31.72ZM148.639 28.2C147.839 28.2 147.159 28.44 146.599 28.92C146.053 29.3867 145.719 30.0133 145.599 30.8H151.659C151.553 30.0267 151.226 29.4 150.679 28.92C150.133 28.44 149.453 28.2 148.639 28.2ZM156.774 26.32H159.274V30.66H164.654V26.32H167.154V37H164.654V32.78H159.274V37H156.774V26.32ZM170.504 26.32H173.004V33.36L178.904 26.32H181.184V37H178.684V29.96L172.804 37H170.504V26.32ZM194.547 31.72C194.547 31.8933 194.534 32.14 194.507 32.46H186.127C186.274 33.2467 186.654 33.8733 187.267 34.34C187.894 34.7933 188.667 35.02 189.587 35.02C190.761 35.02 191.727 34.6333 192.487 33.86L193.827 35.4C193.347 35.9733 192.741 36.4067 192.007 36.7C191.274 36.9933 190.447 37.14 189.527 37.14C188.354 37.14 187.321 36.9067 186.427 36.44C185.534 35.9733 184.841 35.3267 184.347 34.5C183.867 33.66 183.627 32.7133 183.627 31.66C183.627 30.62 183.861 29.6867 184.327 28.86C184.807 28.02 185.467 27.3667 186.307 26.9C187.147 26.4333 188.094 26.2 189.147 26.2C190.187 26.2 191.114 26.4333 191.927 26.9C192.754 27.3533 193.394 28 193.847 28.84C194.314 29.6667 194.547 30.6267 194.547 31.72ZM189.147 28.2C188.347 28.2 187.667 28.44 187.107 28.92C186.561 29.3867 186.227 30.0133 186.107 30.8H192.167C192.061 30.0267 191.734 29.4 191.187 28.92C190.641 28.44 189.961 28.2 189.147 28.2ZM215.489 23V37H212.929V25.2H205.669V37H203.109V23H215.489ZM225.917 37.2C224.49 37.2 223.203 36.8933 222.057 36.28C220.91 35.6533 220.01 34.7933 219.357 33.7C218.703 32.5933 218.377 31.36 218.377 30C218.377 28.64 218.703 27.4133 219.357 26.32C220.01 25.2133 220.91 24.3533 222.057 23.74C223.203 23.1133 224.49 22.8 225.917 22.8C227.343 22.8 228.63 23.1133 229.777 23.74C230.923 24.3533 231.823 25.2067 232.477 26.3C233.13 27.3933 233.457 28.6267 233.457 30C233.457 31.3733 233.13 32.6067 232.477 33.7C231.823 34.7933 230.923 35.6533 229.777 36.28C228.63 36.8933 227.343 37.2 225.917 37.2ZM225.917 34.92C226.85 34.92 227.69 34.7133 228.437 34.3C229.183 33.8733 229.77 33.2867 230.197 32.54C230.623 31.78 230.837 30.9333 230.837 30C230.837 29.0667 230.623 28.2267 230.197 27.48C229.77 26.72 229.183 26.1333 228.437 25.72C227.69 25.2933 226.85 25.08 225.917 25.08C224.983 25.08 224.143 25.2933 223.397 25.72C222.65 26.1333 222.063 26.72 221.637 27.48C221.21 28.2267 220.997 29.0667 220.997 30C220.997 30.9333 221.21 31.78 221.637 32.54C222.063 33.2867 222.65 33.8733 223.397 34.3C224.143 34.7133 224.983 34.92 225.917 34.92Z" fill="white"/>
<path d="M72.484 44.6V53H71.608V45.368H66.292V53H65.416V44.6H72.484ZM77.7183 53.06C77.1103 53.06 76.5623 52.924 76.0743 52.652C75.5863 52.372 75.2023 51.988 74.9223 51.5C74.6423 51.012 74.5023 50.46 74.5023 49.844C74.5023 49.228 74.6423 48.676 74.9223 48.188C75.2023 47.7 75.5863 47.32 76.0743 47.048C76.5623 46.776 77.1103 46.64 77.7183 46.64C78.3263 46.64 78.8743 46.776 79.3623 47.048C79.8503 47.32 80.2303 47.7 80.5023 48.188C80.7823 48.676 80.9223 49.228 80.9223 49.844C80.9223 50.46 80.7823 51.012 80.5023 51.5C80.2303 51.988 79.8503 52.372 79.3623 52.652C78.8743 52.924 78.3263 53.06 77.7183 53.06ZM77.7183 52.304C78.1663 52.304 78.5663 52.204 78.9183 52.004C79.2783 51.796 79.5583 51.504 79.7583 51.128C79.9583 50.752 80.0583 50.324 80.0583 49.844C80.0583 49.364 79.9583 48.936 79.7583 48.56C79.5583 48.184 79.2783 47.896 78.9183 47.696C78.5663 47.488 78.1663 47.384 77.7183 47.384C77.2703 47.384 76.8663 47.488 76.5063 47.696C76.1543 47.896 75.8743 48.184 75.6663 48.56C75.4663 48.936 75.3663 49.364 75.3663 49.844C75.3663 50.324 75.4663 50.752 75.6663 51.128C75.8743 51.504 76.1543 51.796 76.5063 52.004C76.8663 52.204 77.2703 52.304 77.7183 52.304ZM86.7633 49.736C87.6193 49.936 88.0473 50.452 88.0473 51.284C88.0473 51.836 87.8433 52.26 87.4353 52.556C87.0273 52.852 86.4193 53 85.6113 53H82.7433V46.688H85.5273C86.2473 46.688 86.8113 46.828 87.2193 47.108C87.6273 47.388 87.8313 47.788 87.8313 48.308C87.8313 48.652 87.7353 48.948 87.5433 49.196C87.3593 49.436 87.0993 49.616 86.7633 49.736ZM83.5713 49.496H85.4673C85.9553 49.496 86.3273 49.404 86.5833 49.22C86.8473 49.036 86.9793 48.768 86.9793 48.416C86.9793 48.064 86.8473 47.8 86.5833 47.624C86.3273 47.448 85.9553 47.36 85.4673 47.36H83.5713V49.496ZM85.5753 52.328C86.1193 52.328 86.5273 52.24 86.7993 52.064C87.0713 51.888 87.2073 51.612 87.2073 51.236C87.2073 50.86 87.0833 50.584 86.8353 50.408C86.5873 50.224 86.1953 50.132 85.6593 50.132H83.5713V52.328H85.5753ZM92.696 48.92C93.488 48.928 94.092 49.104 94.508 49.448C94.924 49.792 95.132 50.288 95.132 50.936C95.132 51.608 94.908 52.124 94.46 52.484C94.012 52.844 93.372 53.02 92.54 53.012L90.044 53V46.688H90.896V48.896L92.696 48.92ZM96.188 46.688H97.04V53H96.188V46.688ZM92.492 52.364C93.076 52.372 93.516 52.256 93.812 52.016C94.116 51.768 94.268 51.408 94.268 50.936C94.268 50.472 94.12 50.128 93.824 49.904C93.528 49.68 93.084 49.564 92.492 49.556L90.896 49.532V52.34L92.492 52.364ZM108.178 46.688V53H99.4659V46.688H100.318V52.256H103.414V46.688H104.266V52.256H107.326V46.688H108.178ZM116.13 50.108H110.85C110.898 50.764 111.15 51.296 111.606 51.704C112.062 52.104 112.638 52.304 113.334 52.304C113.726 52.304 114.086 52.236 114.414 52.1C114.742 51.956 115.026 51.748 115.266 51.476L115.746 52.028C115.466 52.364 115.114 52.62 114.69 52.796C114.274 52.972 113.814 53.06 113.31 53.06C112.662 53.06 112.086 52.924 111.582 52.652C111.086 52.372 110.698 51.988 110.418 51.5C110.138 51.012 109.998 50.46 109.998 49.844C109.998 49.228 110.13 48.676 110.394 48.188C110.666 47.7 111.034 47.32 111.498 47.048C111.97 46.776 112.498 46.64 113.082 46.64C113.666 46.64 114.19 46.776 114.654 47.048C115.118 47.32 115.482 47.7 115.746 48.188C116.01 48.668 116.142 49.22 116.142 49.844L116.13 50.108ZM113.082 47.372C112.474 47.372 111.962 47.568 111.546 47.96C111.138 48.344 110.906 48.848 110.85 49.472H115.326C115.27 48.848 115.034 48.344 114.618 47.96C114.21 47.568 113.698 47.372 113.082 47.372ZM118.028 46.688H118.88V49.484H122.852V46.688H123.704V53H122.852V50.216H118.88V53H118.028V46.688ZM126.126 46.688H126.978V49.484H130.95V46.688H131.802V53H130.95V50.216H126.978V53H126.126V46.688ZM136.396 46.64C137.22 46.64 137.852 46.848 138.292 47.264C138.732 47.672 138.952 48.28 138.952 49.088V53H138.136V52.016C137.944 52.344 137.66 52.6 137.284 52.784C136.916 52.968 136.476 53.06 135.964 53.06C135.26 53.06 134.7 52.892 134.284 52.556C133.868 52.22 133.66 51.776 133.66 51.224C133.66 50.688 133.852 50.256 134.236 49.928C134.628 49.6 135.248 49.436 136.096 49.436H138.1V49.052C138.1 48.508 137.948 48.096 137.644 47.816C137.34 47.528 136.896 47.384 136.312 47.384C135.912 47.384 135.528 47.452 135.16 47.588C134.792 47.716 134.476 47.896 134.212 48.128L133.828 47.492C134.148 47.22 134.532 47.012 134.98 46.868C135.428 46.716 135.9 46.64 136.396 46.64ZM136.096 52.388C136.576 52.388 136.988 52.28 137.332 52.064C137.676 51.84 137.932 51.52 138.1 51.104V50.072H136.12C135.04 50.072 134.5 50.448 134.5 51.2C134.5 51.568 134.64 51.86 134.92 52.076C135.2 52.284 135.592 52.388 136.096 52.388ZM146.068 46.688V53H145.288V50.912H143.308H143.068L141.604 53H140.68L142.252 50.792C141.764 50.656 141.388 50.424 141.124 50.096C140.86 49.768 140.728 49.352 140.728 48.848C140.728 48.144 140.968 47.608 141.448 47.24C141.928 46.872 142.584 46.688 143.416 46.688H146.068ZM141.592 48.872C141.592 49.808 142.188 50.276 143.38 50.276H145.288V47.444H143.44C142.208 47.444 141.592 47.92 141.592 48.872ZM72.832 63.832C72.832 64.816 72.508 65.588 71.86 66.148C71.212 66.708 70.296 67.012 69.112 67.06V69.328H68.284V67.072C67.108 67.024 66.196 66.72 65.548 66.16C64.908 65.592 64.588 64.816 64.588 63.832C64.588 62.856 64.908 62.092 65.548 61.54C66.196 60.988 67.108 60.688 68.284 60.64V58.096H69.112V60.64C70.296 60.696 71.212 61 71.86 61.552C72.508 62.104 72.832 62.864 72.832 63.832ZM65.428 63.832C65.428 64.584 65.668 65.172 66.148 65.596C66.636 66.02 67.348 66.26 68.284 66.316V61.396C67.356 61.444 66.648 61.68 66.16 62.104C65.672 62.52 65.428 63.096 65.428 63.832ZM69.112 66.316C70.048 66.268 70.76 66.032 71.248 65.608C71.744 65.184 71.992 64.592 71.992 63.832C71.992 63.088 71.744 62.508 71.248 62.092C70.76 61.676 70.048 61.444 69.112 61.396V66.316ZM79.8221 60.688L76.6661 67.756C76.4101 68.348 76.1141 68.768 75.7781 69.016C75.4421 69.264 75.0381 69.388 74.5661 69.388C74.2621 69.388 73.9781 69.34 73.7141 69.244C73.4501 69.148 73.2221 69.004 73.0301 68.812L73.4261 68.176C73.7461 68.496 74.1301 68.656 74.5781 68.656C74.8661 68.656 75.1101 68.576 75.3101 68.416C75.5181 68.256 75.7101 67.984 75.8861 67.6L76.1621 66.988L73.3421 60.688H74.2301L76.6061 66.052L78.9821 60.688H79.8221ZM81.1495 60.688H82.0015V63.484H85.9735V60.688H86.8255V67H85.9735V64.216H82.0015V67H81.1495V60.688ZM91.5392 64.192H90.0992V67H89.2472V60.688H90.0992V63.46H91.5512L93.7712 60.688H94.6952L92.2112 63.748L94.8752 67H93.8672L91.5392 64.192ZM102.796 66.256V68.584H101.992V67H96.2198V60.688H97.0718V66.256H100.924V60.688H101.776V66.256H102.796ZM104.423 60.688H105.275V65.704L109.487 60.688H110.243V67H109.391V61.984L105.191 67H104.423V60.688ZM115.289 67.06C114.681 67.06 114.133 66.924 113.645 66.652C113.157 66.372 112.773 65.988 112.493 65.5C112.213 65.012 112.073 64.46 112.073 63.844C112.073 63.228 112.213 62.676 112.493 62.188C112.773 61.7 113.157 61.32 113.645 61.048C114.133 60.776 114.681 60.64 115.289 60.64C115.897 60.64 116.445 60.776 116.933 61.048C117.421 61.32 117.801 61.7 118.073 62.188C118.353 62.676 118.493 63.228 118.493 63.844C118.493 64.46 118.353 65.012 118.073 65.5C117.801 65.988 117.421 66.372 116.933 66.652C116.445 66.924 115.897 67.06 115.289 67.06ZM115.289 66.304C115.737 66.304 116.137 66.204 116.489 66.004C116.849 65.796 117.129 65.504 117.329 65.128C117.529 64.752 117.629 64.324 117.629 63.844C117.629 63.364 117.529 62.936 117.329 62.56C117.129 62.184 116.849 61.896 116.489 61.696C116.137 61.488 115.737 61.384 115.289 61.384C114.841 61.384 114.437 61.488 114.077 61.696C113.725 61.896 113.445 62.184 113.237 62.56C113.037 62.936 112.937 63.364 112.937 63.844C112.937 64.324 113.037 64.752 113.237 65.128C113.445 65.504 113.725 65.796 114.077 66.004C114.437 66.204 114.841 66.304 115.289 66.304ZM120.314 60.688H121.166V63.484H125.138V60.688H125.99V67H125.138V64.216H121.166V67H120.314V60.688ZM130.583 60.64C131.407 60.64 132.039 60.848 132.479 61.264C132.919 61.672 133.139 62.28 133.139 63.088V67H132.323V66.016C132.131 66.344 131.847 66.6 131.471 66.784C131.103 66.968 130.663 67.06 130.151 67.06C129.447 67.06 128.887 66.892 128.471 66.556C128.055 66.22 127.847 65.776 127.847 65.224C127.847 64.688 128.039 64.256 128.423 63.928C128.815 63.6 129.435 63.436 130.283 63.436H132.287V63.052C132.287 62.508 132.135 62.096 131.831 61.816C131.527 61.528 131.083 61.384 130.499 61.384C130.099 61.384 129.715 61.452 129.347 61.588C128.979 61.716 128.663 61.896 128.399 62.128L128.015 61.492C128.335 61.22 128.719 61.012 129.167 60.868C129.615 60.716 130.087 60.64 130.583 60.64ZM130.283 66.388C130.763 66.388 131.175 66.28 131.519 66.064C131.863 65.84 132.119 65.52 132.287 65.104V64.072H130.307C129.227 64.072 128.687 64.448 128.687 65.2C128.687 65.568 128.827 65.86 129.107 66.076C129.387 66.284 129.779 66.388 130.283 66.388ZM140.567 60.688V67H139.715V61.444H136.691L136.607 63.004C136.543 64.316 136.391 65.324 136.151 66.028C135.911 66.732 135.483 67.084 134.867 67.084C134.699 67.084 134.495 67.052 134.255 66.988L134.315 66.256C134.459 66.288 134.559 66.304 134.615 66.304C134.943 66.304 135.191 66.152 135.359 65.848C135.527 65.544 135.639 65.168 135.695 64.72C135.751 64.272 135.799 63.68 135.839 62.944L135.947 60.688H140.567ZM145.701 62.92C146.493 62.928 147.093 63.104 147.501 63.448C147.917 63.792 148.125 64.288 148.125 64.936C148.125 65.608 147.901 66.124 147.453 66.484C147.013 66.844 146.373 67.02 145.533 67.012L142.989 67V60.688H143.841V62.896L145.701 62.92ZM145.485 66.364C146.069 66.372 146.509 66.256 146.805 66.016C147.109 65.768 147.261 65.408 147.261 64.936C147.261 64.472 147.113 64.128 146.817 63.904C146.521 63.68 146.077 63.564 145.485 63.556L143.841 63.532V66.34L145.485 66.364ZM149.751 60.688H150.603V63.484H154.575V60.688H155.427V67H154.575V64.216H150.603V67H149.751V60.688ZM160.453 67.06C159.845 67.06 159.297 66.924 158.809 66.652C158.321 66.372 157.937 65.988 157.657 65.5C157.377 65.012 157.237 64.46 157.237 63.844C157.237 63.228 157.377 62.676 157.657 62.188C157.937 61.7 158.321 61.32 158.809 61.048C159.297 60.776 159.845 60.64 160.453 60.64C161.061 60.64 161.609 60.776 162.097 61.048C162.585 61.32 162.965 61.7 163.237 62.188C163.517 62.676 163.657 63.228 163.657 63.844C163.657 64.46 163.517 65.012 163.237 65.5C162.965 65.988 162.585 66.372 162.097 66.652C161.609 66.924 161.061 67.06 160.453 67.06ZM160.453 66.304C160.901 66.304 161.301 66.204 161.653 66.004C162.013 65.796 162.293 65.504 162.493 65.128C162.693 64.752 162.793 64.324 162.793 63.844C162.793 63.364 162.693 62.936 162.493 62.56C162.293 62.184 162.013 61.896 161.653 61.696C161.301 61.488 160.901 61.384 160.453 61.384C160.005 61.384 159.601 61.488 159.241 61.696C158.889 61.896 158.609 62.184 158.401 62.56C158.201 62.936 158.101 63.364 158.101 63.844C158.101 64.324 158.201 64.752 158.401 65.128C158.609 65.504 158.889 65.796 159.241 66.004C159.601 66.204 160.005 66.304 160.453 66.304ZM168.118 67.06C167.494 67.06 166.934 66.924 166.438 66.652C165.95 66.38 165.566 66 165.286 65.512C165.006 65.016 164.866 64.46 164.866 63.844C164.866 63.228 165.006 62.676 165.286 62.188C165.566 61.7 165.95 61.32 166.438 61.048C166.934 60.776 167.494 60.64 168.118 60.64C168.662 60.64 169.146 60.748 169.57 60.964C170.002 61.172 170.342 61.48 170.59 61.888L169.954 62.32C169.746 62.008 169.482 61.776 169.162 61.624C168.842 61.464 168.494 61.384 168.118 61.384C167.662 61.384 167.25 61.488 166.882 61.696C166.522 61.896 166.238 62.184 166.03 62.56C165.83 62.936 165.73 63.364 165.73 63.844C165.73 64.332 165.83 64.764 166.03 65.14C166.238 65.508 166.522 65.796 166.882 66.004C167.25 66.204 167.662 66.304 168.118 66.304C168.494 66.304 168.842 66.228 169.162 66.076C169.482 65.924 169.746 65.692 169.954 65.38L170.59 65.812C170.342 66.22 170.002 66.532 169.57 66.748C169.138 66.956 168.654 67.06 168.118 67.06ZM176.562 61.444H174.174V67H173.322V61.444H170.934V60.688H176.562V61.444ZM180.506 62.92C181.298 62.928 181.898 63.104 182.306 63.448C182.722 63.792 182.93 64.288 182.93 64.936C182.93 65.608 182.706 66.124 182.258 66.484C181.818 66.844 181.178 67.02 180.338 67.012L177.794 67V60.688H178.646V62.896L180.506 62.92ZM180.29 66.364C180.874 66.372 181.314 66.256 181.61 66.016C181.914 65.768 182.066 65.408 182.066 64.936C182.066 64.472 181.918 64.128 181.622 63.904C181.326 63.68 180.882 63.564 180.29 63.556L178.646 63.532V66.34L180.29 66.364Z" fill="white"/>
<path d="M7.1535 32.6233C6.23627 33.561 6.23627 35.087 7.1535 36.0339C8.07073 36.9716 9.56347 36.9716 10.4897 36.0339C16.8384 29.5437 27.1707 29.5437 33.5193 36.0339C33.9779 36.5028 34.5804 36.7418 35.1829 36.7418C35.7854 36.7418 36.3879 36.5028 36.8465 36.0339C37.7638 35.0962 37.7638 33.5702 36.8465 32.6233C28.6634 24.2486 15.3366 24.2486 7.1535 32.6233Z" fill="white"/>
<path d="M13.5201 39.1319C12.6029 40.0696 12.6029 41.5956 13.5201 42.5425C14.4374 43.4802 15.9301 43.4802 16.8563 42.5425C19.6889 39.6376 24.3111 39.6376 27.1437 42.5425C27.6023 43.0114 28.2048 43.2504 28.8073 43.2504C29.4098 43.2504 30.0123 43.0114 30.4709 42.5425C31.3881 41.6048 31.3881 40.0788 30.4709 39.1411C25.8038 34.3516 18.1962 34.3516 13.5201 39.1319Z" fill="white"/>
<path d="M22 50.9999C23.7333 50.9999 25.1384 49.5635 25.1384 47.7916C25.1384 46.0197 23.7333 44.5833 22 44.5833C20.2667 44.5833 18.8616 46.0197 18.8616 47.7916C18.8616 49.5635 20.2667 50.9999 22 50.9999Z" fill="white"/>
<path d="M43.3121 26.0045C31.559 13.9985 12.441 13.9985 0.687922 26.0045C-0.229307 26.9421 -0.229307 28.4682 0.687922 29.415C1.60515 30.3527 3.0979 30.3527 4.02412 29.415C13.9338 19.2752 30.0662 19.2752 39.9849 29.415C40.4435 29.8839 41.046 30.1229 41.6485 30.1229C42.251 30.1229 42.8535 29.8839 43.3121 29.415C44.2293 28.4774 44.2293 26.9513 43.3121 26.0045Z" fill="white"/>
</svg>
