<svg width="102" height="16" viewBox="0 0 102 16" fill="none" xmlns="http://www.w3.org/2000/svg">
<path d="M8.60706 6.41072C9.66106 5.90072 10.2901 4.99972 10.2901 3.79272C10.2901 1.82072 8.65806 0.715722 5.90406 0.715722H0.362057V12.6157H6.22706C9.23606 12.6157 10.8511 11.3407 10.8511 9.26672C10.8511 7.82172 10.0521 6.83572 8.60706 6.41072ZM3.09906 2.75572H5.66606C6.85606 2.75572 7.48506 3.26572 7.48506 4.20072C7.48506 5.15272 6.85606 5.64572 5.66606 5.64572H3.09906V2.75572ZM6.12506 10.5757H3.09906V7.56672H6.12506C7.40006 7.56672 8.06306 8.04272 8.06306 9.04572C8.06306 10.0827 7.40006 10.5757 6.12506 10.5757ZM18.707 12.8197C22.447 12.8197 25.218 10.2187 25.218 6.66572C25.218 3.11272 22.447 0.511722 18.707 0.511722C14.95 0.511722 12.196 3.12972 12.196 6.66572C12.196 10.2017 14.95 12.8197 18.707 12.8197ZM18.707 10.4737C16.582 10.4737 14.984 8.92672 14.984 6.66572C14.984 4.40472 16.582 2.85772 18.707 2.85772C20.832 2.85772 22.43 4.40472 22.43 6.66572C22.43 8.92672 20.832 10.4737 18.707 10.4737ZM37.6156 10.3717V0.715722H28.4696L28.3336 4.43872C28.2146 7.77072 27.8236 10.3207 26.2766 10.3717H25.8006L25.7836 15.0807H28.3336V12.6157H36.7316V15.0807H39.2816V10.3717H37.6156ZM30.7646 4.69372L30.8156 2.95972H34.8956V10.3717H29.5746C30.3906 9.40272 30.6626 7.22672 30.7646 4.69372ZM41.1355 12.6157H43.7365L49.4145 4.88072V12.6157H52.1345V0.715722H49.5505L43.8725 8.46772V0.715722H41.1355V12.6157ZM64.1924 0.715722H53.8734V2.95972H57.6644V12.6157H60.3844V2.95972H64.1924V0.715722ZM68.6586 10.4057V7.65172H74.1836V5.50972H68.6586V2.92572H74.9146V0.715722H65.9216V12.6157H75.1356V10.4057H68.6586ZM78.8221 0.715722L78.6521 5.54372C78.5331 8.58672 78.1761 10.3547 76.7821 10.3547C76.6121 10.3547 76.4591 10.3377 76.2891 10.2867L76.1191 12.6157C76.6291 12.7347 77.0711 12.8027 77.4791 12.8027C80.2671 12.8027 80.9301 10.1167 81.0831 5.44172L81.1681 2.95972H85.2481V12.6157H87.9681V0.715722H78.8221ZM96.7032 4.62572H93.6772V0.715722H90.9402V12.6157H96.3122C99.3722 12.6157 101.208 11.2047 101.208 8.46772C101.208 5.90072 99.5762 4.62572 96.7032 4.62572ZM96.1592 10.5757H93.6772V6.66572H96.1592C97.5872 6.66572 98.4372 7.20972 98.4372 8.51872C98.4372 9.86172 97.5702 10.5757 96.1592 10.5757Z" fill="white"/>
</svg>
