<svg width="261" height="26" viewBox="0 0 261 26" fill="none" xmlns="http://www.w3.org/2000/svg">
<path d="M11.66 22.3C9.52 22.3 7.59 21.84 5.87 20.92C4.15 19.98 2.8 18.69 1.82 17.05C0.84 15.39 0.35 13.54 0.35 11.5C0.35 9.46 0.84 7.62 1.82 5.98C2.8 4.32 4.15 3.03 5.87 2.11C7.59 1.17 9.52 0.699999 11.66 0.699999C13.8 0.699999 15.73 1.17 17.45 2.11C19.17 3.03 20.52 4.31 21.5 5.95C22.48 7.59 22.97 9.44 22.97 11.5C22.97 13.56 22.48 15.41 21.5 17.05C20.52 18.69 19.17 19.98 17.45 20.92C15.73 21.84 13.8 22.3 11.66 22.3ZM11.66 18.88C13.06 18.88 14.32 18.57 15.44 17.95C16.56 17.31 17.44 16.43 18.08 15.31C18.72 14.17 19.04 12.9 19.04 11.5C19.04 10.1 18.72 8.84 18.08 7.72C17.44 6.58 16.56 5.7 15.44 5.08C14.32 4.44 13.06 4.12 11.66 4.12C10.26 4.12 9 4.44 7.88 5.08C6.76 5.7 5.88 6.58 5.24 7.72C4.6 8.84 4.28 10.1 4.28 11.5C4.28 12.9 4.6 14.17 5.24 15.31C5.88 16.43 6.76 17.31 7.88 17.95C9 18.57 10.26 18.88 11.66 18.88ZM44.4418 18.82V25.69H40.9318V22H26.8618V5.98H30.6118V18.82H38.2618V5.98H42.0118V18.82H44.4418ZM62.7798 14.08C62.7798 14.34 62.7598 14.71 62.7198 15.19H50.1498C50.3698 16.37 50.9398 17.31 51.8598 18.01C52.7998 18.69 53.9598 19.03 55.3398 19.03C57.0998 19.03 58.5498 18.45 59.6898 17.29L61.6998 19.6C60.9798 20.46 60.0698 21.11 58.9698 21.55C57.8698 21.99 56.6298 22.21 55.2498 22.21C53.4898 22.21 51.9398 21.86 50.5998 21.16C49.2598 20.46 48.2198 19.49 47.4798 18.25C46.7598 16.99 46.3998 15.57 46.3998 13.99C46.3998 12.43 46.7498 11.03 47.4498 9.79C48.1698 8.53 49.1598 7.55 50.4198 6.85C51.6798 6.15 53.0998 5.8 54.6798 5.8C56.2398 5.8 57.6298 6.15 58.8498 6.85C60.0898 7.53 61.0498 8.5 61.7298 9.76C62.4298 11 62.7798 12.44 62.7798 14.08ZM54.6798 8.8C53.4798 8.8 52.4598 9.16 51.6198 9.88C50.7998 10.58 50.2998 11.52 50.1198 12.7H59.2098C59.0498 11.54 58.5598 10.6 57.7398 9.88C56.9198 9.16 55.8998 8.8 54.6798 8.8ZM66.8813 5.98H70.6313V12.49H78.7013V5.98H82.4513V22H78.7013V15.67H70.6313V22H66.8813V5.98ZM94.137 15.58H91.227V22H87.477V5.98H91.227V12.46H94.227L98.967 5.98H102.987L97.167 13.69L103.377 22H98.967L94.137 15.58ZM111.699 5.8C114.059 5.8 115.859 6.37 117.099 7.51C118.359 8.63 118.989 10.33 118.989 12.61V22H115.449V20.05C114.989 20.75 114.329 21.29 113.469 21.67C112.629 22.03 111.609 22.21 110.409 22.21C109.209 22.21 108.159 22.01 107.259 21.61C106.359 21.19 105.659 20.62 105.159 19.9C104.679 19.16 104.439 18.33 104.439 17.41C104.439 15.97 104.969 14.82 106.029 13.96C107.109 13.08 108.799 12.64 111.099 12.64H115.239V12.4C115.239 11.28 114.899 10.42 114.219 9.82C113.559 9.22 112.569 8.92 111.249 8.92C110.349 8.92 109.459 9.06 108.579 9.34C107.719 9.62 106.989 10.01 106.389 10.51L104.919 7.78C105.759 7.14 106.769 6.65 107.949 6.31C109.129 5.97 110.379 5.8 111.699 5.8ZM111.189 19.48C112.129 19.48 112.959 19.27 113.679 18.85C114.419 18.41 114.939 17.79 115.239 16.99V15.13H111.369C109.209 15.13 108.129 15.84 108.129 17.26C108.129 17.94 108.399 18.48 108.939 18.88C109.479 19.28 110.229 19.48 111.189 19.48ZM141.49 13.66C142.49 13.94 143.26 14.4 143.8 15.04C144.36 15.66 144.64 16.41 144.64 17.29C144.64 18.27 144.31 19.14 143.65 19.9C142.99 20.64 142.08 21.22 140.92 21.64C139.76 22.06 138.44 22.27 136.96 22.27C135.72 22.27 134.51 22.13 133.33 21.85C132.15 21.55 131.08 21.13 130.12 20.59L131.2 17.8C131.98 18.24 132.86 18.58 133.84 18.82C134.82 19.06 135.8 19.18 136.78 19.18C138.04 19.18 139.02 18.99 139.72 18.61C140.44 18.21 140.8 17.67 140.8 16.99C140.8 16.37 140.52 15.89 139.96 15.55C139.42 15.21 138.65 15.04 137.65 15.04H134.53V12.52H137.35C138.29 12.52 139.02 12.36 139.54 12.04C140.08 11.72 140.35 11.27 140.35 10.69C140.35 10.11 140.03 9.65 139.39 9.31C138.75 8.97 137.87 8.8 136.75 8.8C135.15 8.8 133.46 9.19 131.68 9.97L130.72 7.21C132.82 6.23 134.94 5.74 137.08 5.74C138.44 5.74 139.66 5.93 140.74 6.31C141.82 6.67 142.66 7.19 143.26 7.87C143.88 8.53 144.19 9.29 144.19 10.15C144.19 10.93 143.95 11.63 143.47 12.25C142.99 12.85 142.33 13.32 141.49 13.66ZM154.502 5.8C156.862 5.8 158.662 6.37 159.902 7.51C161.162 8.63 161.792 10.33 161.792 12.61V22H158.252V20.05C157.792 20.75 157.132 21.29 156.272 21.67C155.432 22.03 154.412 22.21 153.212 22.21C152.012 22.21 150.962 22.01 150.062 21.61C149.162 21.19 148.462 20.62 147.962 19.9C147.482 19.16 147.242 18.33 147.242 17.41C147.242 15.97 147.772 14.82 148.832 13.96C149.912 13.08 151.602 12.64 153.902 12.64H158.042V12.4C158.042 11.28 157.702 10.42 157.022 9.82C156.362 9.22 155.372 8.92 154.052 8.92C153.152 8.92 152.262 9.06 151.382 9.34C150.522 9.62 149.792 10.01 149.192 10.51L147.722 7.78C148.562 7.14 149.572 6.65 150.752 6.31C151.932 5.97 153.182 5.8 154.502 5.8ZM153.992 19.48C154.932 19.48 155.762 19.27 156.482 18.85C157.222 18.41 157.742 17.79 158.042 16.99V15.13H154.172C152.012 15.13 150.932 15.84 150.932 17.26C150.932 17.94 151.202 18.48 151.742 18.88C152.282 19.28 153.032 19.48 153.992 19.48ZM190.042 5.98V22H166.432V5.98H170.182V18.82H176.392V5.98H180.142V18.82H186.292V5.98H190.042ZM192.352 18.82V25.3H188.842V22H186.172V18.82H192.352ZM195.084 5.98H198.834V16.54L207.684 5.98H211.104V22H207.354V11.44L198.534 22H195.084V5.98ZM228.839 9.16H223.229V22H219.479V9.16H213.839V5.98H228.839V9.16ZM239.359 11.26C241.399 11.26 242.959 11.72 244.039 12.64C245.119 13.56 245.659 14.86 245.659 16.54C245.659 18.3 245.059 19.66 243.859 20.62C242.679 21.58 240.999 22.05 238.819 22.03L231.559 22V5.98H235.309V11.23L239.359 11.26ZM247.729 5.98H251.479V22H247.729V5.98ZM238.489 19.27C239.589 19.29 240.429 19.06 241.009 18.58C241.589 18.1 241.879 17.4 241.879 16.48C241.879 15.58 241.599 14.92 241.039 14.5C240.479 14.08 239.629 13.86 238.489 13.84L235.309 13.81V19.24L238.489 19.27ZM257.66 10.78C256.98 10.78 256.4 10.55 255.92 10.09C255.44 9.61 255.2 9.01 255.2 8.29C255.2 7.55 255.43 6.95 255.89 6.49C256.37 6.03 256.96 5.8 257.66 5.8C258.36 5.8 258.94 6.03 259.4 6.49C259.88 6.95 260.12 7.55 260.12 8.29C260.12 9.01 259.88 9.61 259.4 10.09C258.92 10.55 258.34 10.78 257.66 10.78ZM257.66 22.21C256.98 22.21 256.4 21.98 255.92 21.52C255.44 21.04 255.2 20.44 255.2 19.72C255.2 18.98 255.43 18.38 255.89 17.92C256.37 17.46 256.96 17.23 257.66 17.23C258.36 17.23 258.94 17.46 259.4 17.92C259.88 18.38 260.12 18.98 260.12 19.72C260.12 20.44 259.88 21.04 259.4 21.52C258.92 21.98 258.34 22.21 257.66 22.21Z" fill="white"/>
</svg>
