<svg width="107" height="13" viewBox="0 0 107 13" fill="none" xmlns="http://www.w3.org/2000/svg">
<path d="M0.362057 0.715722V12.6157H3.09906V2.95972H8.47106V12.6157H11.2081V0.715722H0.362057ZM23.27 12.6157H26.16L20.839 0.715722H18.119L12.815 12.6157H15.637L16.691 10.0657H22.216L23.27 12.6157ZM17.575 7.97472L19.462 3.41872L21.349 7.97472H17.575ZM33.199 12.8197C35.273 12.8197 36.99 12.0717 38.112 10.6947L36.344 9.06272C35.545 9.99772 34.542 10.4737 33.352 10.4737C31.125 10.4737 29.544 8.90972 29.544 6.66572C29.544 4.42172 31.125 2.85772 33.352 2.85772C34.542 2.85772 35.545 3.33372 36.344 4.25172L38.112 2.61972C36.99 1.25972 35.273 0.511722 33.216 0.511722C29.51 0.511722 26.756 3.07872 26.756 6.66572C26.756 10.2527 29.51 12.8197 33.199 12.8197ZM45.285 12.8197C47.359 12.8197 49.076 12.0717 50.198 10.6947L48.43 9.06272C47.631 9.99772 46.628 10.4737 45.438 10.4737C43.211 10.4737 41.63 8.90972 41.63 6.66572C41.63 4.42172 43.211 2.85772 45.438 2.85772C46.628 2.85772 47.631 3.33372 48.43 4.25172L50.198 2.61972C49.076 1.25972 47.359 0.511722 45.302 0.511722C41.596 0.511722 38.842 3.07872 38.842 6.66572C38.842 10.2527 41.596 12.8197 45.285 12.8197ZM60.8725 12.6157H63.7625L58.4415 0.715722H55.7215L50.4175 12.6157H53.2395L54.2935 10.0657H59.8185L60.8725 12.6157ZM55.1775 7.97472L57.0645 3.41872L58.9515 7.97472H55.1775ZM78.1903 12.6157H81.3693L77.8163 6.39372L81.1483 0.715722H78.2413L75.5553 5.52672H73.7873V0.715722H71.0843V5.52672H69.2653L66.5963 0.715722H63.6893L67.0383 6.39372L63.4683 12.6157H66.6473L69.3163 7.82172H71.0843V12.6157H73.7873V7.82172H75.5213L78.1903 12.6157ZM82.6892 12.6157H85.2902L90.9682 4.88072V12.6157H93.6882V0.715722H91.1042L85.4262 8.46772V0.715722H82.6892V12.6157ZM101.802 0.715722H96.6511V12.6157H99.4051V9.33472H101.802C104.981 9.33472 106.97 7.68572 106.97 5.03372C106.97 2.36472 104.981 0.715722 101.802 0.715722ZM101.649 7.09072H99.4051V2.95972H101.649C103.332 2.95972 104.182 3.72472 104.182 5.03372C104.182 6.32572 103.332 7.09072 101.649 7.09072Z" fill="white"/>
</svg>
