<svg width="64" height="13" viewBox="0 0 64 13" fill="none" xmlns="http://www.w3.org/2000/svg">
<path d="M6.98906 12.8197C9.06306 12.8197 10.7801 12.0717 11.9021 10.6947L10.1341 9.06272C9.33506 9.99772 8.33206 10.4737 7.14206 10.4737C4.91506 10.4737 3.33406 8.90972 3.33406 6.66572C3.33406 4.42172 4.91506 2.85772 7.14206 2.85772C8.33206 2.85772 9.33506 3.33372 10.1341 4.25172L11.9021 2.61972C10.7801 1.25972 9.06306 0.511722 7.00606 0.511722C3.30006 0.511722 0.546057 3.07872 0.546057 6.66572C0.546057 10.2527 3.30006 12.8197 6.98906 12.8197ZM13.697 12.6157H19.341C22.401 12.6157 24.152 11.2387 24.152 8.85872C24.152 6.58072 22.605 5.35672 19.732 5.35672H16.434V2.90872H23.302V0.715722H13.697V12.6157ZM16.434 10.5757V7.37972H19.188C20.633 7.37972 21.364 7.88972 21.364 8.94372C21.364 10.0147 20.599 10.5757 19.188 10.5757H16.434ZM31.9258 12.8197C35.6658 12.8197 38.4368 10.2187 38.4368 6.66572C38.4368 3.11272 35.6658 0.511722 31.9258 0.511722C28.1688 0.511722 25.4148 3.12972 25.4148 6.66572C25.4148 10.2017 28.1688 12.8197 31.9258 12.8197ZM31.9258 10.4737C29.8008 10.4737 28.2028 8.92672 28.2028 6.66572C28.2028 4.40472 29.8008 2.85772 31.9258 2.85772C34.0508 2.85772 35.6488 4.40472 35.6488 6.66572C35.6488 8.92672 34.0508 10.4737 31.9258 10.4737ZM48.2593 12.6157H51.3873L47.3753 6.46172L51.2683 0.715722H48.3613L45.2333 5.52672H43.2613V0.715722H40.5243V12.6157H43.2613V7.82172H45.1653L48.2593 12.6157ZM60.9343 0.715722L57.6703 7.10772L54.5083 0.715722H51.5673L56.2593 9.45372L56.1573 9.58972C55.6983 10.3037 55.1713 10.6097 54.4913 10.6097C54.1343 10.6097 53.7433 10.5247 53.3013 10.3887L52.6383 12.4797C53.3013 12.7517 53.9473 12.8877 54.5763 12.8877C56.1743 12.8877 57.5853 11.9697 58.5713 10.1337L63.6373 0.715722H60.9343Z" fill="white"/>
</svg>
