<svg width="88" height="16" viewBox="0 0 88 16" fill="none" xmlns="http://www.w3.org/2000/svg">
<path d="M6.98906 12.8197C9.06306 12.8197 10.7801 12.0717 11.9021 10.6947L10.1341 9.06272C9.33506 9.99772 8.33206 10.4737 7.14206 10.4737C4.91506 10.4737 3.33406 8.90972 3.33406 6.66572C3.33406 4.42172 4.91506 2.85772 7.14206 2.85772C8.33206 2.85772 9.33506 3.33372 10.1341 4.25172L11.9021 2.61972C10.7801 1.25972 9.06306 0.511722 7.00606 0.511722C3.30006 0.511722 0.546057 3.07872 0.546057 6.66572C0.546057 10.2527 3.30006 12.8197 6.98906 12.8197ZM13.697 0.715722V12.6157H16.434V2.95972H21.806V12.6157H24.543V0.715722H13.697ZM30.2299 10.4057V7.65172H35.7549V5.50972H30.2299V2.92572H36.4859V0.715722H27.4929V12.6157H36.7069V10.4057H30.2299ZM44.0824 0.715722H38.9314V12.6157H41.6854V9.33472H44.0824C47.2614 9.33472 49.2504 7.68572 49.2504 5.03372C49.2504 2.36472 47.2614 0.715722 44.0824 0.715722ZM43.9294 7.09072H41.6854V2.95972H43.9294C45.6124 2.95972 46.4624 3.72472 46.4624 5.03372C46.4624 6.32572 45.6124 7.09072 43.9294 7.09072ZM53.8041 10.4057V7.65172H59.3291V5.50972H53.8041V2.92572H60.0601V0.715722H51.0671V12.6157H60.2811V10.4057H53.8041ZM73.1136 10.3717V0.715722H63.9676L63.8316 4.43872C63.7126 7.77072 63.3216 10.3207 61.7746 10.3717H61.2986L61.2816 15.0807H63.8316V12.6157H72.2296V15.0807H74.7796V10.3717H73.1136ZM66.2626 4.69372L66.3136 2.95972H70.3936V10.3717H65.0726C65.8886 9.40272 66.1606 7.22672 66.2626 4.69372ZM76.6335 12.6157H79.2345L84.9125 4.88072V12.6157H87.6325V0.715722H85.0485L79.3705 8.46772V0.715722H76.6335V12.6157Z" fill="white"/>
</svg>
